<svg width="254" height="123" viewBox="0 0 254 123" fill="none" xmlns="http://www.w3.org/2000/svg">
<g filter="url(#filter0_dddddd_2399_12421)">
<mask id="path-1-inside-1_2399_12421" fill="white">
<path fill-rule="evenodd" clip-rule="evenodd" d="M205.609 72.3108L125.559 44.7326L125.558 44.7327C123.011 52.1283 114.95 56.0582 107.555 53.5108L59.4726 193.077L166.305 229.882L214.387 90.3154C206.991 87.7675 203.061 79.7065 205.609 72.3108Z"/>
</mask>
<path fill-rule="evenodd" clip-rule="evenodd" d="M205.609 72.3108L125.559 44.7326L125.558 44.7327C123.011 52.1283 114.95 56.0582 107.555 53.5108L59.4726 193.077L166.305 229.882L214.387 90.3154C206.991 87.7675 203.061 79.7065 205.609 72.3108Z" fill="#FFFDF9"/>
<path d="M125.559 44.7326L125.716 44.2756L125.259 44.1181L125.102 44.5751L125.559 44.7326ZM205.609 72.3108L206.066 72.4682L206.223 72.0112L205.766 71.8537L205.609 72.3108ZM125.558 44.7327L125.101 44.5753L125.101 44.5753L125.558 44.7327ZM107.555 53.5108L107.712 53.0538L107.255 52.8964L107.098 53.3533L107.555 53.5108ZM59.4726 193.077L59.0156 192.92L58.8582 193.377L59.3152 193.534L59.4726 193.077ZM166.305 229.882L166.147 230.339L166.604 230.496L166.762 230.039L166.305 229.882ZM214.387 90.3154L214.844 90.4728L215.001 90.0158L214.544 89.8584L214.387 90.3154ZM125.401 45.1896L205.452 72.7678L205.766 71.8537L125.716 44.2756L125.401 45.1896ZM126.015 44.8902L126.016 44.89L125.102 44.5751L125.101 44.5753L126.015 44.8902ZM107.397 53.9678C115.045 56.6022 123.381 52.5381 126.015 44.8902L125.101 44.5753C122.641 51.7184 114.855 55.5143 107.712 53.0538L107.397 53.9678ZM59.9296 193.234L108.012 53.6682L107.098 53.3533L59.0156 192.92L59.9296 193.234ZM166.462 229.425L59.6301 192.62L59.3152 193.534L166.147 230.339L166.462 229.425ZM213.93 90.1579L165.848 229.724L166.762 230.039L214.844 90.4728L213.93 90.1579ZM214.544 89.8584C207.401 87.3974 203.605 79.6116 206.066 72.4682L205.152 72.1533C202.517 79.8015 206.581 88.1375 214.229 90.7724L214.544 89.8584Z" fill="#214434" mask="url(#path-1-inside-1_2399_12421)"/>
</g>
<mask id="path-3-inside-2_2399_12421" fill="white">
<path fill-rule="evenodd" clip-rule="evenodd" d="M209.514 93.212C209.514 93.2119 209.513 93.2119 209.513 93.2118C202.597 90.8291 198.922 83.2907 201.304 76.3743C201.304 76.3742 201.304 76.3741 201.304 76.374L126.444 50.5839L126.444 50.5841C124.061 57.5004 116.523 61.1757 109.607 58.7929L109.606 58.7929L64.6414 189.312L164.549 223.731L209.514 93.212Z"/>
</mask>
<path d="M209.514 93.212L210.199 93.4482L210.435 92.7627L209.75 92.5265L209.514 93.212ZM201.304 76.374L201.99 76.6102L202.226 75.9247L201.541 75.6885L201.304 76.374ZM126.444 50.5839L126.68 49.8984L125.995 49.6623L125.759 50.3478L126.444 50.5839ZM126.444 50.5841L125.759 50.3479L126.444 50.5841ZM109.606 58.7929L109.843 58.1074L109.157 57.8712L108.921 58.5567L109.606 58.7929ZM64.6414 189.312L63.9558 189.076L63.7197 189.762L64.4052 189.998L64.6414 189.312ZM164.549 223.731L164.312 224.417L164.998 224.653L165.234 223.967L164.549 223.731ZM209.75 92.5265C209.75 92.5265 209.75 92.5265 209.75 92.5265C209.75 92.5265 209.75 92.5265 209.75 92.5265C209.75 92.5265 209.75 92.5265 209.75 92.5265L209.75 92.5265L209.75 92.5265L209.75 92.5265L209.75 92.5265L209.75 92.5265C209.75 92.5265 209.75 92.5265 209.75 92.5265C209.75 92.5265 209.75 92.5265 209.75 92.5265C209.75 92.5265 209.75 92.5265 209.75 92.5265C209.75 92.5265 209.75 92.5265 209.75 92.5265C209.75 92.5265 209.75 92.5265 209.75 92.5265C209.75 92.5265 209.75 92.5265 209.75 92.5265C209.75 92.5265 209.75 92.5265 209.75 92.5265C209.75 92.5265 209.75 92.5265 209.75 92.5265C209.75 92.5265 209.75 92.5265 209.75 92.5265C209.75 92.5265 209.75 92.5265 209.75 92.5264C209.75 92.5264 209.75 92.5264 209.75 92.5264L209.75 92.5264L209.75 92.5264L209.75 92.5264L209.75 92.5264L209.75 92.5264L209.75 92.5264L209.75 92.5264C209.75 92.5264 209.75 92.5264 209.75 92.5264C209.75 92.5264 209.75 92.5264 209.75 92.5264C209.75 92.5264 209.75 92.5264 209.75 92.5264C209.75 92.5264 209.75 92.5264 209.75 92.5264C209.75 92.5264 209.75 92.5264 209.75 92.5264C209.75 92.5264 209.75 92.5264 209.75 92.5264C209.75 92.5264 209.75 92.5264 209.75 92.5264C209.75 92.5264 209.75 92.5264 209.75 92.5264C209.75 92.5264 209.75 92.5264 209.75 92.5264C209.75 92.5264 209.75 92.5264 209.75 92.5264C209.75 92.5264 209.75 92.5264 209.75 92.5264C209.75 92.5264 209.75 92.5264 209.75 92.5264L209.75 92.5264L209.75 92.5264L209.75 92.5264L209.75 92.5264L209.75 92.5264L209.75 92.5264L209.75 92.5264C209.75 92.5264 209.75 92.5264 209.75 92.5264C209.75 92.5264 209.75 92.5264 209.75 92.5264C209.749 92.5264 209.749 92.5264 209.749 92.5264C209.749 92.5264 209.749 92.5264 209.749 92.5264C209.749 92.5264 209.749 92.5264 209.749 92.5264C209.749 92.5264 209.749 92.5264 209.749 92.5264C209.749 92.5264 209.749 92.5264 209.749 92.5264C209.749 92.5264 209.749 92.5264 209.749 92.5264C209.749 92.5264 209.749 92.5264 209.749 92.5264C209.749 92.5264 209.749 92.5264 209.749 92.5264C209.749 92.5264 209.749 92.5264 209.749 92.5264L209.749 92.5264L209.749 92.5263L209.749 92.5263L209.749 92.5263L209.749 92.5263C209.749 92.5263 209.749 92.5263 209.749 92.5263C209.749 92.5263 209.749 92.5263 209.749 92.5263C209.749 92.5263 209.749 92.5263 209.749 92.5263L209.277 93.8974C209.277 93.8974 209.277 93.8974 209.277 93.8974C209.277 93.8974 209.277 93.8974 209.277 93.8974C209.277 93.8974 209.277 93.8974 209.277 93.8974L209.277 93.8974L209.277 93.8974L209.277 93.8974L209.277 93.8974L209.277 93.8974C209.277 93.8974 209.277 93.8974 209.277 93.8974C209.277 93.8974 209.277 93.8974 209.277 93.8974C209.277 93.8974 209.277 93.8974 209.277 93.8974C209.277 93.8974 209.277 93.8974 209.277 93.8974C209.277 93.8974 209.277 93.8974 209.277 93.8974C209.277 93.8974 209.277 93.8974 209.277 93.8974C209.277 93.8974 209.277 93.8974 209.277 93.8974C209.277 93.8974 209.277 93.8974 209.277 93.8974C209.277 93.8974 209.277 93.8974 209.277 93.8974C209.277 93.8974 209.277 93.8974 209.277 93.8974C209.277 93.8974 209.277 93.8974 209.277 93.8974L209.277 93.8974L209.277 93.8974L209.277 93.8974L209.277 93.8974L209.277 93.8974L209.277 93.8974L209.277 93.8974C209.277 93.8974 209.277 93.8974 209.277 93.8974C209.277 93.8974 209.277 93.8974 209.277 93.8974C209.277 93.8974 209.277 93.8974 209.277 93.8974C209.277 93.8974 209.277 93.8974 209.277 93.8974C209.277 93.8974 209.277 93.8974 209.277 93.8974C209.277 93.8974 209.277 93.8974 209.277 93.8974C209.277 93.8974 209.277 93.8974 209.277 93.8974C209.277 93.8974 209.277 93.8974 209.277 93.8974C209.277 93.8974 209.277 93.8974 209.277 93.8974C209.277 93.8974 209.277 93.8974 209.277 93.8974C209.277 93.8974 209.277 93.8974 209.277 93.8974C209.277 93.8974 209.277 93.8974 209.277 93.8974L209.277 93.8974L209.277 93.8975L209.277 93.8975L209.277 93.8975L209.277 93.8975L209.277 93.8975L209.277 93.8975C209.277 93.8975 209.277 93.8975 209.277 93.8975C209.277 93.8975 209.277 93.8975 209.277 93.8975C209.277 93.8975 209.277 93.8975 209.277 93.8975C209.277 93.8975 209.277 93.8975 209.277 93.8975C209.277 93.8975 209.277 93.8975 209.277 93.8975C209.277 93.8975 209.277 93.8975 209.277 93.8975C209.277 93.8975 209.277 93.8975 209.277 93.8975C209.277 93.8975 209.277 93.8975 209.277 93.8975C209.277 93.8975 209.277 93.8975 209.277 93.8975C209.277 93.8975 209.277 93.8975 209.277 93.8975C209.277 93.8975 209.277 93.8975 209.277 93.8975L209.277 93.8975L209.277 93.8975L209.277 93.8975L209.277 93.8975L209.277 93.8975C209.277 93.8975 209.277 93.8975 209.278 93.8975C209.278 93.8975 209.278 93.8975 209.278 93.8975C209.278 93.8975 209.278 93.8975 209.278 93.8975L209.75 92.5265ZM209.749 92.5263C203.212 90.274 199.738 83.1482 201.99 76.6105L200.619 76.1381C198.106 83.4331 201.982 91.3842 209.277 93.8974L209.749 92.5263ZM201.99 76.6105C201.99 76.6104 201.99 76.6104 201.99 76.6103C201.99 76.6103 201.99 76.6102 201.99 76.6102L200.619 76.1378C200.619 76.1379 200.619 76.1379 200.619 76.138C200.619 76.138 200.619 76.1381 200.619 76.1381L201.99 76.6105ZM126.208 51.2694L201.068 77.0595L201.541 75.6885L126.68 49.8984L126.208 51.2694ZM127.13 50.8202L127.13 50.8201L125.759 50.3478L125.759 50.3479L127.13 50.8202ZM109.37 59.4784C116.665 61.9916 124.616 58.1152 127.13 50.8202L125.759 50.3479C123.506 56.8857 116.381 60.3597 109.843 58.1074L109.37 59.4784ZM109.37 59.4784L109.37 59.4784L109.843 58.1074L109.843 58.1074L109.37 59.4784ZM65.3269 189.548L110.292 59.029L108.921 58.5567L63.9558 189.076L65.3269 189.548ZM164.785 223.046L64.8775 188.627L64.4052 189.998L164.312 224.417L164.785 223.046ZM208.828 92.9758L163.863 223.495L165.234 223.967L210.199 93.4482L208.828 92.9758Z" fill="#214434" mask="url(#path-3-inside-2_2399_12421)"/>
<path d="M153.827 78.7154L154.243 78.6233L154.542 77.2894L153.06 76.7564L151.807 77.7467L151.962 78.0443L153.391 77.6312L153.827 78.7154ZM153.133 78.879L152.348 78.5964L149.312 81.0114C147.154 82.7243 146.565 83.1273 146.244 83.0117L146.013 83.3722L148.119 84.13L148.35 83.7695C147.859 83.5929 147.877 83.0954 148.716 82.2183L150.689 82.9279C150.355 84.1079 150.081 84.3924 149.617 84.2255L149.377 84.5828L151.849 85.4722L152.08 85.1117C151.794 85.009 151.847 84.4133 152.382 82.116L153.133 78.879ZM149.158 81.8028C149.351 81.6303 149.572 81.4376 149.826 81.2366L151.403 79.99L150.949 81.9231L150.836 82.4064L149.158 81.8028ZM156.583 84.0308C157.154 84.2363 156.988 84.7814 156.602 85.3482C156.164 86.0068 155.606 86.3806 155.071 86.1879C154.098 85.8379 154.208 84.7186 155.352 83.0238C156.292 81.6181 157.155 80.7596 158.137 81.1128C158.94 81.4018 159.027 82.5318 158.718 83.6704L159.152 83.7257L160.595 81.5639L160.282 81.3405C160.061 81.5333 159.857 81.5405 159.679 81.4763C159.215 81.3093 159.045 80.8853 158.286 80.6124C156.43 79.9445 154.797 81.0098 153.967 82.253C152.636 84.2434 153.115 86.0487 154.953 86.7101C155.596 86.9413 156.098 86.8902 156.562 86.6642C156.558 86.8441 156.584 87.0247 156.652 87.2003L157.062 87.348C157.111 87.0732 157.216 86.8087 157.477 86.4189C158.239 85.282 158.671 84.7822 159.126 84.946L159.353 84.5944L156.81 83.6792L156.583 84.0308ZM161.809 82.001L161.582 82.3526C162.117 82.5453 161.905 83.0232 160.534 85.0697C159.184 87.0836 158.772 87.5298 158.236 87.3372L158.009 87.6888L163.051 89.503L164.516 87.3088L164.209 87.0675L161.877 88.5362L160.27 87.9583L161.785 85.7112C162.49 85.9649 162.86 86.3906 162.403 87.0728L162.876 87.243L164.397 84.9781L163.924 84.8079C163.47 85.4811 162.788 85.528 162.074 85.2711L163.492 83.1508L164.911 83.6613L164.806 85.8307L165.272 85.8778L166.682 83.7542L161.809 82.001ZM144.682 97.3371C146.732 94.2772 145.296 91.0345 141.093 89.5221C137.839 88.3512 134.613 89.0588 133.215 91.1588C131.779 93.2761 132.979 94.9636 134.362 95.4612C135.69 95.9393 137.062 95.361 137.755 94.2015C137.213 94.0064 136.686 93.1735 137.435 91.9424C138.003 91.0442 139.129 90.4692 140.566 90.9864C141.949 91.484 142.562 92.9297 141.391 94.6522C138.397 99.0571 128.162 97.0282 124.666 102.233C123.4 104.135 124.148 105.63 125.423 106.088C126.589 106.508 127.575 106.066 128.19 105.124C128.729 104.307 128.711 103.504 128.362 102.858C128.647 102.746 128.957 102.735 129.201 102.823C131.099 103.506 129.734 107.64 133.504 108.996C136.297 110.001 138.123 108.33 139.928 105.611L141.44 103.368L140.003 102.851C138.66 104.879 136.973 105.313 135.644 104.835C133.773 104.162 133.134 102.278 130.748 101.419C129.338 100.912 128.001 101.136 126.918 101.848C126.864 101.829 126.8 101.836 126.718 101.807C130.386 98.5941 140.865 103.008 144.682 97.3371ZM149.825 114.502L150.516 113.433C147.913 112.496 148.283 111.129 151.543 106.238C155.201 100.755 156.924 98.4346 158.895 96.02L157.16 95.3955C153.986 96.6422 150.915 97.3444 147.466 97.4815L147.148 98.6225L151.312 99.0493L147.476 104.774C144.169 109.71 142.951 110.711 140.348 109.774L139.63 110.833L149.825 114.502ZM164.466 110L168.547 103.934L167.002 103.378L162.92 109.444L156.223 107.033L155.287 108.442L161.984 110.853L157.893 116.945L159.439 117.501L163.53 111.409L170.201 113.809L171.136 112.4L164.466 110Z" fill="#214434"/>
<g filter="url(#filter1_dddddd_2399_12421)">
<mask id="path-6-inside-3_2399_12421" fill="white">
<path fill-rule="evenodd" clip-rule="evenodd" d="M107.934 14.793L24.2206 2.11989C23.0497 9.85401 15.8307 15.1746 8.09656 14.0037L8.09583 14.0036L-13.9995 159.957L97.7218 176.87L119.817 30.9167C112.084 29.7453 106.764 22.5268 107.934 14.793Z"/>
</mask>
<path fill-rule="evenodd" clip-rule="evenodd" d="M107.934 14.793L24.2206 2.11989C23.0497 9.85401 15.8307 15.1746 8.09656 14.0037L8.09583 14.0036L-13.9995 159.957L97.7218 176.87L119.817 30.9167C112.084 29.7453 106.764 22.5268 107.934 14.793Z" fill="#FFFDF9"/>
<path d="M107.934 14.793L108.412 14.8653L108.485 14.3874L108.007 14.3151L107.934 14.793ZM24.2206 2.11989L24.293 1.64197L23.8151 1.56962L23.7427 2.04753L24.2206 2.11989ZM8.09583 14.0036L8.16818 13.5257L7.69026 13.4534L7.61791 13.9313L8.09583 14.0036ZM-13.9995 159.957L-14.4775 159.885L-14.5498 160.363L-14.0719 160.435L-13.9995 159.957ZM97.7218 176.87L97.6495 177.348L98.1274 177.421L98.1998 176.943L97.7218 176.87ZM119.817 30.9167L120.295 30.9891L120.367 30.5112L119.89 30.4388L119.817 30.9167ZM108.007 14.3151L24.293 1.64197L24.1483 2.59781L107.862 15.2709L108.007 14.3151ZM23.7427 2.04753C22.6117 9.51771 15.6391 14.6567 8.16891 13.5258L8.02421 14.4817C16.0223 15.6925 23.4876 10.1903 24.6985 2.19225L23.7427 2.04753ZM8.16891 13.5258L8.16818 13.5257L8.02348 14.4815L8.02421 14.4817L8.16891 13.5258ZM7.61791 13.9313L-14.4775 159.885L-13.5216 160.03L8.57375 14.076L7.61791 13.9313ZM-14.0719 160.435L97.6495 177.348L97.7942 176.393L-13.9272 159.479L-14.0719 160.435ZM98.1998 176.943L120.295 30.9891L119.339 30.8444L97.2439 176.798L98.1998 176.943ZM119.89 30.4388C112.42 29.3074 107.281 22.3352 108.412 14.8653L107.456 14.7206C106.246 22.7184 111.747 30.1833 119.745 31.3946L119.89 30.4388Z" fill="#214434" mask="url(#path-6-inside-3_2399_12421)"/>
</g>
<g clip-path="url(#clip0_2399_12421)">
<path d="M45.4031 43.9485C46.4514 43.2202 47.5698 42.6328 48.8003 42.2774C48.9899 42.2229 49.0624 42.1414 49.0813 41.9403C49.4094 38.4557 49.5343 34.9648 49.4631 31.4647C49.4387 30.263 49.2091 29.0866 49.1239 27.8937C49.0846 27.3406 49.0372 26.7891 49.0793 26.2329C49.1085 25.8428 49.2858 25.5508 49.5926 25.3224C50.2096 24.8633 50.9135 24.6245 51.6658 24.5266C53.8257 24.2452 55.986 24.0753 58.1696 24.2934C59.7722 24.4535 61.3849 24.5126 62.9929 24.6222C64.7001 24.739 66.3903 24.9948 68.0749 25.2834C70.2909 25.6633 72.4772 26.1652 74.5945 26.9365C75.4305 27.2412 76.2492 27.5858 77.043 27.9891C77.657 28.3011 77.9532 28.9808 77.7549 29.6479C77.7177 29.7743 77.6814 29.9067 77.6138 30.017C76.9931 31.0275 76.768 32.1756 76.4869 33.2996C75.6731 36.549 75.1559 39.8548 74.643 43.1606C74.5919 43.4914 74.546 43.8234 74.4787 44.1511C74.4411 44.3366 74.5047 44.4155 74.673 44.484C75.6749 44.8931 76.7067 45.2294 77.6824 45.7029C77.9998 45.8567 78.3049 46.0319 78.5991 46.226C79.8856 47.0721 80.3834 48.2549 80.1361 49.7705C79.9288 51.0406 79.3832 52.1405 78.53 53.0978C77.9366 53.7634 77.3121 54.3967 76.532 54.8396C75.6762 55.3251 74.7614 55.6903 73.8524 56.0653C71.5377 57.0193 69.1427 57.7986 67.032 59.1986C66.2336 59.7281 65.3446 60.0667 64.463 60.4265C63.117 60.9757 61.8262 61.6464 60.5058 62.251C58.1713 63.3203 55.6966 63.7673 53.1594 63.922C51.094 64.0479 49.0409 63.8862 47.0823 63.2003C43.4871 61.9409 40.8082 59.65 39.4291 56.0194C38.8485 54.4905 38.9661 52.9246 39.3506 51.364C39.8555 49.315 41.0345 47.6889 42.5195 46.2482C43.2607 45.5293 44.0472 44.8657 44.8939 44.2745C45.0282 44.1806 45.1467 44.0516 45.3228 44.0279C43.8802 45.1484 42.487 46.3118 41.4664 47.864C40.9042 48.7188 40.3252 49.5455 40.0618 50.5619C39.7952 51.5913 39.5707 52.6158 39.6398 53.6868C39.7738 55.7686 40.8384 57.4355 42.1352 58.9375C43.351 60.3464 45.0208 61.0333 46.8321 61.3773C47.0054 61.4102 47.072 61.3674 47.0886 61.1926C47.1075 60.9915 47.2322 60.9144 47.4361 60.9203C47.7386 60.929 48.0291 60.9921 48.3194 61.0685C48.6041 61.1436 48.8781 61.2606 49.1715 61.2963C49.1931 61.2261 49.1613 61.1901 49.1258 61.1681C48.9832 61.0814 48.8347 61.0042 48.6939 60.9157C48.5581 60.8304 48.5114 60.6978 48.5578 60.5486C48.6101 60.3783 48.7514 60.4706 48.8499 60.4792C49.5141 60.5359 50.1372 60.7628 50.7708 60.9478C50.9902 61.0121 51.2113 61.0931 51.4843 61.0784C51.359 60.8501 51.1541 60.8057 50.9778 60.7207C50.807 60.6385 50.5301 60.5692 50.59 60.3641C50.646 60.1724 50.9246 60.2447 51.112 60.2623C51.438 60.2931 51.7477 60.4018 52.0643 60.4772C52.2733 60.5269 52.484 60.5794 52.725 60.4765C52.5726 60.3364 52.3926 60.3399 52.2535 60.2559C52.1589 60.1987 52.0599 60.1341 52.0712 60.0188C52.0848 59.8762 52.2264 59.8982 52.3228 59.8863C52.7546 59.8329 53.1585 59.9726 53.5681 60.0751C53.8801 60.1532 54.1922 60.2344 54.5247 60.1872C54.0966 59.9433 53.6566 59.7309 53.2263 59.5C52.7921 59.267 52.3858 58.9934 52.0325 58.574C52.4592 58.7271 52.8367 58.8688 53.2185 58.9977C53.5941 59.1248 53.9774 59.2245 54.3677 59.2986C54.7658 59.3741 55.1637 59.4507 55.57 59.4692C55.9594 59.4866 56.349 59.5403 56.738 59.4549C56.6172 59.4115 56.4947 59.3987 56.3734 59.3803C55.049 59.1763 53.7348 58.925 52.4591 58.5071C51.3901 58.1572 50.3738 57.7014 49.5049 56.9669C49.4452 56.9163 49.3461 56.857 49.3452 56.8004C49.3356 56.3799 48.9757 56.2975 48.7117 56.1386C48.3125 55.8978 47.8862 55.7036 47.5186 55.4103C46.971 54.9729 46.8239 54.4552 47.0433 53.7897C47.1803 53.3732 47.3818 52.9776 47.4349 52.533C47.4641 52.2922 47.4438 52.0584 47.381 51.8289C47.3386 51.6744 47.1519 51.7314 47.0572 51.637C46.9644 51.5443 46.8516 51.4716 46.747 51.3919C46.7008 51.3568 46.6566 51.3017 46.5704 51.3814C46.6814 51.503 46.7925 51.624 46.9035 51.7455C47.0416 51.8971 47.1502 52.0637 47.2098 52.2635C47.27 52.4633 47.2225 52.5192 47.0151 52.4564C46.5686 52.3215 46.1862 52.0743 45.814 51.8054C45.3645 51.4815 44.9293 51.1328 44.3849 50.9708C44.2755 50.9384 44.1665 50.8938 44.0159 50.9356C44.9253 51.6992 46.0739 52.1577 46.5637 53.3406C46.4134 53.3499 46.308 53.3106 46.2005 53.2758C45.7949 53.1461 45.5074 52.8303 45.1547 52.6177C44.9036 52.4663 44.6508 52.3243 44.3402 52.3673C44.28 52.3758 44.199 52.3587 44.1726 52.4204C44.138 52.5013 44.226 52.5427 44.2731 52.5832C44.5455 52.8193 44.8266 53.0459 45.0997 53.2815C45.2247 53.3894 45.353 53.4998 45.3855 53.6786C45.0203 53.4559 44.6411 53.2676 44.313 53C44.1192 52.842 43.9581 52.6566 43.868 52.4194C43.7887 52.2108 43.8641 52.1153 44.08 52.144C44.3085 52.1742 44.5276 52.2406 44.7425 52.3198C45.0342 52.4278 45.3237 52.5403 45.6146 52.6509C45.0121 51.8784 44.0231 51.5487 43.4566 50.6923C43.7871 50.632 44.0688 50.6748 44.3449 50.7675C44.8346 50.9324 45.2486 51.2374 45.6863 51.4985C45.9107 51.6327 46.1383 51.7593 46.4243 51.8447C46.3922 51.6803 46.3202 51.5711 46.2423 51.4697C46.0697 51.2451 45.8581 51.0587 45.6416 50.8775C45.3379 50.6237 45.0156 50.3856 44.7795 50.0635C44.6309 49.8599 44.4598 49.6952 44.2454 49.5649C44.0599 49.4516 43.9168 49.301 43.9464 49.0399C44.3017 49.0611 44.5915 49.2184 44.8655 49.4168C45.2523 49.6966 45.5695 50.0555 45.9366 50.3573C46.0843 50.4792 46.2269 50.6159 46.4635 50.6626C46.0439 50.1044 45.6471 49.5778 45.252 49.0498C44.9728 48.6765 44.7028 48.2973 44.3837 47.9536C44.165 47.7179 44.2389 47.5455 44.6137 47.4833C44.3288 47.6527 44.4659 47.7658 44.5932 47.8803C45.0408 48.2833 45.4088 48.7557 45.7684 49.235C46.286 49.9249 46.7522 50.6547 47.3392 51.292C47.5333 51.5028 47.5438 51.5036 47.6302 51.2486C47.8121 50.7115 47.8358 50.1412 47.9684 49.5937C47.9849 49.526 47.9524 49.4793 47.9068 49.4309C47.3154 48.8032 46.6158 48.303 45.9438 47.7653C46.3309 48.2976 46.634 48.8833 47.0636 49.3826C47.219 49.5625 47.3724 49.7453 47.4734 49.9636C47.5509 50.1316 47.5875 50.3029 47.4969 50.502C47.4426 50.4595 47.406 50.4373 47.3761 50.4075C46.8304 49.8616 46.455 49.1848 45.98 48.5844C45.9543 48.5519 45.9422 48.504 45.9358 48.4617C45.8969 48.1899 45.7563 47.9687 45.5943 47.7571C45.4121 47.5196 45.2228 47.287 45.0499 47.0431C44.9028 46.8355 44.7928 46.6086 44.7954 46.2994C45.1677 46.6141 45.4517 46.962 45.7662 47.2785C46.0793 47.5937 46.3861 47.9172 46.85 48.0836C46.8054 47.9214 46.7073 47.8409 46.634 47.7459C46.0255 46.953 45.4875 46.1204 45.127 45.1812C45.039 44.9523 45.1531 44.8793 45.3649 44.7497C45.3253 44.9637 45.1694 45.0768 45.2867 45.254C45.7775 45.9959 46.2416 46.7548 46.736 47.4939C47.0549 47.9708 47.436 48.3985 47.8822 48.7651C48.0035 48.8645 48.0661 48.8835 48.0886 48.6914C48.1088 48.5176 48.1472 48.3428 48.2011 48.1765C48.2632 47.9834 48.2273 47.8878 48.0217 47.8018C47.1234 47.4253 46.4414 46.7932 45.9358 45.9652C45.8762 45.8677 45.8217 45.7666 45.7695 45.6646C45.7225 45.5724 45.6828 45.4769 45.6398 45.3825C46.3235 46.3399 47.0774 47.1889 48.2831 47.5533C48.2188 47.3268 48.0987 47.1759 47.9746 47.0314C47.7228 46.7371 47.456 46.4559 47.2059 46.1603C47.0273 45.9493 46.9056 45.7049 46.8698 45.4255C46.8602 45.3497 46.8245 45.252 46.9016 45.2063C46.9712 45.165 47.0577 45.2147 47.1221 45.2579C47.276 45.3604 47.4214 45.4751 47.5748 45.5769C47.6776 45.6452 47.7771 45.7397 47.9222 45.6999C47.7802 45.5068 47.6494 45.3225 47.5126 45.1429C47.2811 44.8395 47.078 44.5225 46.999 44.1413C46.9818 44.0576 46.9256 43.9579 47.0011 43.8917C47.0794 43.8232 47.1831 43.8591 47.277 43.8922C47.5173 43.9767 47.6836 44.167 47.8837 44.3088C47.9835 44.3794 48.0768 44.4764 48.2464 44.4412C47.9994 44.0239 47.7538 43.633 47.8017 43.1494C47.6973 43.124 47.616 43.1692 47.5312 43.1868C46.788 43.3439 46.0734 43.583 45.4043 43.9476L45.4031 43.9485ZM55.7804 54.6854C55.7736 54.9013 55.664 55.0868 55.5971 55.2841C55.326 56.0817 55.1257 56.9095 54.6382 57.6186C54.5587 57.7344 54.6103 57.7691 54.7257 57.7831C55.8887 57.9232 57.0238 58.2302 58.1891 58.361C58.4386 58.3891 58.4606 58.32 58.4286 58.0991C58.3122 57.295 58.3461 56.49 58.471 55.6858C58.5647 56.3741 58.3967 57.0888 58.6652 57.7639C58.7283 57.6685 58.7638 57.5722 58.7916 57.474C59.0958 56.379 59.232 55.2469 59.5372 54.1521C59.5769 54.01 59.5113 53.9895 59.3897 53.9902C59.0725 53.992 58.7552 53.9729 58.4432 53.9167C58.289 53.8889 58.2145 53.9349 58.1851 54.0884C58.1123 54.4687 58.037 54.8481 57.9533 55.226C57.7979 55.93 57.6632 56.6419 57.3247 57.2893C57.1992 57.5293 57.0605 57.7639 56.7744 57.9086C56.6959 57.3585 56.7436 56.8376 56.8413 56.3187C56.9497 55.7388 57.0587 55.159 57.0897 54.5684C57.098 54.4091 57.0845 54.2491 57.0803 54.0366C56.9678 54.1599 56.965 54.2592 56.9498 54.3505C56.8566 54.9062 56.7728 55.4631 56.6734 56.0174C56.5854 56.5109 56.497 57.007 56.2467 57.4524C56.1719 57.5852 56.0955 57.719 55.9418 57.8105C55.8594 57.5881 55.8476 57.3895 55.8539 57.1862C55.8695 56.7098 55.9707 56.243 56.012 55.7693C56.0404 55.4452 56.0733 55.1195 55.9646 54.8012C55.9331 54.7082 55.9028 54.6101 55.7714 54.6895C55.8045 54.6165 55.8462 54.5263 55.9294 54.5341C56.0179 54.5425 56.023 54.6497 56.046 54.7219C56.1189 54.9511 56.1398 55.1881 56.1232 55.4268C56.0977 55.7869 56.0611 56.1467 56.0404 56.507C56.0271 56.7312 56.0252 56.9584 56.1699 57.2067C56.4547 56.0704 56.6571 54.9632 56.8646 53.8571C56.8949 53.6963 56.7793 53.6882 56.6791 53.6628C56.1246 53.5219 55.5709 53.3751 55.0141 53.244C53.2274 52.8226 51.4787 52.3229 50.1338 50.9581C49.9925 50.8147 49.9723 50.9203 49.9549 51.0465C49.8955 51.4732 49.8518 51.9019 49.7656 52.3258C49.6214 53.0333 49.4703 53.7405 49.4122 54.462C49.4089 54.5058 49.4012 54.5502 49.4032 54.5936C49.4053 54.6364 49.3748 54.6928 49.4593 54.7365C49.8057 53.6276 49.7407 52.4389 50.1977 51.3705C50.2714 51.7085 50.2514 52.0416 50.2107 52.3742C50.1482 52.881 50.0777 53.3874 50.0199 53.8947C50.0011 54.0618 49.9845 54.2361 50.0949 54.4225C50.2561 54.0038 50.3268 53.5971 50.431 53.1999C50.5352 52.8028 50.6137 52.3982 50.8082 52.0326C50.8564 52.5016 50.7515 53.0409 50.499 53.681C50.3764 53.9917 50.3039 54.3491 50.0994 54.5946C49.8429 54.9018 50.1185 55.2145 49.9783 55.4958C49.9719 55.5083 49.9595 55.5179 49.9342 55.5456C49.8324 55.2361 49.9579 54.8981 49.7809 54.5855C49.575 54.8847 49.5462 55.2242 49.3895 55.505C49.2795 55.7027 49.3608 55.7757 49.5186 55.8691C50.8449 56.6562 52.2476 57.2547 53.7522 57.6065C54.4162 57.7618 54.5222 57.7112 54.796 57.0705C54.8338 56.9815 54.8696 56.8912 54.8993 56.799C55.045 56.3469 55.1775 55.8899 55.337 55.4427C55.4357 55.1658 55.5285 54.8759 55.7808 54.6827L55.7804 54.6854ZM70.2575 51.5732C70.9546 51.601 72.1739 51.3902 72.7259 51.1899C73.0435 51.0747 73.1767 50.8965 73.2091 50.5447C73.7065 45.1549 74.4276 39.7996 75.6845 34.5265C75.9602 33.3698 76.2516 32.2194 76.5932 31.0812C76.718 30.6643 76.8453 30.2482 76.9916 29.7658C76.4408 30.1095 75.9101 30.3349 75.3488 30.4898C74.132 30.8251 72.8873 30.8905 71.6332 30.895C68.7161 30.9056 65.8042 30.8071 62.9016 30.5067C60.1438 30.2208 57.4287 29.7213 54.791 28.8431C54.1987 28.6462 53.5719 28.5681 52.9934 28.317C52.6195 28.155 52.3174 27.871 51.934 27.7296C51.1631 27.4454 50.3414 27.2767 49.6549 26.6898C49.6678 27.2785 49.9227 27.6759 50.3222 27.9988C50.6661 28.2764 51.0582 28.4801 51.4286 28.7173C51.6199 28.8399 51.8112 28.963 51.9703 29.2062C51.3778 29.0114 50.9478 28.5835 50.3358 28.4252C50.6257 29.1419 51.293 29.4877 51.6912 30.0758C51.206 30.0964 50.9602 29.601 50.5108 29.6117C50.4787 29.7398 50.5441 29.8263 50.6031 29.9121C50.7465 30.1197 50.9685 30.2397 51.1539 30.4005C51.3206 30.5455 51.494 30.6839 51.5774 30.8974C51.6178 31.0005 51.7035 31.1279 51.6133 31.2146C51.5394 31.2853 51.4121 31.2171 51.314 31.1797C51.1991 31.136 51.0881 31.0821 50.9729 31.041C50.9265 31.0245 50.8634 31.0129 50.8291 31.0661C50.7913 31.1248 50.8445 31.1682 50.8794 31.2003C51.0088 31.3193 51.1456 31.4308 51.2775 31.547C51.4502 31.6992 51.6212 31.856 51.6838 32.0876C51.7074 32.1753 51.7726 32.2884 51.687 32.3592C51.6169 32.417 51.5173 32.3528 51.4396 32.3185C51.2306 32.2262 51.0285 32.1177 50.8181 32.028C50.6619 31.9609 50.4645 31.9037 50.3443 32.0298C50.2222 32.1577 50.3103 32.3473 50.3672 32.5047C50.4702 32.7882 50.7008 32.9754 50.8926 33.1918C51.0354 33.353 51.1889 33.5097 51.1843 33.8011C50.7648 33.3654 50.3922 32.9553 50.0694 32.4918C50.0507 32.8363 50.0537 33.1691 50.0636 33.5017C50.0701 33.7049 50.1108 33.9029 50.1915 34.0915C50.2047 34.1219 50.222 34.1795 50.2115 34.1867C49.9097 34.3971 50.1016 34.6513 50.1478 34.8899C50.1663 34.9844 50.233 35.0855 50.1802 35.1705C50.0814 35.3297 50.1872 35.4122 50.2736 35.5088C50.4666 35.7243 50.7326 35.8802 50.8545 36.1528C51.0827 36.6604 51.0286 36.9216 50.4868 36.9218C50.4692 36.9217 50.4521 36.9308 50.4351 36.9307C50.2681 36.9284 50.2449 37.007 50.2985 37.1491C50.402 37.4231 50.5646 37.6646 50.7042 37.9192C50.8542 38.1927 50.9761 38.4738 50.9614 38.7943C50.94 39.2535 50.8871 39.289 50.4616 39.1386C50.4035 39.118 50.347 39.0928 50.2887 39.0737C50.0635 38.9997 50.025 39.0353 50.0672 39.2761C50.1149 39.5495 50.2832 39.7539 50.4591 39.9523C50.6253 40.1399 50.7499 40.3442 50.7991 40.597C50.8425 40.8204 50.7541 40.9302 50.5469 40.9766C50.3818 41.014 50.2157 41.0262 50.049 41.0042C49.9023 40.9852 49.8586 41.0533 49.8734 41.1857C49.8968 41.398 49.9667 41.5964 50.0409 41.7948C50.1336 42.0414 50.2367 42.285 50.2486 42.5556C50.2545 42.6954 50.2177 42.8314 50.0791 42.8406C49.8105 42.8586 49.8977 42.991 49.9502 43.1335C50.1371 43.6433 50.2964 44.1614 50.3886 44.6999C49.9804 44.2635 49.973 43.6478 49.6979 43.1487C49.5837 43.7997 49.5043 44.4445 49.4539 45.093C49.3476 46.4536 49.2763 47.8191 48.9622 49.1548C48.8684 49.5537 48.9629 49.8027 49.3005 50.0331C49.409 50.1069 49.5276 50.1681 49.6462 50.2246C49.9644 50.3764 50.2911 50.5117 50.4721 50.8477C50.5239 50.9442 50.6353 50.9736 50.7333 51.0168C51.3323 51.2785 51.9778 51.4032 52.5831 51.6443C54.2442 52.3061 55.9656 52.7385 57.7326 52.9906C59.7507 53.2785 61.7835 53.361 63.8193 53.372C64.7888 53.377 65.7564 53.3466 66.7058 53.1173C66.9822 53.0502 67.2532 52.9665 67.5581 52.8082C67.1466 52.7757 66.9062 52.6909 66.8367 52.5536C66.9191 52.5426 66.996 52.5283 67.074 52.5226C67.706 52.4783 68.3384 52.4362 68.971 52.392C69.8771 52.3289 70.7821 52.2576 71.626 51.876C71.7462 51.8219 71.8775 51.7781 71.9736 51.6703C71.9045 51.6217 71.8548 51.6613 71.8062 51.6706C70.664 51.8912 69.5132 52.0323 68.3529 52.1248C67.2003 52.2162 66.0513 51.9691 64.9004 52.1273C64.7535 52.1477 64.606 52.0957 64.4872 51.9854C64.3927 51.8979 64.4076 51.8433 64.5167 51.7925C64.6627 51.7245 64.8139 51.743 64.9566 51.7854C65.347 51.9015 65.7404 51.8779 66.1359 51.838C66.784 51.7723 67.4287 51.6359 68.0808 51.6618C68.8606 51.6925 69.5872 51.4427 70.3343 51.301C70.4232 51.2845 70.5396 51.2735 70.5939 51.1509C70.3597 51.0943 70.1414 51.1271 69.9231 51.1434C69.38 51.1834 68.8387 51.2892 68.2919 51.1806C68.1329 51.1489 67.975 51.1163 67.827 50.9885C68.3862 50.7353 68.9592 50.6437 69.5298 50.5416C70.483 50.3709 70.9454 50.2185 71.1518 50.0041C70.7703 50.0345 70.4094 50.1086 70.049 50.1822C69.4323 50.3083 68.8139 50.375 68.1874 50.2602C68.0957 50.2433 67.9797 50.2554 67.9783 50.1135C67.9761 49.9108 67.8474 49.9213 67.7054 49.945C67.1932 50.0315 66.6806 50.1212 66.1601 50.1341C65.7246 50.145 65.2905 50.1273 64.8622 49.9148C65.1967 49.6685 65.558 49.6425 65.9155 49.617C66.3895 49.5838 66.8652 49.5801 67.3123 49.3795C67.423 49.3299 67.5585 49.2985 67.6784 49.4254C67.3957 49.5391 67.0911 49.5376 66.851 49.7147C68.4908 49.8417 69.9744 49.2996 71.439 48.6747C70.9149 48.7719 70.4008 48.9163 69.8724 48.9959C69.0324 49.1222 68.5743 49.134 68.2832 49.0133C68.807 48.9613 69.2906 48.835 69.7737 48.7044C70.2408 48.5781 70.7071 48.4449 71.1885 48.3828C71.6158 48.3277 72.043 48.311 72.5182 48.4601C71.6442 49.0265 70.6261 49.1156 69.7671 49.5842C70.26 49.6306 70.7416 49.5834 71.2238 49.5619C71.5318 49.5483 71.8405 49.5295 72.1457 49.5902C72.221 49.605 72.3183 49.6066 72.3382 49.6991C72.356 49.7823 72.2681 49.8155 72.2126 49.8506C72.079 49.9345 71.9428 50.0181 71.7997 50.0838C71.3492 50.2905 70.8618 50.3833 70.3916 50.5299C70.1699 50.599 69.94 50.6517 69.7058 50.8114C69.8816 50.867 70.0172 50.8649 70.1547 50.8598C70.7387 50.8377 71.2994 50.6662 71.8757 50.5952C72.1706 50.5587 72.4628 50.54 72.8037 50.6504C72.0049 51.1362 71.1003 51.1958 70.2574 51.5743L70.2575 51.5732ZM55.8454 28.4517C55.9188 28.4695 55.9491 28.4829 55.9795 28.483C58.2244 28.509 60.4699 28.5308 62.7149 28.56C64.5638 28.5838 66.4129 28.6182 68.2602 28.7056C68.3386 28.7091 68.4875 28.6479 68.4865 28.7958C68.486 28.9098 68.392 28.9971 68.265 29.0286C68.1577 29.0551 68.052 29.0445 67.9521 29.0127C67.7133 28.9375 67.4707 28.922 67.2219 28.9179C66.5526 28.9064 65.8838 28.9039 65.2151 28.9298C65.145 28.9321 65.0462 28.9767 65.0087 28.8719C64.9513 28.7097 64.8185 28.7409 64.7002 28.7447C63.1857 28.7949 61.6716 28.7701 60.1576 28.7436C59.2168 28.7268 58.2758 28.7189 57.3217 28.7063C57.3754 28.826 57.4723 28.8264 57.5512 28.8555C58.4259 29.1784 59.3338 29.2545 60.2562 29.2147C61.3039 29.1693 62.3389 28.9923 63.3839 28.9184C63.6296 28.9007 63.8765 28.8854 64.1225 28.8864C64.3569 28.887 64.5959 28.8542 64.9007 28.9388C63.4355 29.0165 62.0479 29.1167 60.6834 29.4233C61.3268 29.552 61.9742 29.572 62.6227 29.5628C63.6261 29.5481 64.6308 29.4808 65.6308 29.6074C67.6069 29.8575 69.5838 30.0705 71.581 30.0286C72.8497 30.0019 74.1159 29.9642 75.3667 29.7238C75.7516 29.6496 76.1166 29.5212 76.4144 29.2543C76.7205 28.98 76.7252 28.6455 76.4319 28.3594C76.2795 28.2108 76.0978 28.1006 75.9083 28.006C74.8244 27.465 73.6926 27.0422 72.5137 26.7787C69.9242 26.1996 67.3033 25.803 64.6672 25.502C60.5389 25.0302 56.4008 24.8204 52.2479 25.0334C51.4468 25.0745 50.6799 25.2756 50.025 25.7735C49.7152 26.009 49.683 26.3001 49.9436 26.588C50.3379 27.0243 50.8728 27.1687 51.4305 27.2546C50.9879 26.9141 50.3028 26.8547 50.166 26.1317C50.6565 26.3834 50.956 26.3954 51.227 26.1764C51.0155 26.1509 50.8121 26.2175 50.6139 26.1628C50.5639 26.1491 50.4991 26.1431 50.4891 26.0827C50.478 26.0185 50.5424 25.9978 50.5864 25.9745C50.8085 25.8559 51.048 25.8662 51.283 25.908C51.7724 25.9944 52.2644 25.9928 52.7581 25.977C54.2019 25.9296 55.6342 25.7199 57.0779 25.6774C57.3416 25.6694 57.6061 25.6755 57.8702 25.6852C58.1227 25.6945 58.3745 25.717 58.6264 25.7343C57.6036 25.9335 56.5755 25.9835 55.5478 26.0303C54.2988 26.0872 53.0501 26.1463 51.8215 26.4055C51.7055 26.4298 51.576 26.4258 51.4322 26.5362C51.9158 26.5201 52.3454 26.5021 52.7755 26.4917C54.6598 26.4453 56.5436 26.4835 58.427 26.5254C59.2456 26.544 60.0641 26.5513 60.8825 26.58C61.1483 26.5894 61.4125 26.6491 61.6659 26.8413C60.9913 26.9911 60.3416 27.0102 59.692 27.0331C58.7512 27.0663 57.8071 27.0368 56.8746 27.2043C56.7553 27.2255 56.6266 27.2318 56.4712 27.3497C57.9125 27.513 59.2898 27.2831 60.6679 27.3564C62.0496 27.4302 63.4329 27.4749 64.8839 27.5787C64.5099 27.812 64.034 27.8513 63.7158 27.7336C63.6109 27.6949 63.491 27.691 63.3773 27.6842C61.9545 27.6026 60.5331 27.5345 59.106 27.6223C57.9195 27.695 56.7298 27.5644 55.5407 27.6362C54.8949 27.6756 54.2485 27.6855 53.5839 27.4748C54.275 27.3042 54.9473 27.2576 55.6143 27.1857C56.2969 27.1121 56.983 27.0751 57.6677 27.0231C58.3315 26.9721 58.9957 26.9223 59.66 26.8719L59.6556 26.8048C56.8115 26.646 53.9671 26.6716 51.1188 26.8176C52.8366 27.8813 54.7467 28.1689 56.7149 28.2263C56.4342 28.2934 56.1401 28.2815 55.8444 28.4511L55.8454 28.4517ZM79.418 48.9723C79.3025 49.2647 79.1933 49.4806 79.0304 49.6669C78.6591 50.0912 78.1991 50.3984 77.7176 50.6774C76.4929 51.3862 75.1643 51.8651 73.859 52.3918C71.9915 53.1446 70.0432 53.6752 68.2207 54.5626C66.5406 55.38 64.8743 56.2156 63.2576 57.1517C61.3071 58.2814 59.3764 59.4445 57.3939 60.5201C55.6206 61.4818 53.7877 62.1964 51.7398 62.2265C51.6544 62.2281 51.565 62.2312 51.4913 62.296C51.2678 62.4939 50.9914 62.5439 50.7071 62.5636C50.3825 62.5863 50.0573 62.6009 49.733 62.6289C49.5531 62.6447 49.3734 62.6759 49.2279 62.7951C49.2545 62.8762 49.3162 62.868 49.363 62.8813C50.4489 63.1987 51.5569 63.3016 52.6832 63.2122C54.6328 63.0574 56.4336 62.4453 58.1038 61.435C58.1695 61.3952 58.2382 61.3144 58.3135 61.3467C58.408 61.3879 58.3425 61.4852 58.3393 61.5577C58.3369 61.6192 58.3145 61.6873 58.3812 61.7244C58.4485 61.7616 58.5002 61.7063 58.5433 61.6681C58.6954 61.5348 58.8466 61.3998 58.9906 61.258C59.21 61.0421 59.4127 60.807 59.6607 60.6219C59.8635 60.4704 60.0704 60.3206 60.3425 60.3132C60.3919 60.6071 60.1717 60.8085 60.0963 61.0867C60.5322 61.0131 60.7744 60.7265 61.0059 60.4311C61.2172 60.1614 61.3888 59.8595 61.6403 59.6215C61.7841 59.4856 61.9332 59.3546 62.1569 59.3172C62.0965 59.8658 61.5576 60.1061 61.3937 60.6012C61.567 60.5915 61.6914 60.5304 61.8108 60.4612C62.1382 60.2727 62.3867 59.9986 62.6036 59.6966C62.9013 59.2822 63.1842 58.8574 63.4866 58.4468C63.626 58.2576 63.796 58.0914 64.054 57.9927C63.879 58.797 63.193 59.2756 62.8659 60.0177C63.2929 59.9184 63.6037 59.73 63.8873 59.4869C64.3059 59.1271 64.6184 58.6788 64.9396 58.2376C65.25 57.8104 65.55 57.3728 65.9685 57.0391C66.1071 56.9286 66.2479 56.8163 66.4567 56.7828C66.3729 57.247 65.9985 57.5729 65.9911 58.035C66.8538 57.0532 67.4206 55.8393 68.5008 54.9451C68.2504 55.9898 67.5321 56.751 67.279 57.723C67.4136 57.7372 67.4848 57.6625 67.5635 57.6127C68.0997 57.2751 68.4485 56.7627 68.811 56.2648C69.1678 55.7736 69.5013 55.2635 69.9443 54.8412C70.1125 54.6812 70.2809 54.5154 70.5356 54.4259C70.4812 55.2965 69.8104 55.9038 69.6343 56.7554C69.8621 56.638 70.0133 56.5073 70.163 56.3758C70.6888 55.9133 71.1057 55.3551 71.5355 54.8081C71.8955 54.3509 72.2674 53.9048 72.7176 53.5314C72.7865 53.4745 72.8483 53.4023 72.972 53.3934C72.8361 54.1999 72.1327 54.6854 71.894 55.4455C71.9566 55.4182 71.9912 55.4098 72.0177 55.3897C72.7538 54.839 73.4399 54.2368 73.9756 53.4793C74.214 53.1417 74.4379 52.7921 74.7346 52.4995C74.8435 52.3922 74.949 52.2771 75.1206 52.2176C75.0863 52.5117 74.9652 52.7469 74.8204 52.9663C74.5979 53.3044 74.3563 53.6294 74.1313 53.9661C74.0074 54.1514 73.9051 54.3506 73.8889 54.6538C74.0709 54.494 74.2096 54.3782 74.3417 54.2552C74.8516 53.779 75.2721 53.2217 75.7371 52.7047C76.0894 52.3126 76.4535 51.9332 76.9466 51.6296C76.67 52.4792 75.9784 53.0786 75.8122 53.932C76.021 53.6988 76.2186 53.4652 76.443 53.2568C76.9206 52.8133 77.4051 52.3781 77.8827 51.9346C78.4375 51.4193 79.0031 50.9111 79.3427 50.2132C79.5259 49.8361 79.5865 49.4468 79.4197 48.972L79.418 48.9723ZM59.7935 57.7984C59.8047 57.7684 59.8206 57.7395 59.8266 57.7083C60.0372 56.6372 60.2493 55.5669 60.4547 54.4952C60.543 54.0338 60.5363 54.0404 60.0634 54.0306C59.8912 54.0271 59.8656 54.0825 59.8684 54.2426C59.874 54.5459 59.8804 54.852 59.7921 55.1563C59.7615 54.8994 59.7308 54.643 59.7001 54.3861C59.615 54.6019 59.572 54.8213 59.5321 55.0417C59.3635 55.9778 59.1722 56.908 58.8459 57.8052C58.7833 57.9769 58.5888 58.1773 58.6685 58.3019C58.7581 58.4415 59.0276 58.3698 59.2136 58.4161C59.4167 58.4661 59.4486 58.3689 59.4444 58.1941C59.4352 57.7876 59.4905 57.3853 59.5806 56.9896C59.6318 56.7643 59.6733 56.5314 59.8293 56.299C59.8173 56.8275 59.6138 57.3028 59.7929 57.7989L59.7935 57.7984ZM61.8879 55.0251C61.9646 55.6746 61.8201 56.2872 62.1115 56.8725C62.2075 56.7615 62.2045 56.6706 62.2251 56.5874C62.387 55.9215 62.3393 55.24 62.3793 54.5647C62.402 54.1888 62.4049 54.1992 62.0497 54.152C61.8662 54.1279 61.8307 54.1986 61.8594 54.3524C61.88 54.4642 61.9063 54.5767 61.8571 54.7224C61.7544 54.522 61.8754 54.3182 61.7076 54.1266C61.3223 55.367 61.1789 56.6287 60.8599 57.8587C61.1891 57.6806 61.5382 57.531 61.7707 57.2751C61.9339 57.0953 61.7959 56.7679 61.8058 56.5065C61.8088 56.4366 61.7979 56.3659 61.7977 56.2956C61.7981 55.8934 61.7801 55.4895 61.8875 55.024L61.8879 55.0251ZM74.5091 47.8911C74.7821 47.9995 74.9911 47.9687 75.1954 47.9155C75.5952 47.8117 75.9911 47.6925 76.3904 47.5881C76.6559 47.5191 76.9277 47.4888 77.2003 47.5448C77.2714 47.5596 77.3818 47.5463 77.397 47.6415C77.4094 47.7165 77.3157 47.7463 77.2597 47.7851C77.0344 47.9417 76.7856 48.0517 76.5278 48.1445C76.1473 48.2816 75.7643 48.4125 75.3895 48.5632C75.1595 48.6558 74.9416 48.7787 74.7252 49.0088C76.1146 48.8816 77.2512 48.1666 78.5557 47.8455C78.1263 47.4895 77.742 47.1595 77.3439 46.8463C77.147 46.6916 76.9083 46.6201 76.6536 46.6206C76.5837 46.6209 76.495 46.6061 76.4809 46.6975C76.4657 46.7931 76.5419 46.8309 76.626 46.8532C76.7626 46.8895 76.9225 46.8552 77.0675 46.9944C76.2873 47.4926 75.3273 47.4121 74.5086 47.8906L74.5091 47.8911ZM61.3729 54.5018C61.3287 54.4041 61.5217 54.2456 61.3713 54.1702C61.2244 54.0969 61.0243 54.0872 60.857 54.1126C60.7489 54.1289 60.7665 54.3026 60.7316 54.4069C60.7179 54.4483 60.7134 54.4925 60.7043 54.5356C60.4423 55.719 60.1803 56.9024 59.9188 58.0858C59.893 58.2025 59.7986 58.3563 59.8841 58.4304C59.9754 58.5096 60.1111 58.3875 60.2162 58.3357C60.3712 58.2593 60.5743 58.2454 60.6161 58.0061C60.8203 56.8373 61.1013 55.685 61.3719 54.5011L61.3729 54.5018ZM51.0264 30.7542C50.9332 30.4953 50.788 30.3487 50.6332 30.2285C50.4613 30.0951 50.3357 29.9328 50.2239 29.7542C50.1725 29.6715 50.1221 29.5805 50.1806 29.4834C50.2405 29.3839 50.3433 29.3968 50.4411 29.4069C50.5248 29.4153 50.6101 29.4697 50.6945 29.4004C50.685 29.2846 50.5959 29.218 50.532 29.1376C50.4069 28.9791 50.2492 28.8479 50.1503 28.6677C50.0827 28.5442 50.0493 28.4457 50.2334 28.3921C50.3086 28.3701 50.4415 28.2919 50.3353 28.2131C50.1407 28.0693 50.0034 27.8731 49.8061 27.6453C49.7622 29.1283 49.8164 30.5261 49.9676 31.9447C50.1666 31.8364 50.3446 31.7682 50.5425 31.7616C50.7384 31.7548 50.9234 31.8254 51.149 31.8617C51.0151 31.6089 50.8155 31.4757 50.6418 31.3186C50.472 31.1646 50.3027 31.0112 50.2269 30.7833C50.1704 30.6137 50.2316 30.5458 50.4003 30.5856C50.5954 30.6314 50.7874 30.689 51.0264 30.7542ZM57.0962 57.3054C57.1359 57.2017 57.1776 57.0988 57.2152 56.9943C57.5258 56.1324 57.7371 55.2426 57.9525 54.3538C58.0566 53.9236 58.0586 53.9244 57.6301 53.8024C57.5792 53.7881 57.5273 53.7768 57.4787 53.7568C57.3298 53.6955 57.2799 53.7537 57.2638 53.903C57.1998 54.5065 57.1115 55.1076 57.0607 55.7123C57.0169 56.2353 57.0031 56.7615 57.0962 57.3054ZM56.6081 59.8616C55.4618 59.7923 54.4228 59.4877 53.3612 59.2873C54.007 59.6598 54.6201 60.0931 55.3619 60.2486C55.8068 60.3417 56.2171 60.2733 56.6082 59.861L56.6081 59.8616ZM76.8285 49.2339C77.0182 49.2929 77.1586 49.2141 77.3011 49.1526C77.527 49.0552 77.7475 48.9454 77.9749 48.8525C78.1311 48.7884 78.2964 48.7575 78.4649 48.8069C78.7059 48.8776 78.7316 48.9698 78.5657 49.1541C78.4666 49.2647 78.3289 49.3391 78.2582 49.4773C78.2328 49.5273 78.2236 49.5837 78.2609 49.6262C78.3097 49.6824 78.3553 49.629 78.3968 49.6044C78.8153 49.3602 78.9944 48.519 78.7197 48.1095C78.6564 48.0153 78.609 47.9859 78.5218 48.082C78.395 48.2222 78.2402 48.3221 78.0483 48.3481C77.4803 48.4255 77.2211 48.9204 76.8275 49.2332L76.8285 49.2339ZM63.2656 56.3157C63.4283 55.6516 63.4887 55.0177 63.5741 54.3881C63.584 54.3131 63.5433 54.2686 63.4719 54.2644C63.2883 54.2536 63.1051 54.245 62.9215 54.2433C62.8295 54.2424 62.836 54.305 62.8547 54.3724C62.975 54.8062 62.9653 55.2573 63.0298 55.6985C63.0596 55.9026 63.0945 56.1083 63.2656 56.3157ZM47.2869 44.0171C47.3666 44.562 48.1179 45.6855 48.562 45.9506C48.7449 45.3252 48.2549 44.6575 47.2869 44.0171ZM50.0772 37.4564C50.0614 37.8108 50.0495 38.1434 50.0313 38.4751C50.0137 38.7984 50.1664 38.9657 50.4946 38.9696C50.6483 38.9713 50.7356 38.8997 50.7636 38.7407C50.8404 38.3071 50.5125 37.6719 50.0777 37.4559L50.0772 37.4564ZM75.9282 52.9945C75.3113 53.7924 74.4828 54.3959 73.8986 55.2219C74.2457 55.1088 74.5679 54.9703 74.8921 54.8362C74.9449 54.8146 74.9903 54.7921 74.9992 54.7341C75.077 54.2292 75.417 53.8717 75.6964 53.479C75.7999 53.3338 75.9174 53.1908 75.9281 52.9951L75.9282 52.9945ZM49.5542 56.8074C50.5492 57.5812 51.6151 58.2152 52.9372 58.4206C52.6838 58.2364 49.8325 56.861 49.5542 56.8074ZM68.3757 57.3263C69.1275 57.1979 69.8877 56.1799 70.0344 55.1589C69.482 55.8807 68.9448 56.5826 68.3757 57.3263ZM76.1627 48.006C75.8791 48.0071 75.6208 48.0877 75.3635 48.1721C75.0623 48.2712 74.7567 48.3591 74.4382 48.3623C74.2878 48.3636 74.2045 48.3947 74.2001 48.5577C74.1985 48.6039 74.2095 48.7118 74.1039 48.632C74.0387 48.5828 73.9942 48.5766 73.9694 48.6641C73.9442 48.7542 73.8832 48.8451 73.9584 48.9381C74.0198 49.0135 74.0847 48.9678 74.1471 48.9373C74.5424 48.7424 74.9638 48.6147 75.3716 48.4517C75.6542 48.3391 75.9341 48.2186 76.1627 48.006ZM62.635 54.3528C62.62 55.1815 62.6813 56.0128 62.42 56.8686C62.7368 56.7422 62.8478 56.5286 62.8946 56.283C63.0227 55.6145 62.8647 54.9804 62.635 54.3528ZM75.9842 46.3251C75.5737 46.2725 75.1977 46.1012 74.7929 46.0669C74.5725 46.0483 74.3927 46.1019 74.3004 46.328C74.248 46.4567 74.2702 46.5176 74.4243 46.5294C74.7319 46.5526 75.0394 46.5566 75.3453 46.5214C75.5664 46.4959 75.7924 46.4742 75.9837 46.3251L75.9842 46.3251ZM75.8885 50.3311C76.655 50.3277 77.6321 49.7796 77.6665 49.3146C77.1071 49.7228 76.348 49.7303 75.8885 50.3311ZM51.3848 60.5981C51.7077 60.7207 51.9329 60.9173 52.167 61.1017C52.2223 61.1454 52.277 61.2061 52.3517 61.1883C52.619 61.1259 52.8855 61.0571 53.1382 60.8938C52.4205 60.6439 51.7329 60.4346 51.3853 60.5982L51.3848 60.5981ZM49.2974 60.8998C49.9088 61.22 50.4921 61.6789 51.2391 61.3044C50.5994 61.1298 49.9882 60.8203 49.2974 60.8998ZM48.5072 54.423C48.3138 54.5756 48.2345 54.4815 48.1961 54.287C48.1811 54.2111 48.1494 54.1368 48.1162 54.066C48.0535 53.9335 47.9718 53.8753 47.8865 54.0457C47.8183 54.1815 47.6459 54.3325 47.7466 54.4688C47.9118 54.693 47.9889 55.0085 48.3073 55.0991C48.3823 55.1207 48.4543 55.1292 48.4672 55.0307C48.4932 54.8363 48.6043 54.6473 48.5067 54.4224L48.5072 54.423ZM50.1454 35.6733C50.073 35.9823 50.1078 36.2525 50.1204 36.5215C50.1248 36.6137 50.1007 36.73 50.2343 36.7564C50.4073 36.7909 50.5917 36.8332 50.7363 36.6958C50.827 36.6091 50.8108 36.4878 50.7617 36.374C50.6354 36.0816 50.3938 35.8973 50.1454 35.6733ZM67.4286 56.6965C67.0187 57.2758 66.4446 57.7413 66.2363 58.4546C66.93 58.0718 67.2128 57.4062 67.4286 56.6965ZM47.088 45.4742C47.4815 46.0191 47.8343 46.5189 48.2783 46.9459C48.3182 46.9845 48.3937 47.0712 48.4206 47.0096C48.4723 46.8903 48.5586 46.712 48.426 46.6224C48.0807 46.3894 47.874 46.0369 47.5986 45.7445C47.4792 45.6176 47.3501 45.4997 47.088 45.4742ZM49.9849 39.8092C49.9663 39.8724 49.9541 39.8969 49.952 39.9223C49.9382 40.0878 49.9239 40.2528 49.9143 40.4183C49.893 40.7784 50.0026 40.8774 50.367 40.856C50.5296 40.8466 50.5796 40.7842 50.5517 40.624C50.4909 40.2728 50.272 40.0386 49.9849 39.8086L49.9849 39.8092ZM52.8114 60.1911C53.2177 60.3796 53.552 60.6069 53.945 60.7138C54.1506 60.7699 54.3452 60.7555 54.5202 60.6219C54.5544 60.5958 54.5964 60.567 54.5846 60.5165C54.5722 60.4622 54.5173 60.4713 54.4775 60.4615C54.1113 60.3697 53.7458 60.2764 53.3787 60.1877C53.2086 60.1467 53.0363 60.1266 52.8114 60.1911ZM72.1777 55.9276C72.3853 55.9286 72.5232 55.8314 72.6573 55.7353C72.7756 55.65 72.9618 55.6307 73.0045 55.473C73.0834 55.1803 73.2676 54.9605 73.4446 54.7302C73.5331 54.615 73.6484 54.4985 73.6144 54.2646C73.112 54.8456 72.6446 55.3868 72.1771 55.928L72.1777 55.9276ZM49.5899 50.6906C49.6062 51.3458 49.1874 51.9363 49.3117 52.6274C49.703 52.0601 49.8617 51.0209 49.5899 50.6906ZM48.8496 43.7987C48.8873 43.4987 48.925 43.1987 48.9626 42.8987C48.9747 42.8022 48.9242 42.7714 48.8381 42.7872C48.6561 42.8197 48.4777 42.8655 48.323 42.9729C48.2495 43.0239 48.2026 43.0793 48.3062 43.1541C48.5334 43.3174 48.6561 43.5624 48.8496 43.7992L48.8496 43.7987ZM49.0846 54.1226C48.9379 54.5357 48.7893 54.9049 48.6792 55.2853C48.6291 55.4596 48.8308 55.47 48.9372 55.5137C49.0658 55.5666 49.0397 55.4392 49.0524 55.3721C49.0986 55.1318 49.1468 54.8917 49.183 54.6501C49.2077 54.4832 49.2283 54.3106 49.0845 54.1231L49.0846 54.1226ZM76.8904 53.525C77.4833 53.1982 78.0854 52.879 78.3474 52.1922C77.8337 52.605 77.3275 53.0263 76.8904 53.525ZM64.6229 59.2415C65.2048 58.9219 65.5032 58.3909 65.7036 57.7874C65.3103 58.2468 64.8733 58.6725 64.6229 59.2415ZM48.806 61.4827C48.4284 61.3165 48.0442 61.2071 47.6404 61.1681C47.5294 61.1574 47.4793 61.2001 47.4646 61.3085C47.4502 61.4191 47.488 61.4702 47.6017 61.4808C48.0031 61.5173 48.4036 61.5521 48.806 61.4833L48.806 61.4827ZM70.4889 56.5126C70.9919 56.5209 71.3602 56.1159 71.499 55.4258C71.1708 55.8129 70.7759 56.0857 70.4889 56.5126ZM63.5716 56.076C63.9772 55.8877 64.088 55.1451 63.8105 54.5163C63.7417 55.0686 63.7312 55.5686 63.5716 56.076ZM57.8783 29.441C57.1879 29.186 56.5024 28.9135 55.7487 28.9042C56.4414 29.1493 57.131 29.4058 57.8783 29.441ZM64.2431 55.5013C64.3397 55.1176 64.3299 54.7328 64.3076 54.3464C64.3015 54.2417 64.2448 54.2101 64.155 54.2079C64.0536 54.2053 64.0464 54.2838 64.0425 54.3531C64.021 54.7494 64.0658 55.1354 64.2431 55.5013ZM44.6821 49.5195C45.2632 50.0086 45.688 50.6692 46.3666 51.0442C45.7927 50.5481 45.4263 49.8218 44.6821 49.5195ZM64.8664 55.1912C64.8955 55.1884 64.9247 55.1857 64.9538 55.1829C64.9886 54.9055 65.0249 54.6287 65.0571 54.351C65.0643 54.2895 65.1193 54.1867 65.0099 54.1836C64.9064 54.1807 64.7243 54.1504 64.7123 54.2752C64.6831 54.589 64.6551 54.9185 64.867 55.1912L64.8664 55.1912ZM75.6257 49.5597C76.1298 49.5202 76.3495 49.1285 76.6975 48.8685C76.1548 48.8798 75.8063 49.1008 75.6257 49.5597ZM48.5358 53.8342C48.7419 53.2788 49.025 52.7465 49.0007 52.1297C48.9127 52.4234 48.7889 52.7008 48.6625 52.978C48.5391 53.2481 48.3847 53.5185 48.5353 53.8341L48.5358 53.8342ZM53.1442 52.5559C52.7308 52.178 52.1757 52.1009 51.7062 51.8475C52.023 52.4136 52.6513 52.3529 53.1442 52.5559ZM48.7025 44.6529C48.7548 44.1597 48.4512 43.688 48.0354 43.6006C48.2487 43.9604 48.4303 44.3129 48.7025 44.6529ZM74.8858 47.4914C74.6531 47.474 74.4246 47.4437 74.2115 47.5368C74.1269 47.5741 74.0238 47.6443 74.0609 47.7518C74.0974 47.856 74.209 47.8114 74.2913 47.7967C74.518 47.7564 74.7011 47.6265 74.8858 47.4914ZM65.6632 54.8788C65.7266 54.5905 65.7783 54.3562 65.8362 54.0945C65.6928 54.1383 65.5186 54.1041 65.4799 54.2378C65.4177 54.4532 65.5023 54.6583 65.6632 54.8788ZM49.7964 41.8073C49.7662 41.9586 49.7373 42.0998 49.71 42.2408C49.7037 42.2746 49.7009 42.3094 49.7008 42.3441C49.7005 42.4186 49.7218 42.4868 49.8027 42.5044C49.8816 42.5212 49.9316 42.4705 49.9694 42.4071C50.0739 42.2321 50.0059 41.9721 49.7964 41.8073ZM74.9512 49.3472C74.5526 49.3143 74.3299 49.4802 74.3361 49.8129C74.5426 49.6577 74.7708 49.5707 74.9512 49.3472ZM49.0319 50.4885C48.9638 50.6621 49.0867 50.6839 49.1992 50.7172C49.3261 50.755 49.3257 50.6644 49.3301 50.5871C49.3374 50.457 49.3528 50.2959 49.1873 50.2693C49.0525 50.2481 49.0584 50.4007 49.032 50.4879L49.0319 50.4885ZM66.5292 54.2486C66.5201 54.1808 66.5817 54.0591 66.4215 54.0837C66.3286 54.0982 66.1802 54.0449 66.1645 54.1873C66.1495 54.324 66.2539 54.4085 66.3919 54.43C66.5381 54.4532 66.5028 54.3315 66.5292 54.2486ZM59.861 60.8345C59.6752 61.003 59.5241 61.1076 59.4453 61.3199C59.7196 61.2781 59.8522 61.1552 59.861 60.8345ZM74.3797 46.9357C74.2528 46.932 74.1364 46.9509 74.1065 47.1044C74.0959 47.159 74.1102 47.2103 74.1857 47.199C74.3171 47.1793 74.4524 47.1371 74.5091 47.0164C74.544 46.9419 74.4333 46.9541 74.3797 46.9351L74.3797 46.9357ZM70.061 52.9822C70.3692 52.8653 70.6769 52.7478 70.9852 52.631C70.6423 52.6631 70.3178 52.7401 70.061 52.9822ZM66.0314 54.8781C66.1506 54.6672 66.2044 54.5019 66.0525 54.3368C66.0565 54.5041 65.9171 54.6645 66.0314 54.8781ZM75.5948 50.7482C75.4051 50.8416 75.2756 50.902 75.1494 50.9693C75.1088 50.9908 75.0996 51.0392 75.1154 51.0833C75.1303 51.1251 75.1704 51.1286 75.1987 51.1071C75.3217 51.0144 75.5138 51.0076 75.5954 50.7477L75.5948 50.7482ZM58.2055 29.5343C58.4067 29.591 58.609 29.651 58.8211 29.6041C58.6187 29.5568 58.4263 29.4341 58.2055 29.5343ZM66.9353 54.3448C66.9377 54.245 66.9881 54.1154 66.8619 54.0719C66.7813 54.0442 66.7695 54.1551 66.7541 54.2182C66.7308 54.3144 66.7239 54.4206 66.8389 54.459C66.9289 54.4894 66.9191 54.3976 66.9354 54.3443L66.9353 54.3448ZM47.7384 53.3873C47.5607 53.6362 47.556 53.6569 47.6467 53.834C47.7113 53.6966 47.8196 53.585 47.7384 53.3873Z" fill="#214434"/>
<path d="M67.6332 33.1465C67.9319 33.0375 68.2001 32.866 68.4764 32.8506C70.2656 32.7513 72.0007 32.3995 73.6918 31.8169C73.7329 31.8029 73.7725 31.7807 73.8303 31.8295C72.1575 32.5673 70.3625 32.7384 68.6023 33.0742C69.1743 33.22 69.7559 33.2376 70.3365 33.2135C70.9341 33.1889 71.5309 33.1333 72.1277 33.0899C72.7142 33.0474 73.2997 32.9962 73.8908 33.0198C71.8021 33.6969 69.5773 33.5956 67.4612 34.1393C68.4657 34.4044 69.4855 34.4541 70.5089 34.4717C71.5386 34.489 72.5644 34.4366 73.5868 34.2917C73.0341 34.527 72.4493 34.6188 71.8587 34.681C70.8082 34.7911 69.748 34.7742 68.7002 34.9218C68.2544 34.9847 67.8179 35.0833 67.3878 35.2163C67.1794 35.2808 67.197 35.3863 67.3039 35.5239C67.3828 35.6254 67.4948 35.6752 67.6143 35.7125C68.0397 35.8458 68.4762 35.8702 68.9191 35.8726C70.125 35.879 71.3313 35.9419 72.5343 35.8015C72.9516 35.7532 73.3622 35.6699 73.7757 35.5881C73.5321 35.7674 73.246 35.8397 72.965 35.9184C71.6836 36.276 70.3654 36.4685 69.0742 36.7812C68.7429 36.8611 68.4075 36.9314 68.0589 37.1066C68.2433 37.2379 68.4279 37.2781 68.6055 37.327C69.624 37.6083 70.6486 37.5057 71.6727 37.3641C72.2393 37.286 72.8042 37.1912 73.3755 37.1553C73.4684 37.1494 73.5616 37.1499 73.6584 37.1727C72.19 37.7124 70.6587 38.0194 69.1621 38.4619C70.5322 38.8325 71.9214 38.448 73.3258 38.579C73.1956 38.8439 72.9703 38.911 72.7421 38.9506C72.1186 39.0583 71.4937 39.1599 70.867 39.2507C69.9777 39.3793 69.0909 39.5174 68.2337 39.7976C68.1176 39.8353 68.0039 39.8796 67.8545 39.9328C67.9956 40.0607 68.139 40.0809 68.2789 40.108C69.0964 40.2671 69.9111 40.1562 70.7253 40.0741C71.2595 40.0202 71.7918 39.9512 72.3297 39.9441C72.4957 39.942 72.6629 39.9342 72.8581 39.9832C72.7309 40.1015 72.59 40.1414 72.4562 40.1928C71.5497 40.5436 70.5895 40.6979 69.6587 40.9615C69.1091 41.1168 68.5667 41.2912 68.0518 41.6202C68.2548 41.739 68.453 41.7558 68.6467 41.7791C69.2072 41.8468 69.7511 41.7365 70.2935 41.6128C70.8847 41.4782 71.471 41.3024 72.0895 41.3662C72.1468 41.3723 72.2043 41.3806 72.337 41.3973C72.0218 41.5788 71.7536 41.6821 71.48 41.7607C70.7526 41.9704 70.0202 42.1603 69.2932 42.3711C68.742 42.531 68.2092 42.7396 67.7374 43.0773C67.6864 43.114 67.5882 43.1369 67.6175 43.2258C67.6388 43.2897 67.723 43.2769 67.7802 43.2878C68.3965 43.4077 69.008 43.3358 69.6174 43.2306C70.12 43.144 70.62 43.0315 71.1348 43.0514C71.2191 43.0545 71.3095 43.0301 71.4052 43.1087C71.125 43.3671 70.798 43.5317 70.4533 43.6509C69.8546 43.8582 69.2462 44.0365 68.6438 44.2342C68.1921 44.3826 67.7562 44.566 67.3397 44.9176C67.6512 45.0078 67.9235 45.0287 68.1974 45.0279C68.7942 45.0266 69.3633 44.8647 69.9333 44.7119C70.3259 44.6067 70.7222 44.5259 71.131 44.5373C71.2696 44.5408 71.411 44.5394 71.5831 44.6281C70.424 45.4506 69.0321 45.6531 67.7616 46.2459C67.9513 46.3608 68.1236 46.3628 68.2924 46.3722C68.9495 46.4089 69.5882 46.2605 70.2346 46.1828C70.6468 46.1333 71.0579 46.1135 71.4885 46.1633C71.4527 46.3038 71.3331 46.3356 71.2421 46.386C70.7748 46.6459 70.2594 46.7666 69.7446 46.8864C69.1876 47.0157 68.6238 47.1234 68.1029 47.3729C68.0195 47.4131 67.9172 47.4301 67.8441 47.5626C69.5131 47.3773 71.1034 46.9349 72.7537 46.6306C72.584 47.1767 72.2296 47.5216 71.7699 47.7713C71.1056 48.1317 70.3709 48.242 69.6357 48.3271C68.6561 48.4407 67.6791 48.5637 66.7105 48.7506C66.4233 48.8062 66.1321 48.8085 65.8432 48.7547C65.7958 48.7461 65.7274 48.7482 65.7244 48.678C65.7222 48.6196 65.7719 48.5843 65.8194 48.5626C65.8668 48.5414 65.9196 48.5192 65.9701 48.5202C66.9001 48.5432 67.7971 48.2812 68.7157 48.2037C69.6192 48.1274 70.5173 47.9929 71.3754 47.6755C71.771 47.5291 72.1427 47.3392 72.448 46.9955C72.1763 47.0291 71.9003 47.0418 71.6342 47.0995C70.7831 47.2841 69.9378 47.4951 69.0865 47.6775C68.4892 47.8055 67.8829 47.8392 67.2751 47.7416C67.1638 47.7239 67.0544 47.6958 66.8748 47.6583C67.8811 46.9668 69.0477 46.9673 70.087 46.5863C69.7001 46.4897 69.3202 46.5619 68.9407 46.5979C68.4393 46.6453 67.9405 46.6802 67.4456 46.544C67.2051 46.4782 67.178 46.3927 67.347 46.2088C67.4216 46.1281 67.5164 46.0729 67.6182 46.0521C68.4266 45.8845 69.1473 45.4737 69.9257 45.2229C70.1227 45.1598 70.3214 45.1011 70.5918 45.0178C70.3376 44.9465 70.162 44.9958 69.9909 45.0218C69.4 45.1117 68.8185 45.2662 68.2171 45.2866C67.7902 45.3007 67.375 45.247 66.9751 45.0844C66.8043 45.015 66.805 44.9501 66.9362 44.8339C67.219 44.5844 67.5513 44.4284 67.897 44.2928C68.6356 44.0025 69.3916 43.7686 70.1663 43.5947C70.2244 43.5817 70.2888 43.5818 70.3511 43.5055C69.9675 43.468 69.6067 43.5239 69.2455 43.5489C68.6302 43.5916 68.014 43.6533 67.4129 43.451C67.3005 43.413 67.1308 43.4066 67.1122 43.2785C67.0975 43.1797 67.2352 43.0968 67.3198 43.0217C67.6872 42.6959 68.1415 42.5569 68.602 42.4282C68.8786 42.3511 69.1659 42.3072 69.4537 42.1787C69.2453 42.0609 69.0416 42.0748 68.842 42.0609C68.5093 42.0378 68.1694 42.0505 67.8554 41.912C67.5974 41.7982 67.586 41.711 67.7918 41.5141C68.1793 41.144 68.6759 41.0198 69.1768 40.909C69.6409 40.8064 70.114 40.7464 70.5695 40.6065C70.6477 40.5822 70.7459 40.5892 70.8199 40.4578C70.4121 40.4557 70.0308 40.4504 69.6496 40.4527C69.0317 40.4561 68.4156 40.4406 67.8128 40.2898C67.6641 40.2525 67.4239 40.2303 67.4081 40.1021C67.3879 39.9403 67.6153 39.8686 67.7566 39.791C68.2768 39.5052 68.8524 39.4187 69.4298 39.3425C69.9965 39.2671 70.5684 39.2233 71.1274 39.0947C71.2278 39.0716 71.335 39.0659 71.4397 38.9752C71.1803 38.8595 70.9195 38.8705 70.6638 38.8703C70.2681 38.8697 69.8715 38.8924 69.4759 38.8864C69.1919 38.8822 68.9197 38.8145 68.6705 38.6644C68.5046 38.5642 68.5297 38.5002 68.684 38.4173C68.9833 38.2562 69.306 38.1768 69.6364 38.117C70.0328 38.0448 70.4359 38.0037 70.8267 37.8359C70.6527 37.8296 70.4783 37.8268 70.3049 37.8163C69.5922 37.7732 68.8799 37.7221 68.1987 37.4827C68.0186 37.4196 67.7829 37.366 67.7836 37.1354C67.7841 36.9107 68.0166 36.845 68.1932 36.7756C68.6963 36.5787 69.23 36.5029 69.7563 36.3974C69.8651 36.3754 69.9824 36.3784 70.0951 36.2918C69.7917 36.1659 69.4856 36.1605 69.1829 36.1353C68.692 36.0944 68.1966 36.0813 67.7223 35.9259C67.4839 35.8475 67.2773 35.7235 67.1203 35.5179C67.0161 35.3807 67.0388 35.2802 67.1722 35.1893C67.4426 35.0048 67.7525 34.9419 68.069 34.9033C68.4164 34.8612 68.7636 34.82 69.1677 34.7711C68.9864 34.6152 68.8181 34.6143 68.6614 34.5941C68.2944 34.547 67.9256 34.5183 67.56 34.4639C67.3712 34.4359 67.1071 34.3878 67.0927 34.1969C67.0819 34.0496 67.3561 34.0041 67.5169 33.9502C68.193 33.7245 68.9003 33.7093 69.6024 33.6632C69.9193 33.6423 70.2412 33.6501 70.6255 33.5508C70.1365 33.3845 69.7081 33.4106 69.2819 33.4232C68.8943 33.4348 68.5066 33.45 68.1234 33.3705C67.9604 33.3367 67.7997 33.2969 67.6315 33.1468L67.6332 33.1465Z" fill="#214434"/>
<path d="M74.4499 31.4599C74.2547 31.6358 74.0555 31.712 73.7755 31.7061C72.8712 31.6864 71.9664 31.7263 71.0615 31.7331C70.3597 31.7383 69.6582 31.7286 68.9565 31.6996C70.7799 31.4383 72.6236 31.6729 74.4504 31.4605L74.4499 31.4599Z" fill="#214434"/>
<path d="M67.5793 51.0935C66.9444 51.407 66.3449 51.1831 65.7418 51.0217C66.3601 50.9469 66.9751 50.9671 67.5793 51.0935Z" fill="#214434"/>
<path d="M50.7188 34.6969C50.9479 34.8152 50.969 34.991 50.9696 35.1733C50.9697 35.2361 50.9441 35.3043 50.8647 35.2959C50.685 35.2761 50.4871 35.2864 50.3613 35.0793C50.5491 35.0262 50.6777 35.2751 50.799 35.1449C50.903 35.0333 50.7573 34.8744 50.7188 34.6969Z" fill="#214434"/>
<path d="M61.0499 28.0228C60.3907 28.0925 59.7343 28.1268 59.0759 28.1091C59.7315 28.0007 60.391 27.9796 61.0499 28.0228Z" fill="#214434"/>
</g>
<path d="M41.1286 77.2163C39.5105 77.0019 38.1702 77.4163 37.7576 78.4593C37.3827 79.435 37.8923 80.1669 38.7438 80.2798C39.4819 80.3776 40.0796 80.0091 40.3298 79.3202C40.0317 79.2806 39.7458 79.0405 39.9507 78.4756C40.0829 78.132 40.4857 77.9255 41.0251 77.997C41.8057 78.1004 42.1487 78.7814 41.7342 79.8385C41.3215 80.8814 40.5481 81.4866 39.1571 81.3022L38.4901 81.2138L38.2058 81.9416L38.8729 82.03C40.42 82.2351 40.7612 83.1469 40.1767 84.6147C39.782 85.6311 39.1905 86.607 37.9983 86.449C37.246 86.3493 36.6306 85.7622 36.9848 84.9426C37.1746 84.4912 37.6466 84.3082 38.0659 84.5227C38.1339 84.445 38.2256 84.2983 38.2728 84.1601C38.4994 83.5403 38.0003 82.8386 37.1061 82.7201C36.1268 82.5903 35.3542 83.08 35.0463 83.8769C34.3258 85.7167 35.9059 86.9804 38.2052 87.2852C40.178 87.5467 41.7367 86.9012 42.4138 85.1712C42.9803 83.7299 42.4061 82.6139 40.9155 81.983C42.576 81.9865 43.463 81.3964 43.8577 80.38C44.4696 78.8146 43.3569 77.5117 41.1286 77.2163ZM52.3714 78.88L50.498 78.6317L50.3025 79.1257L52.3553 81.2898L52.8546 81.0093L52.3714 78.88ZM53.7163 85.7307C54.2102 84.5108 54.6427 83.4272 55.2662 82.21L54.585 82.1197C54.1395 82.3206 53.6667 82.619 53.1665 83.0149C52.9227 82.1304 52.2563 81.7099 51.3905 81.5952C49.446 81.3374 48.0306 82.5362 47.3233 84.2767C46.3884 86.5358 46.9868 88.4493 48.7893 88.6882C49.8396 88.8275 50.5404 88.4438 51.0953 87.853C51.0363 88.625 51.4718 89.0438 52.1531 89.1341C52.6641 89.2019 53.1266 89.0899 53.5239 88.9259L53.7014 88.4584C52.9208 88.3549 52.8353 87.9103 53.7163 85.7307ZM51.7558 85.4853C51.0665 87.1992 50.3877 87.9614 49.7065 87.8711C48.8265 87.7544 48.7528 86.6759 49.4913 84.8096C50.1391 83.1913 50.8357 82.4026 51.5454 82.4967C52.4112 82.6114 52.4688 83.7023 51.7558 85.4853ZM64.0294 82.3896C64.7816 82.4893 65.2359 82.7662 66.0875 82.879C67.1378 83.0183 68.195 82.2341 68.0832 80.7895C67.8458 80.9457 67.5327 81.0198 67.1353 80.9671C66.5676 80.8918 65.9116 80.5016 64.9891 80.3793C64.1517 80.2683 63.4357 80.5489 62.9564 81.0053C63.0545 80.7006 63.1347 80.4223 63.1715 80.2539L62.4543 80.2166C62.1025 81.672 60.8875 83.8651 59.8854 84.8876L60.3314 85.3367C61.0309 84.6351 61.7006 84.3772 62.538 84.4882C64.0567 84.6896 64.4899 85.8879 63.9035 87.37C63.3984 88.6751 62.5826 89.7079 61.433 89.5555C60.6098 89.4464 60.2611 88.808 60.5255 88.1209C60.7248 87.5985 61.2583 87.496 61.6425 87.648C62.2229 86.9739 61.7009 86.0093 60.679 85.8738C59.6571 85.7383 58.9271 86.2337 58.6211 87.0164C57.9459 88.7322 59.5109 90.1095 61.6399 90.3917C63.6269 90.6551 65.4238 89.7379 66.1226 87.953C67.167 85.3041 65.5935 83.8823 63.6916 83.6302C62.84 83.5173 62.1003 83.6503 61.4978 83.946C61.6755 83.6951 61.8248 83.4405 61.9741 83.1859C62.3284 82.5829 62.8513 82.2334 64.0294 82.3896ZM30.1884 89.8886C29.3935 89.7832 28.7023 90.3126 28.6026 91.0648C28.518 91.7035 28.9422 92.2075 29.6519 92.3016C30.4183 92.4032 31.1464 91.922 31.2499 91.1414C31.3365 90.4885 30.9264 89.9864 30.1884 89.8886ZM24.0813 102.511C25.5148 102.701 27.1091 101.569 28.3235 98.5091C29.0204 96.7384 30.2337 93.5774 30.4415 93.0995L27.319 92.6856L27.0943 93.2912C27.9459 93.4041 27.9127 94.5263 25.8824 99.6009C25.1477 101.439 24.8707 101.676 24.5726 101.637C24.1752 101.584 24.3829 100.89 24.9162 100.57C24.8555 100.375 24.5677 100.149 24.1561 100.094C23.489 100.006 22.9179 100.392 22.7205 100.9C22.4344 101.642 22.9601 102.362 24.0813 102.511ZM35.0326 93.5492C33.0598 93.2877 31.3812 94.2928 30.6446 96.1449C29.6852 98.5885 30.5438 100.392 32.8856 100.703C34.8301 100.96 36.5248 99.9429 37.2613 98.0908C38.2207 95.6472 37.3603 93.8578 35.0326 93.5492ZM33.0014 99.938C32.0789 99.8157 31.9873 98.7637 32.8088 96.7062C33.4963 95.0065 34.1788 94.2159 34.9168 94.3138C35.8394 94.4361 35.9367 95.4455 35.1095 97.5455C34.4504 99.249 33.7111 100.032 33.0014 99.938ZM45.1067 98.5964C45.5864 97.3746 46.0746 96.1972 46.5772 95.2384L43.4547 94.8245L43.23 95.4302C44.0816 95.5431 43.9044 96.4439 43.1877 98.2553C42.4058 100.231 41.6758 100.727 40.9519 100.631C40.2565 100.539 40.152 100.019 40.5665 98.9622C41.3994 96.8195 41.8697 95.6687 42.3902 94.6834L39.3245 94.277L39.0998 94.8827C39.9514 94.9956 39.6851 95.6969 38.4745 98.7282C37.6747 100.731 38.5201 101.435 39.8401 101.61C40.8194 101.74 41.7577 101.416 42.4865 100.603C42.3358 101.522 42.691 102.002 43.4716 102.106C43.9826 102.174 44.4451 102.062 44.8424 101.898L45.018 101.444C44.1806 101.333 44.2379 100.792 45.1067 98.5964ZM53.5236 98.2679C53.9542 97.1984 53.3222 95.9737 51.2926 95.7046C48.8372 95.3792 47.4002 96.8496 46.8355 98.2767C45.8563 100.761 46.9315 102.564 49.3018 102.879C51.0901 103.116 52.0536 102.276 52.9154 101.004L52.2472 100.597C51.5678 101.691 50.8112 102.169 49.9029 102.048C48.81 101.904 48.4167 101.057 48.7543 99.5998C51.2826 99.9205 52.9882 99.5834 53.5236 98.2679ZM51.1201 96.4617C51.8439 96.5576 51.8899 97.3003 51.6944 97.7943C51.3271 98.7133 50.3746 99.0347 48.9657 98.8768C49.4415 97.4668 50.1407 96.3319 51.1201 96.4617ZM60.8522 100.684C61.3319 99.4618 61.8201 98.2845 62.3227 97.3257L59.2002 96.9118L58.9755 97.5174C59.8271 97.6303 59.6499 98.5312 58.9332 100.343C58.1513 102.319 57.4213 102.814 56.6974 102.718C56.002 102.626 55.8975 102.107 56.312 101.049C57.1449 98.9068 57.6152 97.7559 58.1357 96.7706L55.07 96.3643L54.8453 96.9699C55.6969 97.0828 55.4306 97.7841 54.22 100.815C53.4202 102.818 54.2656 103.522 55.5855 103.697C56.5649 103.827 57.5032 103.504 58.232 102.69C58.0813 103.609 58.4365 104.09 59.2171 104.193C59.7281 104.261 60.1906 104.149 60.5879 103.985L60.7635 103.531C59.9261 103.42 59.9834 102.879 60.8522 100.684ZM68.2729 97.9556C67.62 97.869 66.7452 98.2585 66.075 99.0651L66.5349 97.884L63.5543 97.4889L63.3296 98.0946C64.1812 98.2075 63.9718 99.133 63.2334 100.999C62.7121 102.317 62.1558 103.572 61.7486 104.355L64.0337 104.658C64.2715 103.737 64.6415 102.688 65.1826 101.33C65.9428 99.4087 66.811 98.9605 67.2084 99.0132C67.5064 99.0527 67.5559 99.3337 67.4671 99.5674C67.3604 99.8277 67.1174 100.027 66.7986 100.143C66.7176 100.537 67.0074 100.965 67.5609 101.039C68.1996 101.123 68.9628 100.704 69.2707 99.9076C69.6455 98.9319 69.2948 98.091 68.2729 97.9556ZM75.6051 100.747C76.014 99.7327 74.9906 98.8461 73.401 98.6353C71.9107 98.4378 70.8325 98.9448 70.4198 99.9877C69.5784 102.086 73.001 102.742 72.3476 104.403C72.154 104.883 71.7455 105.132 71.1635 105.055C70.6242 104.983 70.2218 104.641 70.387 104.157C70.456 103.964 70.6526 103.788 70.891 103.733C70.8272 103.234 70.4787 102.812 69.9678 102.744C69.4285 102.673 68.9878 102.946 68.8084 103.428C68.3901 104.514 69.2423 105.493 71.1726 105.749C72.7764 105.962 73.9955 105.372 74.4261 104.303C75.3959 101.889 71.8042 101.529 72.4501 99.9247C72.6239 99.4855 72.9842 99.2733 73.4526 99.3354C74.0203 99.4107 74.2836 99.8211 74.1335 100.191C74.0683 100.356 73.918 100.509 73.7005 100.625C73.7935 101.013 74.1022 101.299 74.5563 101.359C74.9821 101.416 75.4115 101.227 75.6051 100.747Z" fill="#214434"/>
<mask id="path-15-inside-4_2399_12421" fill="white">
<path fill-rule="evenodd" clip-rule="evenodd" d="M104.435 18.5998L26.1489 6.74834C25.0538 13.9812 18.3028 18.9569 11.07 17.8619L11.0692 17.8618L-9.59393 154.355L94.8855 170.171L115.549 33.6784C108.316 32.5834 103.34 25.8325 104.435 18.5998Z"/>
</mask>
<path d="M104.435 18.5998L105.152 18.7083L105.26 17.9914L104.544 17.8829L104.435 18.5998ZM26.1489 6.74834L26.2574 6.03146L25.5405 5.92294L25.432 6.63981L26.1489 6.74834ZM11.0692 17.8618L11.1777 17.1449L10.4608 17.0364L10.3523 17.7533L11.0692 17.8618ZM-9.59393 154.355L-10.3108 154.246L-10.4193 154.963L-9.70245 155.071L-9.59393 154.355ZM94.8855 170.171L94.777 170.888L95.4939 170.997L95.6024 170.28L94.8855 170.171ZM115.549 33.6784L116.266 33.7869L116.374 33.0701L115.657 32.9615L115.549 33.6784ZM104.544 17.8829L26.2574 6.03146L26.0403 7.46522L104.327 19.3167L104.544 17.8829ZM25.432 6.63981C24.3969 13.4767 18.0154 18.1801 11.1785 17.145L10.9614 18.5788C18.5902 19.7337 25.7108 14.4856 26.8657 6.85688L25.432 6.63981ZM11.1785 17.145L11.1777 17.1449L10.9607 18.5787L10.9614 18.5788L11.1785 17.145ZM10.3523 17.7533L-10.3108 154.246L-8.87705 154.463L11.7861 17.9703L10.3523 17.7533ZM-9.70245 155.071L94.777 170.888L94.994 169.454L-9.4854 153.638L-9.70245 155.071ZM95.6024 170.28L116.266 33.7869L114.832 33.5699L94.1686 170.063L95.6024 170.28ZM115.657 32.9615C108.82 31.9264 104.117 25.5451 105.152 18.7083L103.718 18.4913C102.563 26.1199 107.811 33.2403 115.44 34.3953L115.657 32.9615Z" fill="#214434" mask="url(#path-15-inside-4_2399_12421)"/>
<defs>
<filter id="filter0_dddddd_2399_12421" x="20.8034" y="44.1061" width="232.253" height="272.782" filterUnits="userSpaceOnUse" color-interpolation-filters="sRGB">
<feFlood flood-opacity="0" result="BackgroundImageFix"/>
<feColorMatrix in="SourceAlpha" type="matrix" values="0 0 0 0 0 0 0 0 0 0 0 0 0 0 0 0 0 0 127 0" result="hardAlpha"/>
<feOffset dy="0.895121"/>
<feGaussianBlur stdDeviation="0.760853"/>
<feColorMatrix type="matrix" values="0 0 0 0 0 0 0 0 0 0 0 0 0 0 0 0 0 0 0.0168519 0"/>
<feBlend mode="normal" in2="BackgroundImageFix" result="effect1_dropShadow_2399_12421"/>
<feColorMatrix in="SourceAlpha" type="matrix" values="0 0 0 0 0 0 0 0 0 0 0 0 0 0 0 0 0 0 127 0" result="hardAlpha"/>
<feOffset dy="3.93853"/>
<feGaussianBlur stdDeviation="1.57541"/>
<feColorMatrix type="matrix" values="0 0 0 0 0 0 0 0 0 0 0 0 0 0 0 0 0 0 0.0274815 0"/>
<feBlend mode="normal" in2="effect1_dropShadow_2399_12421" result="effect2_dropShadow_2399_12421"/>
<feColorMatrix in="SourceAlpha" type="matrix" values="0 0 0 0 0 0 0 0 0 0 0 0 0 0 0 0 0 0 127 0" result="hardAlpha"/>
<feOffset dy="9.66731"/>
<feGaussianBlur stdDeviation="3.14188"/>
<feColorMatrix type="matrix" values="0 0 0 0 0 0 0 0 0 0 0 0 0 0 0 0 0 0 0.035 0"/>
<feBlend mode="normal" in2="effect2_dropShadow_2399_12421" result="effect3_dropShadow_2399_12421"/>
<feColorMatrix in="SourceAlpha" type="matrix" values="0 0 0 0 0 0 0 0 0 0 0 0 0 0 0 0 0 0 127 0" result="hardAlpha"/>
<feOffset dy="18.6185"/>
<feGaussianBlur stdDeviation="6.15843"/>
<feColorMatrix type="matrix" values="0 0 0 0 0 0 0 0 0 0 0 0 0 0 0 0 0 0 0.0425185 0"/>
<feBlend mode="normal" in2="effect3_dropShadow_2399_12421" result="effect4_dropShadow_2399_12421"/>
<feColorMatrix in="SourceAlpha" type="matrix" values="0 0 0 0 0 0 0 0 0 0 0 0 0 0 0 0 0 0 127 0" result="hardAlpha"/>
<feOffset dy="31.3292"/>
<feGaussianBlur stdDeviation="11.3233"/>
<feColorMatrix type="matrix" values="0 0 0 0 0 0 0 0 0 0 0 0 0 0 0 0 0 0 0.0531481 0"/>
<feBlend mode="normal" in2="effect4_dropShadow_2399_12421" result="effect5_dropShadow_2399_12421"/>
<feColorMatrix in="SourceAlpha" type="matrix" values="0 0 0 0 0 0 0 0 0 0 0 0 0 0 0 0 0 0 127 0" result="hardAlpha"/>
<feOffset dy="48.3365"/>
<feGaussianBlur stdDeviation="19.3346"/>
<feColorMatrix type="matrix" values="0 0 0 0 0 0 0 0 0 0 0 0 0 0 0 0 0 0 0.07 0"/>
<feBlend mode="normal" in2="effect5_dropShadow_2399_12421" result="effect6_dropShadow_2399_12421"/>
<feBlend mode="normal" in="SourceGraphic" in2="effect6_dropShadow_2399_12421" result="shape"/>
</filter>
<filter id="filter1_dddddd_2399_12421" x="-52.6692" y="1.49329" width="211.156" height="262.383" filterUnits="userSpaceOnUse" color-interpolation-filters="sRGB">
<feFlood flood-opacity="0" result="BackgroundImageFix"/>
<feColorMatrix in="SourceAlpha" type="matrix" values="0 0 0 0 0 0 0 0 0 0 0 0 0 0 0 0 0 0 127 0" result="hardAlpha"/>
<feOffset dy="0.895121"/>
<feGaussianBlur stdDeviation="0.760853"/>
<feColorMatrix type="matrix" values="0 0 0 0 0 0 0 0 0 0 0 0 0 0 0 0 0 0 0.0168519 0"/>
<feBlend mode="normal" in2="BackgroundImageFix" result="effect1_dropShadow_2399_12421"/>
<feColorMatrix in="SourceAlpha" type="matrix" values="0 0 0 0 0 0 0 0 0 0 0 0 0 0 0 0 0 0 127 0" result="hardAlpha"/>
<feOffset dy="3.93853"/>
<feGaussianBlur stdDeviation="1.57541"/>
<feColorMatrix type="matrix" values="0 0 0 0 0 0 0 0 0 0 0 0 0 0 0 0 0 0 0.0274815 0"/>
<feBlend mode="normal" in2="effect1_dropShadow_2399_12421" result="effect2_dropShadow_2399_12421"/>
<feColorMatrix in="SourceAlpha" type="matrix" values="0 0 0 0 0 0 0 0 0 0 0 0 0 0 0 0 0 0 127 0" result="hardAlpha"/>
<feOffset dy="9.66731"/>
<feGaussianBlur stdDeviation="3.14188"/>
<feColorMatrix type="matrix" values="0 0 0 0 0 0 0 0 0 0 0 0 0 0 0 0 0 0 0.035 0"/>
<feBlend mode="normal" in2="effect2_dropShadow_2399_12421" result="effect3_dropShadow_2399_12421"/>
<feColorMatrix in="SourceAlpha" type="matrix" values="0 0 0 0 0 0 0 0 0 0 0 0 0 0 0 0 0 0 127 0" result="hardAlpha"/>
<feOffset dy="18.6185"/>
<feGaussianBlur stdDeviation="6.15843"/>
<feColorMatrix type="matrix" values="0 0 0 0 0 0 0 0 0 0 0 0 0 0 0 0 0 0 0.0425185 0"/>
<feBlend mode="normal" in2="effect3_dropShadow_2399_12421" result="effect4_dropShadow_2399_12421"/>
<feColorMatrix in="SourceAlpha" type="matrix" values="0 0 0 0 0 0 0 0 0 0 0 0 0 0 0 0 0 0 127 0" result="hardAlpha"/>
<feOffset dy="31.3292"/>
<feGaussianBlur stdDeviation="11.3233"/>
<feColorMatrix type="matrix" values="0 0 0 0 0 0 0 0 0 0 0 0 0 0 0 0 0 0 0.0531481 0"/>
<feBlend mode="normal" in2="effect4_dropShadow_2399_12421" result="effect5_dropShadow_2399_12421"/>
<feColorMatrix in="SourceAlpha" type="matrix" values="0 0 0 0 0 0 0 0 0 0 0 0 0 0 0 0 0 0 127 0" result="hardAlpha"/>
<feOffset dy="48.3365"/>
<feGaussianBlur stdDeviation="19.3346"/>
<feColorMatrix type="matrix" values="0 0 0 0 0 0 0 0 0 0 0 0 0 0 0 0 0 0 0.07 0"/>
<feBlend mode="normal" in2="effect5_dropShadow_2399_12421" result="effect6_dropShadow_2399_12421"/>
<feBlend mode="normal" in="SourceGraphic" in2="effect6_dropShadow_2399_12421" result="shape"/>
</filter>
<clipPath id="clip0_2399_12421">
<rect width="40.359" height="40.6027" fill="white" transform="translate(42.9463 22.0505) rotate(7.15332)"/>
</clipPath>
</defs>
</svg>
