<svg fill="none" height="27" viewBox="0 0 27 27" width="27" xmlns="http://www.w3.org/2000/svg"><path clip-rule="evenodd" d="m12.8117.720959c-.159.00936-.4306.031099-.6035.048288-.173.017208-.322.026607-.3313.020924-.0092-.005703-.0695.006379-.134.026827-.0645.020447-.2069.047929-.3165.061084-.1096.013135-.2452.040339-.3013.060449-.056.020109-.1592.042624-.2292.050036-.1631.017263-.4429.080673-.5121.116053-.0295.01506-.1107.0339-.1804.04184-.0696.00795-.1838.04028-.25365.07186-.06986.03159-.14576.05743-.16865.05743-.02288 0-.05792.0087-.07787.01935-.01995.01063-.07455.02415-.12131.03001s-.16665.0453-.26639.08767-.22171.09095-.27104.10796c-.25742.08881-.41513.1484-.47239.1785-.0351.01845-.08446.03355-.10971.03355-.02523 0-.0893.03076-.14236.06837-.05305.03762-.12479.07401-.15939.08088-.14925.02965-.32536.09958-.40678.16152-.04825.03674-.09723.06678-.10883.06678-.0296 0-.33424.15635-.39444.20243-.09162.07015-.19156.12913-.24052.14196-.02667.00698-.10213.05308-.16769.10242-.06557.04934-.1288.08972-.14052.08972-.01174 0-.07468.03841-.13992.08539-.06522.04695-.16966.11694-.23207.15553s-.15954.11195-.21581.16302c-.05629.05105-.11547.09284-.13149.09284-.06195 0-.18114.08203-.27335.18812-.05296.06093-.13369.1297-.17939.15283-.16069.08132-.24672.15172-.25878.21183-.00847.04227-.03992.07561-.11726.1244-.05814.03666-.11286.07809-.12161.09208-.00873.01399-.04714.04662-.08535.07249-.07245.0491-.32254.28502-.45266.42704-.04155.04536-.08489.08246-.09631.08246-.02822 0-.33813.31099-.39603.39743-.02563.03825-.06617.08743-.09011.10929s-.09171.09787-.15061.16891-.12306.14649-.14256.16769c-.01951.02118-.03548.04535-.03548.05367 0 .00835-.09463.12515-.2103.25956s-.23237.28462-.25934.3338c-.02695.04918-.08515.1386-.12934.19871-.04419.06012-.09525.13165-.11349.15898-.01824.02732-.06273.08324-.09884.12425-.03614.04101-.0657.08817-.0657.10476 0 .01661-.0345.068-.07668.1142-.09219.10101-.18244.25179-.18244.30485 0 .02118-.0403.10087-.08955.17709-.07989.12364-.13313.21924-.13803.2479-.00094.00546-.02083.03676-.04423.06955-.0234.03278-.05719.09091-.07507.12916-.0179.03825-.04564.09191-.06165.11923-.04319.07374-.22788.47192-.27187.5862-.05332.13849-.08001.19246-.11794.23846-.03078.03732-.08412.18705-.20883.5862-.02902.0929-.07724.22256-.10714.28814-.0299.06557-.06611.15946-.08048.20865-.01437.04918-.05639.16407-.09337.25534-.03697.09125-.06723.19438-.06723.22908s-.01237.0808-.02748.1023c-.01511.0216-.03823.0929-.05137.1585-.013113.0655-.036135.1639-.051144.2185-.015009.0547-.042336.1888-.060733.2981-.018398.1093-.046462.2613-.062368.3378s-.036436.2241-.045645.3279c-.009189.1038-.026231.229-.037891.2782-.01164.0492-.021387.1359-.021666.1928-.000259.0569-.009129.1239-.019693.149-.01485.0354-.061531 1.0222-.064182 1.3572-.003049.3842.009388.655.035141.765.025154.1075.072732.6995.070281.8744-.000399.0273.016165.0988.036794.1589.02061.0602.052522.1943.070919.2981.018377.1038.046522.2403.062547.3032.016006.0629.023779.123.017261.1336-.006517.0105.001675.0452.018198.077.02081.0402.02647.088.018398.1559-.009448.0794-.002033.1183.039263.2059.02801.0594.05733.1657.06516.2362.00785.0705.03116.1567.05179.1916.02065.0349.0514.1381.06838.2295.01832.0987.05446.2083.089.2701.03199.0573.05816.1316.05816.1652 0 .0716.05747.2574.07961.2574.02159 0 .05515.0939.07104.1987.00745.0492.05236.1654.09978.2583s.10991.236.13885.318c.09808.2777.09274.2677.12107.229.01379-.0188.02025-.0467.01435-.062-.01675-.0435.00946-.0328.0347.0142.01258.0235.01381.0368.00279.0299-.01092-.0067-.02512.0015-.03157.0183-.01172.0304.06067.0738.09226.0552.00823-.0048.01495.0231.01495.062s-.00674.0685-.01495.0657c-.02715-.009-.02615.0245.00237.0797.01545.0299.07038.1551.12207.2781.05168.123.10179.2285.11136.2344.03606.0222.15483.2205.17369.2899.0108.0398.08116.165.15637.2782.07522.1131.15469.2377.17662.2767.12599.2245.40805.645.49641.74.0285.0306.06647.0843.08439.1192.01792.035.10985.1521.20426.2603.09442.1082.20837.2423.25322.298.04487.0558.13464.155.19952.2206.06486.0656.15374.1633.19749.2171.14116.1738.85627.8659.8946.8659.01134 0 .03888.0219.06121.0486.06683.0801.43572.3687.47121.3687.01812 0 .0441.0134.05775.0298s.03492.0298.04728.0298c.01238 0 .04883.0335.08104.0745.06241.0794.08123.0965.19059.1733.03837.0269.0896.0635.11386.0812.02423.0178.0803.0371.12457.043.04427.006.08049.0181.08049.0271 0 .0293.1468.1609.27905.2501.07126.048.19683.1354.27905.1942s.19882.1357.25912.171c.06029.0352.13498.0852.16597.1111.031.0258.07808.0524.10465.059.02657.0067.04829.0187.04829.0268s.03813.031.08471.051c.21178.0909.25135.1077.36377.1548.06577.0275.20065.0986.29972.158.09906.0594.22912.1234.28901.1422.13421.0422.13532.0426.42398.1787.16083.0759.26005.111.31335.111.04292 0 .12667.0214.18611.0477.09689.0427.29637.1093.36904.1231.01513.0029.03712.0149.04884.0266.01172.0116.03831.0212.0591.0212.02077 0 .06159.0123.09069.0272.05611.0289.11893.0476.53123.1583.3787.1016.6892.1722.7575.1722.0329 0 .1065.0177.1635.0393.0748.0284.2129.0478.4946.0698.2149.0167.4302.0392.4784.0499.0483.0108.2159.0238.3725.0288.2613.0084.4194.0291.4492.0588.0065.0065.1147.0133.1346.0233l.1296.0198.1395.01h.1208.1981.1271.1706l.1408-.0298.0798-.0119c.0598 0 .1999-.0071.2103-.0161.0588 0 .1973-.0162.2382-.0317.0406-.0044.6932-.0788.7913-.1194.0362-.015.1285-.033.2053-.04.2676-.0245.7376-.1039.8983-.1518.0337-.01.083-.0185.1096-.0189.0267-.0003.093-.0223.1475-.0489.0577-.0282.1171-.0438.1425-.0375.0528.0132.3029-.0741.4262-.1488.1212-.0735.3168-.1417.4061-.1417.0504 0 .1211-.0277.2272-.0889.0873-.0503.1899-.0932.2369-.0989.0456-.0056.1128-.0271.1495-.0479.0366-.0208.1114-.0539.1663-.0737.0548-.0197.124-.0557.1538-.08s.1016-.0595.1595-.0783.1187-.0446.1351-.0573c.0165-.0127.0703-.0418.1196-.0645.1212-.0559.2014-.0945.2492-.1199.086-.0458.2298-.0971.3244-.1157.0359-.0071.1108-.0434.1665-.0808.0557-.0373.1319-.0824.1693-.1001s.0864-.0579.1089-.0893c.0224-.0314.0828-.0808.1341-.1098.0514-.029.1651-.0995.2528-.1568.0877-.0572.2133-.1339.2791-.1705.0658-.0365.1555-.1025.1993-.1467.1334-.1342.2932-.2592.4086-.3196.0658-.0345.1877-.1351.3048-.2515.1074-.1067.2024-.194.2112-.194s.0331-.0188.054-.0419.0836-.0721.1394-.1091c.1141-.0756.2946-.2535.3862-.3806.0335-.0465.1685-.1941.3-.3279s.2434-.2568.2487-.2732.0357-.0413.0676-.0554c.0599-.0264.2693-.2647.3663-.4168.0303-.0475.0729-.1055.0947-.1288s.0396-.0481.0396-.0551.021-.0239.0466-.0376.0769-.0756.114-.1375c.037-.062.1068-.1617.155-.2216s.1257-.1856.1721-.2794c.0894-.1804.1809-.3219.306-.4732.0989-.1196.215-.3134.2534-.4229.0167-.0477.0602-.1358.0966-.1959.0365-.0602.0796-.1362.096-.169.0164-.0327.0572-.1087.0907-.1689.0334-.0601.0722-.1495.0862-.1987.0139-.0492.0649-.1498.1133-.2237.0483-.0739.0966-.1656.1071-.2037.0106-.0381.0278-.0694.0382-.0694.0105 0 .019-.0163.019-.0363s.0225-.0804.05-.1342c.0275-.0537.0582-.1245.0682-.1573s.0378-.1088.0619-.1689c.024-.0601.0554-.1496.0699-.1988.0144-.0491.0538-.1693.0874-.267.0337-.0977.0613-.1992.0613-.2256s.0224-.0925.0498-.147c.0274-.0543.0498-.1328.0498-.1742s.0173-.1144.0383-.1623c.0211-.0478.0447-.1227.0526-.1665.0078-.0437.0362-.1231.063-.1765.037-.0734.0457-.114.0358-.1664-.0138-.0736.0133-.2778.062-.4667.0161-.0628.0329-.1629.0373-.2225s.0216-.1348.0383-.167c.0429-.0827.0645-.4204.0319-.4988-.0174-.042-.0189-.0684-.0047-.0855.0409-.0496.0809-.2485.0948-.4719.0236-.3799.0193-1.243-.0078-1.5599-.014-.164-.0243-.357-.023-.429.0029-.1502-.0337-.5299-.0614-.6372-.0103-.0399-.0221-.1159-.0263-.1689s-.0176-.1332-.0298-.1783c-.0282-.1046-.1025-.5016-.1036-.5539-.0007-.0359-.0429-.2511-.1012-.5167-.012-.0546-.0423-.153-.0674-.2185-.025-.0656-.0565-.1729-.07-.2385-.0134-.0656-.0366-.139-.0514-.16325-.0148-.0242-.027-.09395-.027-.15497 0-.11576-.0373-.21539-.0878-.23474-.0317-.01209-.0916-.18743-.0916-.26785 0-.05703-.0625-.20833-.2109-.51057-.0909-.18528-.2874-.67529-.2874-.71694 0-.00718-.0261-.04276-.0581-.07909-.072-.08169-.1962-.29078-.2134-.35917-.007-.028-.0438-.09137-.0817-.14087-.0379-.04948-.073-.11343-.0781-.14212-.0143-.08032-.0946-.23597-.2268-.43965-.0319-.04919-.0763-.12265-.0987-.16329-.0223-.04061-.0585-.0834-.0804-.09508-.0219-.01167-.0398-.03472-.0398-.05121s-.0381-.08706-.0847-.1568c-.0466-.06975-.1071-.1642-.1345-.20989-.0274-.04568-.0701-.105-.0948-.1318-.0248-.02683-.0749-.09517-.1114-.1519-.0364-.05673-.0812-.11537-.0993-.13032-.0182-.01494-.0604-.07306-.0937-.12916-.0333-.05609-.1324-.18248-.2201-.28084s-.1749-.20475-.1937-.23645c-.0188-.03167-.1709-.19657-.3381-.36641-.1672-.16986-.304-.31458-.304-.32161 0-.01129-.1325-.16549-.1737-.20219-.1114-.0991-.2842-.24436-.3854-.32395-.0696-.05464-.153-.12842-.1855-.16394-.0325-.03551-.0688-.06491-.0808-.06533-.0119-.0004-.0881-.06299-.1692-.1391-.0812-.07609-.1552-.13835-.1645-.13835-.0094 0-.0841-.05824-.1659-.12944-.0819-.0712-.1879-.1539-.2356-.18381-.0476-.0299-.1296-.08119-.1821-.11398-.0526-.03279-.1293-.08868-.1705-.12419-.0411-.03551-.0823-.06459-.0914-.06459-.0217 0-.2828-.17492-.2983-.1999-.0106-.01713-.0968-.06735-.266-.15498-.0287-.01484-.1438-.07966-.2559-.14407-.1121-.06438-.2136-.11706-.2256-.11706-.0121 0-.0629-.02814-.1131-.06253-.0501-.03438-.149-.08267-.2196-.10729-.0707-.02462-.1524-.06621-.1815-.09242-.0292-.02621-.0889-.05934-.1328-.07362-.0438-.01431-.144-.05636-.2227-.09346-.0786-.0371-.1498-.06746-.1581-.06746-.0084 0-.0357-.0191-.0606-.04245s-.0883-.05424-.1408-.06869c-.1368-.03762-.5233-.17501-.5938-.21109-.0329-.01684-.1226-.04921-.1993-.07196s-.2203-.0653-.3189-.09455c-.0987-.02925-.1884-.05977-.1993-.06784-.011-.00806-.0648-.02098-.1196-.02871-.0549-.00771-.1668-.03631-.2489-.06355-.0821-.02722-.1762-.05194-.2093-.05492-.033-.00298-.0735-.0105-.09-.0167-.0532-.02003-.2654-.054165-.4086-.065691-.0767-.00618-.2004-.029389-.2748-.051605-.0744-.022197-.2045-.042465-.289-.045069-.0846-.002583-.1727-.014764-.1957-.027084-.0631-.033662-.8998-.118235-1.1639-.117619-.0603.000139-.2038-.001748-.319-.004173-.1151-.002424-.2331.00465-.2624.015738-.0325.012341-.0788.013453-.1196.002902-.1173-.030403-.2985-.036067-.5946-.01864zm.4334.278418c.0675.025633.0841.051133.0845.130173.0002.04036-.0115.06699-.0332.07526-.0184.00705-.1369.01319-.2633.01363-.1265.00046-.2437.00809-.2606.01693-.0168.00886-.1955.0219-.397.02897-.2016.00708-.3826.02146-.4023.03199-.0198.01054-.0739.01916-.1203.01916-.1145 0-.3314.03613-.4165.06941-.072.02808-.2022.04966-.3588.05946-.1022.00637-.3487.0765-.3905.11108-.0153.01267-.0471.01806-.0705.01196-.0413-.01077-.2881.06965-.3243.10567-.0098.0098-.0427.01286-.0731.0068-.0683-.01361-.51071.0678-.57106.10512-.02428.015-.05657.02728-.07176.02728s-.06476.02683-.11015.05962c-.05186.03745-.10691.05961-.14805.05961-.03602 0-.0832.0121-.1048.02687-.02163.01478-.07521.03243-.11906.03922-.04385.0068-.15858.05284-.25495.1023s-.19169.08994-.21184.08994c-.09097 0-.41537.16141-.50062.24911-.0465.04783-.08483.06883-.12559.06883-.03225 0-.10321.02732-.15766.06073-.12703.07793-.20624.07471-.20036-.00813.00711-.09987.06011-.14945.26081-.24394.10648-.05016.21603-.10009.24343-.111.04465-.01775.08972-.0375.25912-.11359.02741-.0123.10335-.05397.16879-.0926.06541-.03863.17105-.08234.23476-.09715.0637-.01482.14801-.04588.18736-.06903s.11758-.05177.17385-.06359c.05627-.01184.13817-.03911.18202-.06061.10941-.05361.32121-.10987.42412-.11263.0469-.00127.12011-.02003.16268-.04167.18716-.09518.32136-.13425.79346-.23096.1948-.0399.2834-.06556.3339-.09674.0219-.01351.1296-.03.2392-.03662.1811-.01095.3513-.04694.4143-.08763.0133-.00861.0646-.01697.1139-.01858.1452-.00477.4097-.03891.4384-.0566.0921-.056748.839-.078308.9717-.028053zm1.5666.007573c.0346.01415.1428.03155.2404.03867.0976.00713.1851.01764.1944.02339.0093.00574.0595.0182.1116.0277.052.00949.1349.0274.1843.0398.0493.0124.1256.02293.1694.02343.0439.00047.147.01772.2292.03831.0822.02057.2258.04286.3189.0495.1232.00878.185.02301.2265.05212.0463.03245.0753.0376.1535.02726.0826-.01091.0994-.00723.117.02564.0143.02655.0518.04266.1217.05226.0556.00761.1776.03978.271.07146.0934.03167.1848.05758.2032.05758.0183 0 .0584.0313.089.06955.0498.0623.0657.06955.1523.06955.0665 0 .1002.00908.1079.02908.008.02082.0419.02869.1197.02778.1067-.00128.1906.02632.4614.15173.0548.0254.1445.06101.1993.07911.1029.03402.3071.13205.3774.18117.0221.01536.0543.02792.0717.02792.0446 0 .3069.13135.3388.1696.0341.04105.127.08872.1728.08876.0197.00002.0852.03414.1455.07585.1532.10598.1801.20333.0746.26968-.025.01575-.0569.00353-.1405-.05389-.1414-.09708-.3714-.21205-.4245-.21213-.023-.00004-.0723-.02206-.1096-.04894-.0372-.02689-.1036-.06816-.1474-.09173-.0439-.02359-.0941-.05536-.1115-.07064-.0175-.01526-.0836-.04122-.1468-.05763-.0633-.01643-.1376-.04759-.1653-.06927-.0276-.02168-.063-.03941-.0786-.03941-.0155 0-.0838-.0277-.1517-.06158-.068-.03386-.1743-.07797-.2365-.098-.0622-.02005-.1395-.05014-.172-.06685-.0324-.01673-.1206-.04831-.1959-.07019-.0754-.02187-.1908-.05705-.2566-.07815-.1017-.03265-.4556-.13445-.5182-.14907-.011-.00257-.0379-.01443-.0598-.02639-.0602-.03277-.3165-.10552-.3719-.10552-.0268 0-.0572-.00793-.0676-.01763-.0206-.01911-.2128-.05482-.3877-.07201-.0603-.00594-.1321-.01631-.1595-.02305-.0274-.00676-.0677-.01625-.0897-.0211-.052-.01151-.2215-.02594-.4086-.03478-.0822-.00387-.2392-.02053-.3488-.037s-.3394-.03414-.5107-.03928c-.1712-.00513-.3298-.0192-.3524-.03128-.0227-.01206-.06-.02194-.083-.02194-.0583 0-.0705-.04797-.0326-.12779l.0324-.067863.3902.000259c.2732.000159.4093.007948.4533.025954zm-1.7355.41151c.3066-.00004.3424.01292.3844.13888.0254.07637.0303.13449.0202.24227-.0138.14662-.0883.6279-.1003.64743-.0037.00608-.0124.04614-.0192.08903-.0068.0429-.0212.08858-.032.10152-.0107.01295-.037.07418-.0584.13606-.0572.16574-.1426.35448-.1809.39981-.0185.02186-.0442.08892-.0572.14903-.0611.28303-.0632.29893-.0443.33245.0125.02244.0117.04795-.0025.07436-.0118.0221-.0234.08046-.0256.12966-.0078.17282-.0504.50201-.0696.53768-.0468.08721-.0232.1602.0903.27879.0603.06304.1096.12927.1096.14719 0 .01794.0212.06108.0472.09588.0542.07265.0977.19061.1334.36132.0137.06558.0417.14748.0622.18202.0341.05743.0366.09989.0292.49678-.0045.2387-.0186.55918-.0314.71219s-.0223.57776-.021.94389c.0012.36613.0009.93395-.0009 1.26183-.0017.32788-.0023.62297-.0013.65575.001.03279.0058.50222.0107 1.04322.0084.926.0267 1.9263.0388 2.1263.0075.1229-.0004.1432-.0752.1943-.1307.0893-.2895.2551-.3373.3521-.089.1807-.0888.3525.0006.6061.042.1191.0543.2306.0273.2472-.012.0074-.0218.0534-.0218.1021 0 .0616-.0154.1119-.0504.1646-.0277.0417-.054.1046-.0585.1396-.0049.0387-.036.0925-.0791.1368-.0391.0401-.0711.0875-.0711.1052 0 .0178-.0174.048-.0387.0671-.0212.0192-.0717.1008-.1122.1815-.0405.0806-.0894.1515-.1087.1576s-.0457.0399-.0585.075c-.0351.0956-.1658.3567-.2897.5786-.0604.1081-.1098.2073-.1098.2204 0 .013-.0403.0663-.0897.1184-.0493.052-.0897.1059-.0897.1197 0 .0137-.0179.0477-.0398.0755-.022.0278-.0399.0619-.0399.0757s-.012.0392-.0267.0564c-.0147.0173-.0469.0865-.0715.1538-.0247.0673-.0657.1419-.0913.1659-.0256.0239-.0553.0672-.0661.0962-.0897.2406-.1317.3348-.1733.3892-.0265.0347-.0619.0957-.0786.1356-.0168.0399-.0824.1467-.1459.2374-.0635.0906-.1265.1917-.14.2246-.0374.0907-.1497.2024-.2188.2175-.0411.009-.0769.0035-.1077-.0166-.0892-.0581-.3553-.0223-.5644.0758-.03286.0154-.11173.0384-.17523.0511-.11955.0238-.1604.0512-.33056.2211-.11156.1115-.31094.4925-.34179.6532-.03174.1653-.03901.4573-.01856.7451.01244.1753.01124.3222-.00373.4571-.01214.1093-.0232.2541-.02455.3219-.00186.0915-.01137.1299-.03694.149-.03432.0258-.10076.1877-.17771.4332-.02227.0711-.05181.1471-.06562.1689-.01381.0219-.03598.0728-.04923.1131-.02021.0615-.01892.0833.00815.1354.01772.0342.02946.0862.02605.1155-.00542.0468-.01596.054-.0865.0592-.0765.0056-.08695-.001-.21956-.1396-.14606-.1526-.24459-.214-.34325-.214-.03249 0-.08218-.0181-.1104-.0403-.073-.0572-.34292-.1237-.4478-.1104-.05611.0072-.12155.0378-.19207.0897-.15429.1136-.21626.2032-.27237.3938-.01973.067-.01981.1069-.0004.1933.02125.0947.03865.1211.13287.2013.09932.0846.11716.0923.21292.0919.13733-.0005.30366-.0478.36276-.1031.08021-.0752.08003-.128-.00098-.2914-.0403-.0814-.06765-.1535-.06075-.1604.01672-.0167.08854.0495.10299.0949.00632.0198.02711.041.0462.0471.01912.006.06771.0672.10804.1359.08351.1423.12064.1624.35323.1916.08007.01.15262.0296.16123.0435.00864.0139.00325.0549-.01195.0912-.037.0883-.20618.4054-.23626.4429-.01318.0164-.03949.0611-.05848.0993-.03365.0677-.09217.1574-.16871.2584-.02071.0273-.06787.1167-.1048.1987-.03693.0819-.10122.1974-.14285.2566-.04166.0591-.07573.1234-.07573.1429 0 .0194-.00909.0409-.02021.0478-.03572.022-.09938.1653-.09938.2237 0 .0312.01317.074.02926.0952.01611.0212.02956.0542.0299.0733.00115.063-.08455.0375-.21407-.0634-.06875-.0537-.15396-.1037-.18936-.1111-.06721-.0143-.17233-.0835-.33075-.2179-.05153-.0437-.16965-.1271-.26245-.1853-.09282-.0581-.22258-.1499-.28836-.204-.06577-.054-.15346-.1227-.19486-.1525-.23159-.1672-.40071-.3083-.54263-.4528-.0877-.0894-.20879-.1924-.26908-.229-.0603-.0366-.11254-.0733-.11609-.0816-.00867-.0203-.24307-.2739-.28941-.3131-.02021-.017-.06662-.0623-.10313-.1006-.03652-.0382-.12727-.1321-.20166-.2086-.0744-.0765-.19635-.2107-.27101-.2981-.07467-.0874-.14377-.1679-.15356-.1788-.00979-.011-.08641-.0825-.17028-.159-.08386-.0765-.16634-.1652-.1833-.197-.04008-.0754-.28551-.3945-.31907-.415-.01425-.0086-.0545-.0757-.08946-.149s-.08662-.161-.11479-.1949c-.02818-.0339-.06916-.0917-.09109-.1285-.02192-.0368-.06133-.1029-.08758-.147s-.07558-.1153-.10963-.1582c-.03404-.043-.08042-.1146-.10305-.159-.08712-.1712-.2933-.5587-.30735-.5777-.00811-.0109-.02019-.0422-.02685-.0695-.00664-.0273-.04235-.0953-.07935-.151-.03699-.0557-.07819-.1452-.09153-.1987-.01333-.0536-.0453-.1287-.071-.167-.02571-.0382-.05317-.1003-.06103-.1379-.00785-.0377-.02663-.0808-.04174-.0958-.0151-.0151-.02746-.0537-.02746-.0859 0-.0321-.00875-.074-.01944-.093-.01068-.0189-.04247-.0926-.07066-.1636-.02816-.0711-.0588-.1471-.06806-.1689-.00927-.0219-.04557-.1202-.08067-.2186s-.07644-.2082-.09189-.2441c-.01542-.0359-.02806-.0855-.02806-.1103s-.00783-.0535-.0174-.0639-.03771-.0994-.06253-.1977c-.02479-.0984-.05278-.1938-.06215-.212-.02643-.0514-.11636-.3901-.15479-.5829-.01308-.0656-.03781-.1818-.05499-.2583-.01719-.0765-.03875-.2062-.04792-.2881-.01806-.1612-.053-.3972-.07064-.477-.00604-.0273-.00959-.1748-.00789-.3278.00219-.1956-.00654-.3202-.02934-.4195-.01784-.0777-.03435-.2387-.03668-.3577s-.00877-.2253-.01429-.2363c-.02579-.0509.0113-1.2449.04258-1.3711.01819-.0734.02459-.1171.04506-.308.00957-.0893.02856-.1757.05238-.2384.01788-.0472.06183-.2855.10078-.5465.0188-.1261.04218-.2155.09868-.3776.01906-.0546.04103-.153.04882-.2186.00779-.0655.03195-.1818.05368-.2583.02172-.0765.04474-.1614.05114-.1888.0064-.0273.01772-.0541.02516-.0596.00743-.0054.02958-.077.04921-.15894.01963-.08197.05174-.18059.07136-.21916.0453-.08904.19882-.547.19882-.59308 0-.05795.20297-.54191.25483-.60765.01978-.02507.0525-.09812.07273-.16234.04206-.13362.18494-.42781.34138-.70297.05904-.10383.13383-.24303.16622-.30934s.07299-.13222.09023-.14649.03135-.03416.03135-.04419c0-.01004.01669-.04247.03708-.07208.02041-.02963.07494-.11819.12122-.19682.04629-.07865.09789-.15436.11471-.16827.01681-.01391.1062-.13932.19863-.2787.09244-.13938.17676-.25874.18736-.26528.01062-.00654.03163-.04133.04672-.07732.01507-.03597.09219-.13596.17138-.22218.07917-.08624.16757-.18808.19641-.22634.02886-.03825.10183-.12068.16219-.18315.06035-.06248.13811-.14296.17281-.17884.36631-.37889.81311-.82301.84686-.84177.05942-.03305.24367-.19295.37618-.32649.07153-.07209.17468-.15259.22922-.17892.05453-.02631.13504-.0806.17889-.12062s.13022-.10478.19193-.14393c.06171-.03914.14189-.10855.17819-.15424.03632-.0457.1069-.10232.15689-.12582.04999-.02353.12884-.06703.1752-.0967.04638-.02966.09221-.05395.10187-.05395.00965 0 .05242-.02396.09506-.05325.04265-.02929.14407-.08239.22537-.11798.08131-.03559.18157-.09473.22278-.13139.04124-.03668.0958-.07632.12125-.08811.02548-.01178.09576-.04493.15621-.07368.06045-.02873.12187-.05224.13646-.05224s.0524-.01836.08401-.0408c.03161-.02245.1182-.06808.19243-.1014.07422-.03333.14841-.07196.16485-.08587.03624-.03062.36722-.17864.51635-.23092.05924-.02079.13713-.06013.17307-.08745.03594-.02735.0885-.0497.11678-.0497.05137 0 .06229-.00388.18704-.06619.03652-.01825.11089-.03317.16524-.03317.05739 0 .12986-.01572.17279-.03746.04067-.0206.13074-.0519.20014-.06955.21617-.05498.27997-.03616.20397.06021-.0568.07206-.0538.17509.007.23568.0717.07154.1332.07875.2698.03161.0737-.02543.1705-.04165.2485-.04165.1247 0 .1293-.00186.1893-.07738.0668-.08409.0774-.15163.0332-.21192-.0234-.03186-.0581-.03979-.1993-.04559-.0941-.00385-.1711-.01009-.1711-.01387 0-.0221.1001-.10538.1595-.13272.118-.05435.2465-.09419.3046-.09449.0305-.00016.086-.01301.1233-.02857.0373-.01554.0851-.02377.1062-.01828.0211.0055.0861-.00414.1444-.02141.0584-.01726.1482-.03139.1997-.03139s.1256-.01332.1646-.02959c.0399-.01661.1262-.02877.1968-.0277.0692.00103.1648-.00861.2125-.0214.0477-.0128.0912-.0188.0967-.01332.0055.00549.0337.00002.0628-.01216.029-.01218.1085-.02283.1767-.02368.091-.00116.1335-.01101.1595-.03706.0271-.02715.0531-.03253.1106-.02288.0414.00692.176.01258.299.01256zm1.4513.00732c.0128.00794.168.02654.3447.04133.1768.01478.3752.03167.441.03751.1243.01107.33.06693.3508.09527.0065.00896.0604.02438.1196.03428.2177.03638.3905.07716.5461.12878.0877.02911.2043.05753.2591.06315.0548.00563.1047.01819.1108.0279.0061.00974.0688.02351.1395.0306.0753.00758.1508.02848.1824.05054.0297.0207.1239.05568.2093.07773.0854.02206.2136.06321.2849.09145.0712.02826.1609.05987.1993.07027.0384.01041.1615.06279.2737.11642.1121.05366.2268.09753.2547.09753.0586 0 .1834.04841.2283.08851.0168.01506.071.04219.1203.06029s.1345.05377.1894.07926c.4211.19592.5106.24098.6035.3041.0698.04737.1303.07235.1794.07414.0976.00351.1395.02394.1559.07612.0172.05467.1466.17014.1919.17121.0603.00145.1947.06377.1947.09026 0 .01403.0223.03106.0495.03787.0272.00682.063.03838.0794.07015.0165.03175.0593.07813.0951.10303s.0725.05731.0815.07204c.0091.0147.0639.04765.1218.07318.1132.0499.1661.10812.2721.29948.0845.15256.2527.34775.2996.34775.0603 0 .3234.09199.4381.15317.0629.03354.2098.15627.3531.29493.135.13059.2736.24939.3079.26397.0641.02718.2494.20815.3735.36474.0384.04841.1161.1267.1727.17397.0567.04728.1185.11458.1374.14955.0189.03498.0587.07995.0886.09996.0298.02001.0701.06577.0896.10172.0194.03595.05.08141.068.10104.1079.11772.3208.4176.3208.45198.0001.02241.0477.09441.1058.15998.0581.06558.1624.19764.2317.2935.0694.09584.1608.20165.2032.23516.0615.04852.0771.07412.0771.12608 0 .03587.018.08793.0399.11573.0219.02778.0399.05974.0399.07098 0 .01125.0385.0769.0855.1459.11.16131.2135.34578.2135.38057 0 .01497.0212.05012.0473.0781.0278.0299.0529.08848.061.142.0075.05011.0221.09111.0324.09111s.0187.00948.0187.02108c0 .01161.0348.09471.0773.18469.0424.08999.0839.19416.0922.23148.0216.0983.0851.23861.1409.31154.0266.03481.0484.07519.0484.08974 0 .01454.0179.05983.0399.10061.0219.04079.0398.09528.0398.12111 0 .02582.0263.09602.0584.15599s.0682.16317.0802.22932c.0243.13369.103.36967.1609.48287.0207.0406.0424.0994.048.1308.0057.0314.0191.0973.0298.1465s.0303.1431.0436.2086c.0133.0656.0315.134.0404.152.009.0179.0296.1029.0459.1887.0163.0859.0381.1919.0485.2356.019.0796.0222.0935.0641.2782.0124.0546.0297.118.0383.1409.0087.0228.0119.0866.007.1417-.0053.0606.0032.1344.0216.187.0166.0477.0304.1317.0306.1867.0001.0549.01.1756.022.2682.0119.0927.0234.265.0254.3831.0025.1413.0119.2197.0276.2293.0171.0106.0209.0756.0136.2325-.0113.2404-.0113.2451-.0038.7543.0041.2819-.0043.4271-.0394.6855-.0246.1804-.0447.4073-.0449.5044-.0001.0971-.0086.2089-.0189.2484-.0102.0396-.0336.1434-.052.2309-.0184.0874-.0448.1947-.0587.2384-.0138.0437-.0314.1308-.039.1934-.0076.0627-.0221.1191-.0323.1254s-.0186.0551-.0186.1084c0 .0534-.0089.1026-.0199.1093-.011.0068-.0199.0565-.0199.1105s-.0071.0982-.0157.0982c-.0282 0-.0792.1076-.0941.1987-.008.0492-.0302.1207-.0493.159-.0553.1106-.1193.3106-.149.4658-.0336.1746-.0907.352-.1477.4579-.0234.0435-.0425.0981-.0425.1211 0 .0231-.0179.058-.0397.0777s-.0599.0992-.0847.1768c-.0248.0775-.0832.2079-.1298.2897s-.0847.1612-.0847.1763c0 .0276-.0688.1656-.1106.2218-.0122.0164-.0376.0716-.0565.1226-.0189.0511-.0475.1037-.0635.117-.0161.0133-.0433.0565-.0604.096-.0385.0885-.0431.0965-.1195.2053-.0339.0483-.0767.1317-.095.1854-.0194.0567-.0678.1325-.1155.181-.0452.0459-.1011.115-.1242.1536-.0232.0386-.0723.1213-.1091.1839-.0369.0626-.0772.1243-.0897.1373-.0569.059-.1055.1263-.1417.1961-.0216.0417-.0685.098-.1043.1252s-.0853.0904-.1102.1404-.0811.1293-.1249.1763c-.108.1157-.1865.2134-.2506.3119-.0542.0831-.0963.1274-.4467.4699-.1062.1038-.2392.2451-.2954.314-.0563.0689-.1315.1432-.1672.1652-.0356.022-.0987.0782-.1401.125-.0415.0468-.1337.133-.2049.1915-.0713.0585-.1692.1449-.2176.1919s-.0951.0854-.1039.0854-.0858.063-.1711.14c-.0854.0769-.218.1813-.2947.2319-.0768.0506-.162.1166-.1894.1468-.0274.0301-.0773.071-.1108.0909-.1035.0614-.2555.1606-.3078.2008-.0274.0211-.0812.0543-.1196.0739-.0383.0196-.105.0656-.1481.1023-.043.0366-.098.0666-.1221.0666-.0742 0-.1916.0594-.3002.152-.0614.0522-.2369.1539-.4294.2488-.1791.0883-.3462.1767-.3714.1964-.0252.0198-.1104.0601-.1894.0897-.176.0659-.3527.1454-.3927.1767-.0165.0128-.0963.0341-.1775.0473-.0811.0132-.2195.0551-.3074.093-.088.038-.1761.0691-.1959.0691-.0197 0-.0832.0214-.141.0475-.1451.0655-.253.0977-.3212.0958-.0318-.0009-.0902.0157-.1298.0368-.0396.0212-.1043.0385-.1438.0385-.0394 0-.0778.0061-.0853.0136-.0463.0462-.4126.137-.6538.1622-.1058.0111-.2089.0288-.2292.0393-.0376.0195-.2002.0572-.3259.0755-.0384.0056-.0967.0225-.1295.0376-.0329.015-.154.0372-.2691.0493s-.3259.0356-.4684.0524c-.1426.0168-.3901.0329-.5501.0357-.16.0029-.3017.0119-.3148.0199-.0131.0081-.0375.0035-.0541-.0103-.0177-.0146-.077-.0236-.1436-.0216-.0624.0018-.1673.0037-.233.0041-.0658.0004-.162.0093-.2138.0196-.0607.0122-.1126.0119-.1458-.0007-.0284-.0107-.2168-.0377-.4188-.0599-.3347-.0368-.3799-.0465-.5118-.1095-.134-.0641-.1577-.0689-.3242-.0667-.0987.0013-.2333-.0085-.2991-.0218s-.1959-.0284-.289-.0335c-.0976-.0054-.1822-.0204-.1994-.0353-.063-.0546-.1567-.0878-.306-.1085-.0852-.0118-.1717-.0304-.1922-.0414-.0205-.0109-.076-.0201-.1233-.0205-.0473-.0003-.1035-.0137-.1247-.0298-.0213-.016-.0539-.0292-.0724-.0292-.0184 0-.0447-.0134-.0584-.0298-.0136-.0164-.0458-.0298-.0715-.0298s-.07617-.0125-.11217-.0277c-.036-.0153-.13721-.0476-.22491-.0717-.16422-.0453-.28517-.0898-.45844-.1688-.25015-.114-.58938-.2483-.6283-.2488-.01621-.0002-.06893-.027-.11717-.0596-.04825-.0326-.0994-.0593-.11367-.0593-.02645 0-.28549-.131-.37636-.1904-.02756-.018-.05013-.0459-.05013-.0621 0-.0237.0187-.0268.09751-.016.06303.0086.10229.0057.111-.0084.00744-.012.02159-.0168.03148-.0107.02627.0162.121-.0381.17994-.103.1248-.1376.12705-.1468.12773-.5234.00064-.3585.0104-.4091.0998-.5167.01363-.0164.03-.0575.03638-.0914.0098-.0521.04068-.1299.1213-.306.0075-.0164.02661-.0522.04246-.0795.01586-.0273.02896-.0694.02912-.0935s.02593-.0872.05724-.1401c.03132-.053.06817-.1302.08191-.1717.01371-.0415.06627-.1259.11678-.1878.11844-.1449.16695-.2848.1399-.4035-.03735-.1638.03584-.3758.21812-.632.06675-.0938.09671-.1201.13685-.1201.02829 0 .09297-.03.14377-.0666.13881-.1001.31566-.1907.43066-.2205.2946-.0765.3868-.1232.5369-.2719.0648-.0641.126-.1166.136-.1166.0248 0 .0751-.052.0751-.0776 0-.0114.0257-.034.0571-.0502s.0721-.0608.0904-.0992c.0182-.0384.0441-.0768.0575-.0854.166-.1066.3123-.6297.2578-.9218-.0264-.1414-.1845-.475-.2649-.5589-.0321-.0335-.0584-.0642-.0584-.0682 0-.0325.1667-.3484.1882-.3566.0151-.0058.0389-.039.0529-.0737.0141-.0347.058-.0915.0977-.1261.0398-.0345.0889-.1016.1093-.149.0203-.0474.0655-.1308.1002-.1855.114-.1793.2689-.4442.2695-.4607.0003-.0089.0316-.065.0697-.1246s.0693-.1235.0693-.1419c0-.0185.0128-.0385.0284-.0445.0157-.0059.0464-.0512.0682-.1004.0219-.0493.0853-.1442.141-.2109s.1012-.1376.1012-.1575c0-.02.0147-.0485.0327-.0633.0179-.0148.0493-.0658.0697-.1132.0204-.0475.067-.1326.1037-.1891.0367-.0566.0917-.1475.1223-.2022.0306-.0546.0752-.1217.0992-.149s.0735-.1168.1101-.1987c.0366-.082.0818-.1714.1004-.1987.0187-.0274.0587-.1051.0889-.1729.0302-.0677.0718-.1384.0925-.157.0207-.0187.0376-.0433.0376-.0546 0-.0292.1551-.2869.2261-.3756.0546-.0682.068-.0745.1592-.0745.152 0 .2534-.0685.3388-.2289.0379-.0711.0751-.1624.0827-.2029.0158-.0838.0692-.167.1633-.2545.0811-.0754.1262-.1806.1262-.2944 0-.071-.0076-.0897-.0399-.0981-.022-.0058-.0398-.0272-.0398-.0478 0-.0564-.1768-.2151-.2835-.2545-.0518-.0191-.0989-.0498-.1048-.0681-.0058-.0184-.0105-.1894-.0104-.3801.0003-.7274-.0198-1.373-.0496-1.5912-.0066-.048-.0005-.08.0181-.0954.0198-.0164.0259-.0564.0209-.1365-.0105-.1672-.0296-.2864-.0539-.3365-.0168-.0346-.0136-.0621.0149-.125.0318-.0702.0373-.1484.043-.60144.0036-.28643.0072-.53867.008-.56053.006-.15325-.0288-1.01946-.0419-1.04406-.0089-.01685-.0074-.07193.0034-.12243.0192-.08956.0055-.28479-.0388-.55238-.0099-.06011-.0148-.23895-.0108-.39743.004-.15847.0102-.44909.0137-.64582.0036-.19672.0121-.42826.019-.5145.0069-.08627.0047-.17133-.0048-.18906-.0109-.02035-.0064-.05779.0123-.1015.0163-.0381.0294-.11383.0292-.16825-.0005-.11434.051-.24372.135-.33905.032-.03634.0643-.0868.0717-.11209.0222-.07563.1563-.33416.1734-.33416.0087 0 .0506-.0313.093-.06955.0425-.03825.0896-.06935.1047-.06911.0363.0006.102.05647.1418.1207.0908.14599.4016.2473.5734.18685.0466-.01638.1073-.02979.135-.02979.0276 0 .087-.03008.132-.06685.095-.07767.1533-.22039.1583-.38771.0028-.0926-.0035-.11094-.0527-.15318-.0738-.06337-.1238-.06055-.2063.0116-.0374.03279-.0789.05946-.0923.05928-.0133-.00018-.069-.02687-.1239-.05928-.077-.04554-.124-.05902-.2071-.05927-.1198-.00038-.1599-.03122-.161-.12408-.0005-.04179.0226-.07247.1008-.13413.0558-.04398.1074-.08.1147-.08006.0072-.00008.0606-.04374.1186-.09706.058-.05329.1318-.10215.164-.10857.0358-.00714.1128-.06492.1986-.14894.108-.10569.1568-.173.2122-.29258.0689-.14868.0714-.1617.0585-.30394-.0075-.08173-.0233-.16717-.0352-.18987-.0481-.09152-.2245-.29411-.3032-.34808-.0461-.0316-.0962-.07235-.1113-.09056-.0208-.02495-.0548-.03183-.1384-.02799-.061.00278-.1505-.0062-.1991-.02-.1173-.03332-.2296-.01416-.3731.06369-.2412.13084-.3393.24128-.3703.41694-.0208.11766-.0206.11238-.0092.23299.0127.13469.0611.23103.1351.26918.0574.02961.0813.03054.212.00825.1777-.03029.2325-.06929.2621-.18636.0364-.14434.0287-.20095-.0364-.26583-.085-.08478-.099-.15888-.0387-.2051.0657-.05039.1636-.04725.2268.00728.0651.05617.1294.28748.1325.47631.0017.10925-.0078.15263-.0523.23846-.0569.10971-.2025.31267-.2428.33857-.013.00826-.0334.04489-.0455.08137-.012.03646-.0435.07784-.0699.09192-.0264.01407-.0944.08259-.1511.15226-.0997.12256-.166.16292-.2284.13906-.0219-.00839-.0299-.04267-.0299-.12801 0-.06413-.0168-.16949-.0373-.23413-.0918-.28913-.1068-.33833-.1136-.37336-.004-.02049-.021-.05826-.0379-.08392-.0169-.02567-.0433-.09832-.0587-.16147-.0154-.06313-.0504-.17739-.0778-.2539-.0274-.0765-.0565-.17486-.0646-.21858s-.0173-.0929-.0205-.10929c-.0374-.19248-.046-.33996-.0249-.42849.0321-.13483.0313-.33483-.0015-.37428-.0694-.08336.0735-.10754.5803-.09818.0955.00177.1841.00972.197.01767zm-2.1413.57622c-.0401.03879-.0728.07794-.0728.08702s-.0272.0277-.0603.04141c-.0731.03019-.2345.20454-.2514.27158-.0083.03305.0068.08444.0475.16184.0756.14388.0846.18782.0881.43077.0018.13278-.008.23555-.0298.30975-.0279.09524-.0426.32164-.032.49504.0017.02732-.0126.12568-.0316.21858-.0503.24591-.0487.31627.0081.35536.0256.01766.0703.0556.0992.08429.0289.02868.0721.06222.0961.07452.0958.04922.2818.00996.3803-.0803.03-.0275.0877-.06975.1282-.09387.0406-.02414.0794-.06148.0862-.08296.0141-.04426-.0183-.15848-.0699-.2471-.0191-.03279-.0451-.10222-.0578-.1543-.0246-.10147-.0033-.17465.0681-.23371.0285-.02361.0358-.02271.0521.00642.0209.03722.0676.04493.0866.0143.0067-.01075.0061-.05134-.0012-.09021-.0106-.0562-.0292-.07877-.0907-.11005-.0425-.02164-.0779-.05033-.0785-.06377-.0007-.01345-.001-.13621-.0006-.27283.001-.3651.0202-.55296.0638-.62436.0641-.10472.05-.1936-.0503-.31627-.0483-.05918-.1018-.13439-.1188-.16716-.0289-.05581-.0797-.08358-.154-.08421-.0175-.00016-.0646.03146-.1046.07022zm-5.2552.89487c0 .05351-.07997.14743-.12557.14743-.01523 0-.04395.01788-.06378.03974-.01984.02186-.04694.03974-.0602.03974-.01327 0-.0456.01685-.07187.03744-.02626.0206-.10985.07088-.18577.11173-.0759.04088-.182.10898-.23578.15134-.05376.04237-.10656.07705-.1173.07705-.03698 0-.19819.12262-.33516.25492-.19115.18465-.45053.40423-.52555.4449-.0783.04245-.4957.45909-1.14427 1.14221-.23141.24374-.30396.33247-.30396.37173 0 .02836-.00752.05157-.01669.05157s-.0628.04479-.11917.09951c-.10251.09956-.16313.19081-.16313.24557 0 .01602-.03577.05737-.07949.09191-.05102.04028-.10861.11855-.16079.21856-.04473.08569-.11146.19009-.14829.232-.14816.16857-.21021.25139-.22129.29539-.0166.06599-.05968.0744-.09623.01878-.03516-.05352-.04198-.15955-.01146-.17835.01096-.00676.01993-.03805.01993-.06955s.00915-.06289.02031-.06979c.01116-.00687.04263-.05643.06992-.1101.02729-.05368.07186-.11214.09906-.1299.02721-.01777.08328-.08277.12458-.14443.10012-.14945.17941-.25552.25764-.34471.03552-.04049.08346-.1105.10654-.15559.02306-.04507.1125-.15501.19874-.24432.08623-.08928.18487-.19811.2192-.24183.03432-.04372.09543-.10222.1358-.13.04106-.02826.08108-.0764.09087-.10929.0096-.03233.02563-.07219.03564-.08859.01-.01639.02314-.04427.0292-.06194.00606-.01768.05609-.05319.11118-.07893.06876-.03209.12812-.08222.18927-.15982.04902-.0622.11083-.11851.13738-.12515s.06956-.04545.09559-.08622c.02603-.04078.07313-.09817.10466-.12754.03154-.02937.06801-.06513.08105-.07948.06797-.07474.15075-.14232.28545-.23303.0821-.05528.1986-.14159.2589-.19178.06029-.05018.15896-.12783.21925-.17254.0603-.04471.14551-.11617.18936-.15878.15042-.14617.17956-.16817.26798-.20228.04872-.01882.12944-.06804.17939-.1094.04993-.04137.11037-.08544.13429-.09796.02394-.01252.04919-.04064.05617-.06252.00709-.02229.03015-.03976.0525-.03976.02192 0 .0684-.02144.1033-.04767.08753-.06576.23339-.11237.27772-.08875.01917.01022.03488.04104.03488.06848zm13.3285.1605c.0383.0181.0743.04525.0801.06029.0102.02641.0533.0519.2449.14474.1691.08191.1895.09564.2293.15458.0413.06117.1042.1058.2366.16772.0425.01987.1309.08568.1965.14625.0657.06059.1431.12507.172.14329.118.07434 1.0507.98953 1.0798 1.0595.0133.03193.0475.06389.0809.07549.0319.01107.058.03279.058.04825 0 .03909.1755.19832.2541.23045.0356.01458.0648.03386.0648.04284s.0473.07273.1052.14166c.0579.06894.1274.16875.1545.22183.0287.05623.1054.14659.1838.21651.074.066.1345.1309.1345.14419s.0279.05894.062.10142c.0837.10425.1797.25567.2354.37132.0253.05244.0769.12809.1148.16813s.0739.09793.08.12863c.0062.0307.0191.06064.0286.06653.0519.03195-.0223.14744-.0947.14744-.039 0-.1072-.13645-.1073-.21475 0-.08676-.056-.18623-.1328-.23625-.1393-.09075-.4272-.41445-.5449-.61273-.0383-.06458-.1387-.18923-.2231-.27699-.1488-.15463-.2596-.29481-.3305-.41789-.0188-.03279-.0776-.09985-.1305-.14904-.0847-.0788-.2211-.21308-.3502-.34478-.0625-.06371-.3251-.31337-.3921-.37265-.0321-.02846-.0809-.0766-.1083-.10697-.0274-.03036-.1013-.09341-.1643-.14007-.063-.04668-.1562-.1358-.207-.19806-.0836-.10232-.2743-.24833-.3243-.24833-.0314 0-.195-.09113-.2764-.15404-.0409-.0316-.1026-.06866-.137-.08237s-.1375-.09814-.2292-.18764c-.0916-.0895-.1913-.17845-.2214-.19766-.0302-.01924-.0549-.0437-.0549-.05437 0-.03138.1574-.02226.2331.01353zm-1.6682.29493c-.0136.01639-.0362.02981-.0502.02981-.027 0-.1491.12888-.1491.15742 0 .00932-.0619.06685-.1377.12783-.118.09505-.1396.12235-.1512.19116-.0117.06908-.005.09322.0479.17296.0544.08181.0616.10918.0614.23333-.0002.08406-.0162.19124-.0398.26636-.0335.10653-.0361.13922-.0171.21461.013.05135.0185.17143.013.28418-.0074.15416-.0184.20986-.0524.26464-.0237.03818-.043.09235-.043.1204 0 .02806-.0102.07619-.0227.10695-.0506.12497-.0546.23055-.012.31421.0445.08721.0874.12761.1365.12858.0176.00036.0759.03418.1295.07516.0914.06981.1061.07442.2327.07298.1539-.00174.2366-.0456.2535-.13435.0055-.02869.0235-.06799.0399-.08733.108-.12688.1271-.2317.0606-.33225-.0213-.03229-.0444-.10383-.0513-.15897-.0158-.12769-.0158-.64403.0002-1.05141l.0123-.31524.0774-.13608.0773-.1361-.0505-.10446c-.0778-.16076-.2401-.33106-.3179-.3335-.0124-.00038-.0336.01272-.0473.02911zm-11.23046.3804c-.0934.08352-.17501.16809-.1813.1879-.01473.04626.00787.17523.0397.22655.02077.03349.03385.18421.05689.65576.00105.02186-.00461.09339-.0126.15897-.00799.06557-.02274.25517-.03279.42133-.01006.16614-.02788.31999-.03962.34187-.01174.02185-.02691.09287-.03373.15779-.01136.10838-.00779.12404.04351.19111.08641.11293.21087.18947.30805.18947.10875 0 .14609-.02188.29408-.17236.11461-.11657.12458-.13368.12458-.21396 0-.04801-.00712-.09025-.01581-.09391-.00869-.00364-.03783-.04239-.06478-.0861l-.04897-.07949.0058-.55391c.00666-.63668.0223-.7409.13235-.88173.03913-.05008.07114-.11015.07114-.13352s-.04471-.09121-.09936-.15074c-.05464-.05954-.09948-.12191-.09966-.1386-.0006-.0591-.0601-.11412-.15791-.14602-.05447-.01776-.10368-.03229-.10938-.03229-.00569 0-.08677.06834-.18019.15188zm1.4155.037c-.15764.15577-.17104.17516-.17104.24797 0 .04346.01274.11271.02833.15393.03795.10039.05826.43269.03324.54395-.01102.04899-.02519.21833-.03151.37635-.00634.15799-.01943.30963-.0291.33695-.00969.02733-.0225.10367-.02846.16967-.00598.06599-.02496.15362-.0422.19472-.03004.07169-.02922.07938.02001.18802.04328.0955.06867.12342.16173.17787.13207.07726.18501.07982.31651.01534.05481-.02689.11022-.04917.12312-.0495.07412-.00195.15339-.23045.10879-.31355-.0116-.0216-.02623-.06836-.03251-.10391s-.02456-.096-.04063-.13433c-.0211-.05033-.02884-.1449-.02782-.34049.00151-.29404.02603-.67831.04834-.75766.00767-.02732.01728-.07992.02134-.1169.00407-.03696.02562-.10208.04788-.14469.02228-.04258.0405-.1037.0405-.13582 0-.07922-.14853-.37705-.21521-.4315-.09726-.07945-.14315-.06232-.33131.12358zm13.40556 2.93094c-.0588.02106-.1446.05651-.1907.07877-.0461.02224-.0954.04044-.1097.04044-.0439 0-.2223.10514-.2426.14295-.0106.01967-.0537.0533-.0958.07472-.0946.04813-.102.06657-.1157.28905l-.011.17884.0683.0892c.0966.12626.1822.17845.2987.18204.2198.00678.2623.00306.247-.02164-.0064-.01025.0008-.02589.0158-.03477.0438-.02574.0731-.0969.0736-.17875.0003-.04171.0097-.11577.021-.16459.0265-.11462.0129-.16344-.0716-.25664-.0679-.07497-.0684-.07668-.0301-.11124.0243-.02184.0562-.03096.0845-.02416.0251.00602.1021.02359.1711.03905.1014.02267.1422.04433.212.11259.1189.11634.1311.21006.0602.46157-.0744.26381-.097.30882-.2196.43695-.0604.06311-.1232.14657-.1395.1855-.031.07406-.1579.20857-.2461.26091-.0463.02746-.1398.14029-.2793.33706-.0264.03737-.0589.06798-.072.06798-.0356 0-.0891.1574-.0891.26244 0 .1258.0722.21447.1747.21447.0392 0 .0855-.01222.1028-.02717.0616-.05315.3322-.18569.4005-.19621.052-.00796.0846.00036.1293.03299.0329.024.0919.05848.1312.0766.0877.04052.3792.07035.5279.05403.1005-.01104.1178-.02062.1986-.1103.0932-.10347.1013-.13302.0687-.25024-.0256-.09177-.0666-.10743-.1487-.05685-.1082.06673-.1626.05355-.2807-.068-.1291-.13288-.2271-.16945-.3595-.13413-.1189.03169-.1973.02962-.227-.00603-.034-.04083-.0123-.08491.0616-.12518.0953-.05195.2031-.14463.4874-.41891.1431-.13807.2802-.28384.3046-.32394.0245-.04012.0752-.09105.1128-.11317.128-.07525.1645-.25237.0806-.39018-.0266-.04371-.062-.10879-.0786-.1446-.0375-.08084-.2469-.28263-.2933-.28263-.0401 0-.1567-.06277-.1569-.08445-.0001-.00821-.0175-.01491-.0387-.01491-.0213 0-.1085-.02682-.1939-.05961-.1812-.06957-.201-.0707-.3428-.01985zm-17.11456.55944c-.02192.01252-.08491.0647-.13994.11597-.05505.05126-.10887.09687-.11959.10134-.02781.0116-.15316.24517-.23548.43876-.01706.04012-.06267.11426-.10132.16473-.10865.14192-.13815.21708-.1233.31421.01393.09123.06014.2595.10319.37584.01491.0403.04646.15208.07014.2484.02366.09633.05838.1975.07716.22482s.05129.09238.07225.14458c.07864.1958.27351.30332.54638.30147.18039-.00123.21641-.01854.3901-.1876.13546-.13183.19216-.21998.23695-.36834.01407-.04662.04842-.11476.07632-.15138.05342-.07015.08738-.15066.14401-.34149.02966-.09997.03106-.13272.01019-.23845-.02275-.1152-.10939-.42185-.16941-.59946-.01475-.04372-.03275-.11416-.03996-.15655-.01051-.0616-.0418-.10462-.15625-.21465-.07873-.07567-.16556-.14945-.19296-.16394-.06321-.03342-.39372-.0395-.44848-.00826zm-1.58959.1761c-.09591.09842-.1744.19499-.1744.21459 0 .04638.11196.22226.14145.22226.03568 0 .01165.85284-.028.99392-.01694.06031-.03662.17209-.04369.24839-.00909.09787-.02731.16082-.06185.21372-.05509.08437-.08425.19329-.05176.19329.0115 0 .05718.03801.10151.08445l.08061.08445h.16587c.14726 0 .17273-.00556.22723-.04967.09105-.07371.15752-.29883.10398-.3522-.02965-.02957-.02577-.62839.00732-1.13114.01995-.30288.03185-.38801.05838-.4173.09001-.09943.06386-.19891-.09627-.36628-.09671-.10109-.12262-.11762-.18425-.11756-.06407.00008-.09032.01917-.24613.17908zm-.94464-.0156c.05009.02565.03131.11527-.04421.21101-.03149.03988-.06333.09197-.07074.11573-.00742.02377-.03407.07345-.05922.11039-.02513.03694-.05172.11088-.05908.16431-.00733.05344-.03081.11569-.05216.13835-.04176.04431-.26524.50395-.28611.58845-.00693.02811-.03669.08624-.06611.12916-.02944.04292-.0656.11762-.08035.16601-.01477.04838-.03881.10203-.05342.11922-.01463.01719-.04265.08491-.06231.15049-.01963.06557-.0511.13711-.06994.15897-.04899.05689-.09603.1878-.11176.31101-.00745.05846-.022.11696-.03235.13001-.0241.03043-.07502.22041-.07532.28111-.00014.0256-.01818.0693-.0401.0971-.0243.0308-.03987.0806-.03987.1276 0 .0423-.02691.1796-.0598.3051-.03719.1418-.05979.2774-.05979.3587 0 .0719-.01041.1501-.02314.1738-.03197.0596-.09548.351-.08336.3825.00544.0142-.00046.045-.01311.0687-.01268.0235-.02661.1183-.03096.2106-.00436.0922-.01907.1876-.03267.212-.01379.0247-.03091.1629-.03871.3125-.00769.1476-.02039.3363-.02822.4193-.00851.0901-.00638.1651.00528.1859.03171.0565-.01983.1798-.07514.1798-.098368 0-.120034-.2283-.07919-.8346.03574-.5308.06998-.7755.11604-.8292.02057-.024.02561-.0569.01674-.1093-.01329-.0786.02285-.2807.08894-.4977.02089-.0685.03807-.1624.03821-.2086.00026-.0906.03656-.2396.08619-.3539.017-.0392.03632-.1197.04295-.1789.01999-.1788.1192-.49595.18324-.58581.0573-.0804.10233-.19091.14887-.36546.02173-.08147.06082-.19324.08689-.24839.02607-.05514.05788-.14498.07068-.19962.02358-.10063.09968-.28738.19852-.48713.02982-.06027.06014-.13646.06737-.16932.00724-.03287.05326-.12988.10227-.21563.04902-.08572.08912-.16396.08912-.17381 0-.03641.10985-.22842.17722-.30978.07205-.08701.10544-.09353.20861-.04067zm2.75279.14257c.09817.04444.1288.08336.12962.16464.00036.03487.00895.06853.01909.07477.01033.00638.01166.03537.00301.06576-.00851.02992-.01598.23154-.01664.44804-.00169.5589-.02201.69704-.12976.88177-.06548.11223-.20536.11299-.25216.00135-.03797-.09056-.05497-1.05728-.02225-1.26551.03116-.19827.13483-.43802.17864-.4131.00628.00358.04698.02261.09045.04228zm19.1635.03331c.0825.05009.14.11587.1408.16114.0004.01848.01.03934.0215.04637.0114.00704.0418.04611.0676.08682.0528.08342.2505.52784.2505.5632 0 .01261.0207.04578.046.0737.0254.02792.0764.14466.1133.25942.037.11476.0782.22653.0917.24839s.0447.12022.0695.21858c.0441.17539.0969.30855.1615.40737.0362.05552.082.20801.1163.38745.0126.0656.0389.1553.0586.1993.0336.0749.0541.1601.1029.4267.0109.0601.0329.1495.0487.1987s.0288.1054.0287.1249.0126.0553.0281.0795c.0156.0242.0344.1066.0417.1831.0074.0765.0274.1972.0444.2683.0423.1767.0649.3365.0759.5365.0051.0929.0178.2136.0282.2682.0488.2555.0596.3606.069.6701l.0101.3323-.0794.0237c-.1342.0401-.1489-.0061-.1687-.5293-.0062-.1639-.0194-.3472-.0294-.4073s-.0333-.2479-.0517-.4173c-.0185-.1694-.0465-.3572-.0622-.4173-.0158-.0601-.033-.1496-.0383-.1987-.0053-.0492-.0221-.1342-.0374-.1888-.031-.1112-.0804-.3511-.1002-.4869-.0072-.0492-.0295-.1252-.0497-.1689-.0355-.0771-.0589-.1568-.07-.2384-.003-.0219-.0189-.08-.0353-.1292-.0486-.1452-.1091-.38079-.1226-.47691-.0068-.04918-.042-.14754-.0781-.21859-.0361-.07104-.0819-.18208-.1017-.24676s-.0705-.17826-.1127-.25242c-.0421-.07416-.0986-.2105-.1255-.303-.0561-.19315-.1425-.37308-.2531-.52746-.0424-.05916-.0771-.12176-.0771-.1391 0-.01735-.0258-.08072-.0572-.14083-.1032-.19738-.1252-.31806-.058-.31786.014.00004.056.01862.0933.04129zm-21.73638 4.66264c-.26644.1515-.34888.2192-.6056.4978-.31567.3426-.32731.3631-.26921.4742.01637.0313.02982.082.0299.1128.00014.0675.02492.1168.11284.2243.03667.0449.06667.0901.06667.1006 0 .0314.10163.1142.23564.1919.0693.0402.13336.0731.14237.0731.00899 0 .02095.0119.02655.0265.00562.0145.06711.045.13668.0677.10978.0357.15501.0395.34253.0281.19972-.012.21884-.0168.25328-.0627.02047-.0273.05623-.0742.07943-.1043.0232-.03.03915-.0702.0354-.0894-.00598-.0307-.03329-.0348-.23315-.0348h-.22637l-.09721-.1081c-.05345-.0595-.09727-.1176-.09738-.1292-.0001-.0116-.02339-.0702-.05173-.1303-.02836-.0602-.05455-.1317-.05822-.159s-.01439-.081-.02386-.1192c-.03855-.156.03626-.3226.2298-.5118l.14748-.1441.13249.021c.07289.0115.13534.0289.13878.0387.00345.0097.01724.0135.03068.0083.06259-.0239.27199.2241.27199.3222 0 .0187.01467.0502.03261.0699.02635.0291.03303.0851.03488.2928.0021.2356-.00137.2619-.04163.3163-.04553.0616-.06965.2245-.03495.2361.16823.0562.20158.1264.16945.3567-.01146.0821-.02083.1844-.02083.2273 0 .043-.00744.0781-.01655.0781-.00908 0-.06962.0469-.13454.1043-.0649.0574-.14536.1194-.17881.1379-.14333.0791-.43843.0606-.52665-.033-.03994-.0424-.04319-.0599-.03079-.1663.01606-.1381-.01742-.2311-.11168-.3102-.04467-.0374-.07241-.0457-.12466-.0373-.03932.0064-.07285.0017-.08086-.0112-.02119-.0342-.12456-.0261-.2078.0162-.10936.0557-.12965.0876-.11476.1804.01038.0648.00534.0857-.02737.1136-.07118.0608-.03719.1702.08642.2784.03782.0331.08396.0834.10254.1116.04082.0621.18995.1502.29914.1766.1982.048.31515.0426.60793-.0278.04933-.0119.13354-.0291.18712-.0382.18041-.0307.43901-.2362.51447-.4088.03155-.0722.11322-.2037.15868-.2557.07447-.085.23524-.525.2358-.6453.00046-.0974-.07226-.3487-.13514-.4669-.05192-.0977-.0996-.1933-.20181-.4047-.03945-.0815-.0772-.1235-.16098-.1788-.06019-.0398-.13195-.0962-.15945-.1254-.02751-.0293-.12071-.0852-.20712-.1243-.14158-.0641-.17897-.0721-.37871-.0815-.18856-.0089-.23087-.0052-.28373.0249zm20.41328.0888c-.0505.0313-.0966.0723-.1025.0911s-.0234.058-.039.087c-.0341.0635-.0373.2537-.0053.3236.0272.0596.1979.1502.2828.1502.0942 0 .2965-.0806.3669-.1461.0433-.0404.0648-.0789.0648-.1161 0-.0759.0336-.0701.0732.0127.0478.1.1764.1502.3845.1502.2044 0 .214.0186.0914.1776-.1131.1465-.1519.2342-.1294.293.0208.0546.0882.0917.1381.0759.0281-.0089.0457.0025.0672.0436.016.0307.0576.0825.0924.1153.0347.0328.0759.0898.0914.1266.0355.0841.0374.4337.003.559-.0326.1188-.1844.3718-.2321.3869-.0208.0066-.0427.0246-.0487.04-.0235.0613-.1375.0961-.3118.0952-.1471-.0007-.1884-.0094-.3139-.0655-.148-.0661-.1695-.0934-.1114-.1412.0182-.015.0501-.0631.0709-.1068s.0564-.1091.0791-.1454l.0414-.0659-.0544-.1382c-.08-.2033-.2248-.3008-.3835-.2581-.0941.0252-.2451.1492-.2451.2011 0 .0207-.026.0641-.0578.0965-.0699.0712-.077.1726-.0199.2841.0208.0407.0379.0902.0379.1099 0 .0198.0242.0716.0538.1151.1091.1602.1659.1884.5641.2803.3517.0812.6924.0785.8322-.0067.1493-.0911.4833-.4074.4833-.4578 0-.0136.0112-.0249.0249-.025.0394-.0002.185-.16.2339-.2567.0397-.0784.0424-.0999.0243-.1987-.0366-.2008-.0438-.2189-.149-.3725-.1062-.1551-.1162-.1629-.4032-.3145-.1146-.0606-.1894-.1246-.1894-.1622 0-.0259.1039-.2082.151-.2651.0136-.0163.0665-.1102.1175-.2086.0996-.192.1084-.2729.0383-.3502-.0432-.0475-.0444-.0474-.1816.0155-.1931.0886-.3406.0849-.5537-.0137-.1022-.0473-.2189-.0622-.5319-.0678-.2474-.0045-.2549-.0034-.3447.0524zm-22.18097 1.4319c.01033.0137.02065.206.02294.4274s.01286.4255.02352.4534c.01065.0279.01936.0849.01936.1267 0 .0417.01208.1045.02685.1396.01997.0473.0221.0897.00833.1653-.01021.0559-.01439.1423-.00933.192.02374.2322.03506.3096.05372.3666.01108.0338.03922.1196.06254.1906.02334.0711.04519.1892.04856.2626.00669.1458.04036.279.13207.5223.03295.0875.06284.1814.06643.2087s.02053.0944.03767.149c.01715.0547.03126.1434.03138.1972.00014.0594.01212.1109.03059.1312.01669.0184.04415.0996.061.1804.02023.097.04668.1639.07785.1967.02595.0273.05362.0765.06145.1093.01997.0834.27981.6352.31939.6783.01204.0131.03345.0651.04758.1154.01415.0504.03347.0963.04292.1022.00946.0058.0172.0317.0172.0575 0 .0259.02091.0723.04644.1032.08948.1082.23522.3499.2421.4015.0038.0286.01722.0786.02979.1111.01902.0491.01749.0629-.00912.0824-.05035.0366-.10283.011-.20473-.1003-.06069-.0662-.10299-.135-.11822-.1921-.01303-.0489-.05114-.1233-.08471-.1654-.03354-.0421-.06121-.0865-.06145-.0987-.00024-.0121-.03147-.0802-.06944-.1513-.10919-.2043-.12944-.2533-.12944-.3128 0-.0308-.02996-.1182-.06659-.1944-.03662-.0762-.07838-.1742-.09279-.2178-.01443-.0436-.04716-.124-.07275-.1788s-.04662-.1267-.04672-.1598c-.00012-.0331-.01551-.082-.03423-.1086-.01869-.0266-.04056-.089-.04857-.1385-.02838-.1757-.05065-.2507-.11322-.3812-.03482-.0726-.0637-.1575-.06418-.1887-.00047-.0313-.01447-.0926-.03107-.1363-.04162-.1095-.10706-.3677-.10734-.4236-.00014-.0253-.01118-.0655-.02453-.0894-.01338-.0239-.03084-.1015-.03881-.1726-.00797-.071-.02362-.1828-.03478-.2483-.01114-.0656-.02866-.1774-.03895-.2484-.01028-.0711-.02386-.1426-.03016-.159-.00628-.0164-.02037-.1103-.03131-.2087-.01092-.0983-.03283-.2587-.04867-.3564-.01587-.0976-.02956-.2658-.03042-.3736-.00088-.1078-.01166-.2358-.023939-.2845-.012298-.0487-.018378-.1434-.013494-.2106.007016-.0968.018297-.1297.054413-.1589.0532-.0429.08862-.0466.11487-.0119zm25.09927.1226c.0472.0567.0209.7047-.0505 1.2435-.0166.1257-.0339.2599-.0383.2981-.0163.1414-.0709.4098-.099.4869-.0159.0437-.0476.2351-.0704.4254s-.0505.3629-.0617.3836c-.0304.0567-.0769.2184-.0772.2684-.0001.0243-.0216.0913-.0477.149s-.067.1631-.0907.2341c-.0238.071-.0572.1694-.0743.2186-.017.0492-.0518.1688-.0772.2658s-.0559.186-.0676.1977c-.0118.0117-.0214.0458-.0214.0758s-.008.0594-.0177.0654c-.0098.006-.0239.0356-.0315.0658-.0114.0455-.2092.469-.3227.6907-.0168.0328-.0419.0819-.0558.1093-.014.0273-.0761.1535-.1381.2804-.1317.2697-.1684.3118-.247.2837-.0492-.0175-.0541-.0283-.0529-.1151.0011-.0761.0264-.1451.1236-.337.0673-.1326.1411-.2886.1641-.3465s.0593-.1228.0807-.1441.0389-.0584.0389-.0824.0227-.0763.0504-.1162c.03-.0432.0586-.1228.0705-.1968.0194-.1201.0587-.2171.2196-.5422.0419-.0845.0822-.1873.0896-.2285.0075-.0412.0226-.0862.0336-.1.0547-.0687.1419-.3586.143-.4756.0007-.0705.0118-.1338.0261-.1481.0137-.0136.0249-.0555.0249-.093 0-.0834.0378-.2212.0718-.2617.0448-.0533.0719-.1454.0991-.3378.0147-.1038.0356-.2335.0464-.2881.0107-.0547.0202-.1485.021-.2087.0007-.0601.0141-.1571.0297-.2155.0157-.0585.0379-.2418.0495-.4074s.026-.3681.0319-.4501.0171-.2549.025-.3842c.0122-.1999.0201-.2393.053-.2633.0496-.0361.1193-.036.1493.0001zm-21.89244 3.3646c-.0958.0049-.1545.019-.19243.0459-.03004.0213-.06549.0388-.07879.0388-.01331 0-.0532.0245-.08866.0546s-.09047.0701-.12222.089c-.20947.1245-.36671.2937-.36671.3947 0 .0321-.01029.0747-.02285.0948-.01257.0201-.0172.0589-.01028.0864.02234.0887.16952.2878.23181.3135.06267.0259.23982.2251.23982.2697 0 .0146-.07789.0829-.17307.1518-.24443.1768-.40454.3491-.45128.4853-.03195.0931-.01788.1271.10217.2468.04602.0458.08368.096.08368.1115 0 .0534.06232.1229.13685.1526.04108.0164.08649.044.10092.0613s.03496.0315.04562.0315c.01067 0 .04563.0186.07766.0413.03205.0228.12314.0621.20241.0873.07927.0253.18216.0613.22864.08.07536.0303.10989.0315.3188.0112.28255-.0275.42234-.0653.48419-.131.02547-.027.0633-.0491.08409-.0491.06484 0 .43363-.4258.43363-.5007 0-.0108.01558-.046.03464-.0782.03384-.0571.03339-.0608-.02073-.162-.05701-.1067-.14114-.2125-.33466-.4208-.13702-.1475-.15049-.1798-.09386-.2249.19669-.1565.32748-.3105.37028-.4358.02669-.0782-.01392-.2026-.0959-.2939-.02944-.0328-.07046-.0891-.09113-.1252-.0457-.0798-.35732-.3134-.47179-.3536-.04557-.016-.10584-.0241-.13398-.018-.02913.0064-.07914-.0027-.11611-.0211-.07654-.038-.12581-.0434-.31076-.0337zm18.71804.1053c-.1182.0407-.1378.0591-.2449.2304-.0503.0805-.0988.1464-.1077.1464s-.0237.0215-.0329.0479c-.0091.0263-.0682.1024-.1312.1692-.063.0667-.1146.135-.1146.1516 0 .0167-.0382.0725-.0849.1239-.1067.1176-.2141.2556-.2141.275 0 .0082-.0402.0659-.0894.1283-.1022.1297-.1195.1681-.1386.307-.0174.1269.0014.1449.228.2178.1434.0462.2124.0558.4485.0625.3789.0106.4404.0551.35.2529-.0479.105-.0493.1191-.0163.1718.0197.0314.0197.0475 0 .0789-.0359.0574-.0317.0753.0388.164.0725.0912.1598.1344.2721.1344.0719 0 .0865-.0105.1945-.1398.0643-.0769.1234-.1516.1315-.1659.0084-.015-.0149-.0876-.0544-.1699-.0485-.1008-.0691-.1714-.0691-.2367 0-.0544-.0162-.1232-.0389-.1655-.0387-.072-.0387-.0729.0009-.1547.0313-.0645.042-.1369.0495-.3347.0052-.1388.0195-.2773.0316-.3077.0127-.0317.0172-.1028.0106-.1666-.0075-.0729-.0016-.1404.0172-.1956.0158-.0464.0275-.1056.026-.1315s.0065-.0697.0178-.0974c.0211-.0516.0063-.2873-.0207-.3305-.008-.0127-.054-.0422-.1023-.0655-.1002-.0484-.2165-.0483-.357 0zm-18.3134.2853c.0651.0587.09713.1522.11214.3272.01319.1536.01006.1766-.0415.3042-.03919.0971-.07726.1551-.1281.1953-.06632.0523-.07937.0555-.15707.0381-.0466-.0104-.09246-.0142-.10189-.0084-.02723.0168-.12601-.0348-.16965-.0886-.02192-.027-.05644-.1026-.07669-.168-.03656-.118-.0365-.1202.00761-.2888.04927-.1882.06388-.2222.13319-.309l.04761-.0596.16751.0111c.12117.008.17842.0209.20684.0465zm18.2744.7373c-.006.2077-.0201.4013-.0313.4302-.0246.0637-.1362.1064-.2286.0876-.0348-.0071-.1233-.0226-.1967-.0345-.1005-.0163-.1457-.0345-.1836-.0739-.0493-.0514-.0497-.0541-.0198-.1415.0168-.049.048-.1069.0694-.1288s.0876-.1023.1471-.1788c.0595-.0766.1692-.1988.2438-.2717.1291-.1263.1374-.1311.1731-.0994.035.031.0368.0584.0266.4108zm-18.32686.3987c.1126.0384.22617.1595.24877.2653.00839.0392.01525.1785.01525.3097 0 .2642-.01772.3202-.13576.4289-.06278.0578-.06563.0584-.23069.0457-.09193-.007-.19059-.025-.21926-.0399-.02866-.0149-.06673-.0271-.08461-.0272-.0348-.0001-.17058-.1701-.21443-.2684-.05972-.1339-.04034-.2503.07604-.4571.03076-.0546.06237-.1285.07022-.1643.03006-.1365.23116-.1758.47447-.0927zm19.09576.0943c-.1005.0684-.1193.119-.0682.1839.0234.0295.0425.0713.0425.0927s.0168.0433.0373.0486c.0205.0054.0567.0359.0803.0677.0237.0319.0588.058.078.058.0193 0 .0873-.0535.1512-.1189.142-.1454.1399-.1766-.0199-.2947-.1296-.0957-.202-.1047-.3012-.0373zm.5716 1.2546.0424.0685-.0434.0855c-.0239.047-.0867.1481-.1395.2246s-.1109.1749-.129.2186c-.0182.0437-.05.0955-.0708.115-.0208.0196-.0378.0517-.0378.0715 0 .0199-.053.0782-.1196.1315-.0658.0526-.1196.106-.1196.1187s-.03.0583-.0668.1012c-.0368.043-.0817.1069-.0999.1421-.041.0795-.1015.1374-.192.184-.0531.0273-.0886.0723-.1481.1877-.0501.097-.1415.2214-.2533.3449-.2103.2321-.4595.4808-.4819.4811-.009.0001-.1029.0851-.2088.189s-.2062.1939-.223.2001c-.0167.0062-.0662.0552-.1101.109-.0475.0583-.1251.1215-.1921.1567-.0618.0325-.2048.1405-.3179.2401-.113.0996-.2356.1936-.2725.209-.0369.0153-.1136.0767-.1705.1362-.0795.0833-.1218.1116-.1831.1224-.0728.0128-.1105.0382-.2363.1592-.1702.1636-.3343.2095-.3861.1079-.0227-.0444-.0203-.0539.0223-.0894.0262-.0219.0937-.0666.1501-.0994.2146-.1249.3409-.2131.4238-.2961.0473-.0473.1257-.1106.1742-.1408.0485-.0301.1445-.1007.2133-.1567s.1748-.1403.2357-.1873c.0608-.0469.1109-.0961.1112-.1093.0011-.0398.0764-.1173.0999-.1028.0258.0159.1187-.065.1187-.1034 0-.0146.0216-.0263.0487-.0263.0346 0 .1075-.0566.2511-.1948.1948-.1873.2034-.1992.2261-.3126.0214-.1062.0289-.1182.0762-.1218.0319-.0025.0571.008.0643.0269.0154.0398.1479-.0719.408-.3441.0617-.0645.1323-.1455.157-.1801s.0896-.0956.1443-.1356c.056-.041.1049-.0945.112-.1226.0069-.0275.0421-.0885.0782-.1358.0362-.0472.0687-.1149.0721-.1504.0051-.0509.0222-.0734.0811-.1061.0671-.0374.232-.2332.2336-.2775.0004-.0098.0391-.0635.0861-.1193.0782-.0928.1308-.1639.1837-.248.1345-.2141.2983-.4397.3192-.4397.0145 0 .0454.0308.0688.0685zm-21.20598.1153c.05738.0684.1173.155.13316.1927.03895.0924.18121.2991.20584.2991.01088 0 .02563.0157.03275.0348s.02725.0482.04473.0646c.06549.0614.22013.2535.22013.2734 0 .0114.05085.067.11301.1237.10531.0959.18597.2091.18597.2608 0 .0123.09755.1174.21678.2336.12297.1199.25246.2683.29919.343.04532.0724.11594.1541.15694.1817.07847.0527.17965.1457.26526.244.02814.0322.10094.1034.16175.158.06081.0547.1768.1593.25776.2326.16606.1503.37479.3139.40044.3139.00939 0 .04415.0308.07726.0683.03308.0376.09097.0785.1286.0909s.08599.0471.10745.0771c.02147.0301.07523.0709.1195.0908.04425.0199.08542.0519.09152.071.0061.0192.07134.0664.14497.1051.07363.0386.16077.0983.19366.1327.03289.0343.13444.0998.22567.1455.09123.0456.18306.0989.20407.1183.0776.0718.07138.194-.01068.21-.03851.0076-.19725-.0672-.23241-.1095-.01216-.0146-.03465-.0265-.04995-.0265-.02879 0-.13911-.0671-.22639-.1377-.02741-.0221-.06508-.0405-.08372-.0407-.01864-.0003-.04106-.0116-.04983-.0253-.02354-.0367-.27345-.2527-.38511-.3328-.05328-.0383-.15009-.1143-.21515-.1689-.06505-.0547-.16874-.1349-.23041-.1783s-.11212-.0842-.11212-.0906c0-.0286-.08631-.1005-.10979-.0915-.02547.0097-.23952-.1911-.43835-.4112-.05481-.0607-.15064-.1379-.21293-.1716-.06627-.0358-.11591-.0769-.11959-.0989-.00349-.0206-.11844-.1533-.25547-.2947-.13704-.1415-.28055-.2993-.31892-.3507-.07441-.0998-.1538-.1913-.27702-.3195-.04201-.0438-.0996-.1287-.128-.1888-.03151-.0668-.08686-.1387-.1422-.1848-.04983-.0416-.09061-.0843-.09061-.0949 0-.0107-.02828-.0504-.06286-.0883-.06835-.0749-.0786-.0906-.16351-.2502-.03133-.0589-.07698-.1295-.10143-.1568-.06901-.0771-.1705-.2721-.1705-.3276 0-.0396.01-.05.04809-.05.03461 0 .07742.0349.15245.1242zm16.73188.7229c-.0503.0278-.1287.0334-.4913.0351-.4887.0024-.4762-.0014-.5502.1661-.023.0519-.0657.1728-.095.2686s-.0793.2279-.1112.2934c-.0324.0667-.0579.1519-.0578.1934.0003.2132.0909.3123.269.2942.2132-.0216.2999-.0363.3225-.0546.016-.0129.0369-.0058.0648.022.0227.0226.0502.0411.0612.0411.0447 0 .0996.0817.0996.1483 0 .0559.0127.0774.067.1143.1546.1049.1974.2032.1971.4528-.0001.1064-.0111.1496-.0623.2454-.0343.064-.0623.1272-.0623.1406 0 .0951-.241.1694-.4256.1312-.1359-.0281-.1765-.081-.1339-.1742.0136-.0299.0286-.105.0333-.1669.014-.1875-.1029-.3748-.234-.3748-.0561 0-.2032.0589-.2587.1037-.0795.0641-.1371.1798-.1371.2753 0 .13.0229.1807.1434.3172.1554.176.3824.2765.6937.3069.1076.0105.1532.0044.2691-.0357.2566-.0889.3642-.1513.4792-.278.0598-.066.1088-.1271.1088-.1359s.0262-.0295.0582-.046.0872-.0726.1227-.1247c.0551-.081.065-.1139.0681-.2269.0037-.1353-.0028-.1549-.1248-.3731-.0249-.0445-.0586-.0809-.0748-.0809-.0193 0-.0295-.0201-.0295-.0587 0-.0471-.0175-.0707-.0889-.1196-.0489-.0336-.096-.0725-.1047-.0865-.0197-.032-.2347-.1525-.272-.1525-.0153 0-.0389-.0134-.0526-.0298-.0136-.0164-.041-.0298-.0608-.0298s-.0502-.0141-.0675-.0314c-.0204-.0204-.084-.0353-.1818-.0427-.235-.0177-.3005-.1007-.2131-.2702l.0349-.0677.2998-.0137c.1996-.0091.3187-.0065.3565.0078.0451.0171.0656.0152.0989-.0091.0231-.0168.0713-.0506.107-.0751.0809-.0553.1375-.1701.1547-.3133.0108-.0904.0066-.1175-.0235-.1531-.0508-.0599-.1244-.0722-.1961-.0325zm-6.11 1.6164c-.1277.0414-.2305.1061-.3611.2272-.051.0473-.1289.1118-.1732.1433-.0543.0388-.1038.1023-.1526.1964-.0397.0765-.0996.1883-.133.2484-.1742.313-.2247.4777-.2253.7352-.0004.2105.0314.2976.1616.4422.0369.0411.0671.088.0671.1043s.0301.0633.0668.1043c.0368.041.0794.1008.0947.1329.0319.0668.2546.2263.3397.2433.0313.0062.0569.0183.0569.0269 0 .0318.3627.0987.5347.0987.1626 0 .1827-.0049.3366-.0816.1147-.0572.1913-.1122.2558-.1838.0506-.0562.1264-.138.1684-.1817.0419-.0437.0827-.1019.0906-.1292.0078-.0273.0367-.0883.0642-.1354.0424-.0727.0482-.1022.0387-.1941-.0132-.1279-.0628-.2154-.2096-.37-.0841-.0886-.1407-.1269-.2599-.1761-.0839-.0346-.1633-.0716-.1766-.0823-.0474-.0381-.3623-.0935-.4865-.0855-.0979.0063-.1334.0181-.1758.0587-.0293.0279-.0646.0508-.0785.0508s-.0643.0228-.112.0507l-.0869.0507-.0334-.0702c-.027-.0567-.0291-.0823-.0114-.1332.0121-.0346.022-.0977.022-.1402 0-.0426.0167-.1105.0371-.1511.0203-.0405.0424-.0962.049-.1236s.0719-.1151.1452-.1948c.1173-.1275.1407-.1442.1952-.1389.0534.0052.0623.0142.0647.0656.0085.1773.0789.3028.2179.3884.0847.0522.24.0517.3075-.0009.0274-.0213.0588-.0398.0697-.0409.011-.0012.0495-.0365.0857-.0784l.0657-.0763-.0267-.1317c-.0359-.177-.139-.2988-.3271-.3866-.1177-.0549-.1768-.073-.3557-.1091-.0219-.0045-.0895.008-.1502.0276zm.3317 1.4532c.1088.1065.1645.2651.1813.5167.0137.204-.0317.3885-.102.4147-.2135.0797-.2896.0595-.5095-.1349-.1693-.1498-.17-.1507-.2134-.3104-.0239-.0881-.0441-.1816-.0448-.2077-.002-.0705.0797-.2198.1481-.2711.0841-.063.2421-.1077.3552-.1005.0828.0053.1084.0182.1851.0932zm5.6435.4777c.0437.1028-.0791.2693-.224.3037-.0329.0078-.1719.062-.309.1204-.137.0584-.285.118-.3289.1325-.0438.0145-.1244.057-.1791.0946-.0546.0375-.1382.0755-.1857.0843-.0476.0089-.1094.0342-.1376.0562-.0281.0221-.0745.0402-.1032.0403-.0672.0003-.21.0452-.3105.0977-.0434.0226-.0884.0412-.0999.0412-.0116 0-.0792.0289-.1503.0644-.1011.0503-.1574.0651-.2588.068-.0713.002-.1351.0044-.1418.0052s-.0451.0276-.0854.0595c-.0402.0319-.111.0642-.1572.0719-.0462.0076-.1064.0253-.1338.0393-.0274.0139-.1037.0346-.1695.046-.1487.0257-.3337.0684-.4385.1012-.1686.0528-.2039.0611-.2605.0614-.0321.0001-.1032.014-.158.0309-.0553.017-.2153.0358-.3588.0422-.1425.0063-.2685.0188-.2801.0278-.0115.009-.0608.0224-.1096.0299-.0488.0074-.1066.023-.1286.0346-.0219.0116-.1833.0278-.3587.036-.1754.0083-.3958.0211-.4897.0285l-.1706.0135-.0636-.08c-.0349-.044-.0635-.0901-.0635-.1024 0-.0359.0992-.0659.2392-.0724.0713-.0033.2148-.0104.3189-.0158.1042-.0054.2959-.0151.4261-.0216.1301-.0065.2454-.0172.2562-.0238.0108-.0067.0602-.0113.1098-.0103.0498.001.1088-.0112.1318-.0273.0253-.0177.089-.0293.1619-.0294.0661-.0002.1605-.0149.2098-.0328.0494-.0178.1615-.0392.2492-.0474s.1819-.0194.2093-.025c.0274-.0055.0971-.0196.155-.0314.0578-.0117.1223-.0304.1432-.0416.0209-.0111.0588-.0204.0842-.0206.0253-.0001.082-.0132.1258-.0289.0439-.0158.1072-.029.1408-.0295s.1402-.0411.2369-.0903c.0966-.0492.1934-.0894.2149-.0894.0581 0 .2579-.061.3089-.0943.0245-.0159.0738-.0363.1096-.0453.0359-.009.1415-.0428.2347-.0751.0932-.0324.2177-.07.2767-.0836.059-.0137.1238-.0414.144-.0615.0202-.0202.0616-.0426.0921-.0499.0304-.0073.0956-.0423.145-.0778.0493-.0355.1704-.0927.269-.1271.0987-.0344.2318-.089.2958-.1214.0639-.0324.1299-.0589.1466-.0589.0166 0 .0566-.0221.0889-.0491.0322-.0271.0918-.0585.1324-.0699s.0913-.034.1126-.0503c.0423-.0321.052-.0261.0856.0529zm-11.82455.0369c.05482.0325.11888.0591.14238.0593s.04744.0126.05322.0277c.00578.015.04487.0336.08684.0414.042.0077.10542.0319.14094.0537.03554.0217.0896.0369.12011.0337.0612-.0064.12634.0329.2437.1469.04632.045.08845.07.10637.0631.03227-.0123.12797.0312.22265.1013.03288.0244.09567.0507.13952.0584.04385.0079.0887.0212.09966.0297s.11188.0442.22424.0794c.11236.0351.2043.0714.2043.0805s.03813.0297.08472.0457c.07691.0266.13926.0414.3837.0912.0438.009.1271.0354.1851.0589.058.0234.1488.0426.2019.0426.0775 0 .1022.0086.1259.0441.0229.0345.0496.0445.122.0459.0636.0012.1006.0126.118.0364.0322.0438.1322.0701.3777.0991.1262.0149.205.034.2256.0547.0261.0262.0496.0286.1331.0134.0758-.0137.1366-.0104.2404.0129.0763.0172.2028.032.2809.033.1378.0016.2071.0095.5008.0569.1316.0212.1411.0201.1669-.0181.0328-.0486.1334-.0545.1821-.0106.0182.0165.0834.0334.1447.0378.1289.009.1455.0164.1599.0712.0194.0742-.047.1256-.1671.1291-.0592.0018-.1318.0101-.1611.0184-.0299.0086-.0691.0065-.0892-.0047-.0228-.0128-.0486-.0132-.071-.0012-.0246.0131-.0495.0094-.0827-.0123-.034-.0222-.0708-.0273-.1297-.0179-.046.0073-.0931.0044-.1071-.0067-.0138-.0109-.0654-.025-.1147-.0313-.3974-.0506-.5599-.0798-.6327-.1135-.0647-.03-.1272-.0392-.267-.0392-.1785 0-.1844-.0015-.2663-.0684-.0792-.0647-.0898-.0678-.196-.0569-.0691.0071-.1224.0032-.1386-.0102-.0144-.0119-.0661-.0278-.1149-.0352-.0488-.0075-.1058-.0224-.1268-.0331-.0209-.0107-.0926-.0224-.1594-.0259s-.1573-.0167-.2012-.0294c-.0438-.0126-.129-.0296-.1893-.0377s-.18445-.0475-.27588-.0875c-.09141-.04-.19691-.0727-.23446-.0727-.03756 0-.08386-.0075-.10289-.0167-.01904-.0092-.07945-.0394-.13427-.0673-.05481-.0278-.18487-.0793-.28901-.1145-.20267-.0686-.28491-.1014-.40425-.1612-.04144-.0208-.08959-.0378-.10699-.0378s-.06116-.0258-.09723-.0574c-.03608-.0315-.1135-.0728-.17206-.0915-.09982-.0321-.49511-.2485-.54995-.3012-.03637-.0349-.03043-.1209.00997-.1444.04694-.0273.04166-.0286.15447.0381z" fill="#214434" fill-rule="evenodd"/></svg>