<svg width="100%" height="100%" viewBox="0 0 264 300" fill="none" xmlns="http://www.w3.org/2000/svg">
<g clip-path="url(#clip0_1668_13399)">
<path d="M108.533 155.997C109.003 155.798 109.482 155.609 109.949 155.399C110.714 155.06 111.497 154.934 112.164 155.53C112.832 156.126 112.866 156.931 112.601 157.718C111.921 159.745 110.966 161.67 109.76 163.437C100.887 176.375 92.9434 189.886 84.9003 203.344C81.1323 209.658 78.1658 216.356 75.1782 223.053C74.9119 223.65 74.5982 224.225 74.2401 224.772C74.082 225.037 73.8365 225.239 73.5455 225.343C73.2545 225.448 72.9361 225.448 72.6451 225.343C71.9251 225.134 71.5284 224.638 71.581 223.893C71.617 223.24 71.7254 222.593 71.9042 221.965C74.5318 213.47 76.8046 204.852 79.8763 196.518C83.2922 187.257 87.6042 178.33 93.7239 170.486C96.2884 167.196 99.4836 164.397 102.395 161.367C102.842 160.897 103.246 160.386 103.898 159.633C102.409 159.923 101.02 160.592 99.8646 161.574C87.5936 171.483 76.0479 182.105 66.0761 194.416C58.4852 203.845 51.6232 213.835 45.5492 224.302C45.3732 224.601 45.1787 224.895 44.979 225.181C44.1908 226.33 43.3184 226.634 42.467 226.075C41.6157 225.517 41.5447 224.53 42.2726 223.415C42.8717 222.502 43.4839 221.6 44.0909 220.692C47.5068 215.591 50.9227 210.488 54.3386 205.385C62.8483 192.655 72.9784 181.082 84.4746 170.958C89.9374 166.121 95.3162 161.176 101.312 156.973C103.275 155.598 105.254 154.252 107.054 152.652C107.433 152.277 107.944 152.063 108.478 152.057C109.061 152.075 109.631 152.201 109.936 152.762C110.241 153.324 110.002 153.788 109.673 154.218C109.253 154.769 108.801 155.294 108.36 155.829L108.533 155.997ZM81.5501 203.102C82.2386 202.053 82.9585 201.038 83.6128 199.973C89.1307 190.977 94.2783 181.748 100.012 172.878C102.027 169.764 104.016 166.635 106.018 163.513C106.181 163.251 106.463 162.988 106.202 162.702C105.884 162.353 105.651 162.744 105.453 162.92C102.35 165.667 99.1919 168.361 96.6326 171.664C90.1765 179.996 85.82 189.432 82.0651 199.183C81.5506 200.421 81.3729 201.773 81.5501 203.102Z" fill="#214434"/>
<path d="M96.1132 148.337C93.0547 149.048 89.7807 149.803 86.5093 150.575C77.5754 152.673 68.7178 155.058 59.684 156.65C51.8012 158.035 44.0366 159.882 36.23 161.569C35.1789 161.797 34.3197 161.601 33.8651 160.74C33.3159 159.691 34.1147 158.962 34.9162 158.508C37.733 156.922 40.6732 155.564 43.7081 154.449C50.7002 151.902 57.9629 150.357 65.2546 148.953C74.0589 147.296 82.9421 146.088 91.8696 145.333C96.1027 144.961 100.302 144.491 104.388 143.269C105.31 143.006 106.164 143.248 106.49 144.297C106.815 145.346 106.274 146.626 105.404 146.802C103.807 147.125 102.974 148.158 102.645 149.607C102.383 150.792 101.623 151.398 100.596 151.776C92.8261 154.636 85.7525 158.686 79.0784 163.597C73.4816 167.713 67.8112 171.756 62.4404 176.142C55.3905 181.895 49.1604 188.566 42.7753 195.043C37.9826 199.907 33.5787 205.125 29.1117 210.259C28.7445 210.692 28.341 211.093 27.9056 211.458C27.3801 211.875 26.781 212.022 26.2135 211.586C25.9448 211.39 25.748 211.112 25.6531 210.793C25.5581 210.475 25.5704 210.134 25.688 209.823C25.8339 209.412 26.0629 209.035 26.3606 208.716C36.8711 197.105 47.4262 185.547 59.0166 174.99C62.6112 171.716 66.7759 169.172 70.6464 166.244C75.9805 162.212 81.2357 158.067 86.9902 154.622C89.8096 152.933 92.8445 151.69 95.769 150.218C96.0817 150.06 96.3917 149.898 96.6887 149.712C97.067 149.473 97.7266 149.373 97.5138 148.733C97.3325 148.214 96.7701 148.41 96.1132 148.337Z" fill="#214434"/>
<path d="M214.725 119.751C217.526 119.751 220.324 119.764 223.133 119.751C223.987 119.751 224.775 119.824 224.904 120.853C225.022 121.789 224.563 122.348 223.645 122.715C219.402 124.426 214.861 124.958 210.486 126.139C202.506 128.292 194.311 128.888 186.152 129.811C177.901 130.756 169.577 131.01 161.384 132.435C155.585 133.445 149.665 133.854 144.024 135.719C142.982 136.079 141.865 136.162 140.781 135.961C140.129 135.835 139.607 135.549 139.436 134.877C139.252 134.143 139.628 133.615 140.206 133.216C141.257 132.487 142.515 132.191 143.69 131.729C149.208 129.554 154.66 127.23 160.457 125.771C168.531 123.736 176.722 122.513 184.977 121.6C190.858 120.95 196.778 121.041 202.669 120.616C206.684 120.325 210.712 120.186 214.733 119.979L214.725 119.751ZM189.594 123.982C186.846 123.743 183.524 124.646 180.135 125.032C175.1 125.614 170.063 126.123 165.144 127.414C163.457 127.857 161.765 128.285 160.086 128.759C159.794 128.841 159.298 128.93 159.385 129.384C159.456 129.796 159.879 129.63 160.16 129.622C161.339 129.58 162.551 129.672 163.696 129.447C170.497 128.114 177.46 128.229 184.281 127.133C188.283 126.49 192.39 126.54 196.295 125.276C196.678 125.192 197.069 125.155 197.461 125.168C200.113 125.018 202.795 125.168 205.384 124.426C205.991 124.255 207.113 124.3 206.989 123.481C206.897 122.862 205.843 123.219 205.226 123.219C200.231 123.151 195.286 124.098 189.594 123.982Z" fill="#214434"/>
<path d="M134.585 124.113C133.399 124.113 132.777 123.182 133.371 122.077C138.061 113.36 142.131 104.299 148.067 96.2844C156.518 84.9135 165.597 74.0218 175.263 63.6601C176.576 62.2461 178.153 61.1181 179.638 59.8982C180.163 59.4706 180.689 59.2161 181.28 59.6909C181.871 60.1658 182.426 60.7403 182.016 61.6926C181.325 63.2033 180.535 64.6668 179.651 66.0736C173.578 76.2785 166.439 85.7096 158.864 94.8389C151.577 103.622 144.99 112.94 138.106 122.043C137.22 123.232 136.153 124.006 134.585 124.113ZM143.321 109.564C144.252 109.194 144.824 108.483 145.376 107.749C149.231 102.617 153.012 97.4465 157.24 92.5854C162.495 86.5517 166.886 79.8463 171.639 73.4217C172.083 72.8183 172.525 72.173 172.406 71.2679C161.625 83.2069 150.776 95.0855 143.321 109.564Z" fill="#214434"/>
<path d="M202.815 194.297C199.969 193.721 197.156 192.993 194.389 192.117C190.284 190.874 186.378 189.055 182.788 186.713C179.164 184.326 175.099 182.778 171.297 180.711C166.753 178.259 162.456 175.378 158.464 172.106C152.749 167.415 146.689 163.168 141.043 158.394C140.341 157.801 139.621 157.229 138.941 156.618C138.168 155.928 137.627 155.062 138.336 154.107C139.046 153.152 139.973 153.582 140.793 154.107C144.963 156.754 149.004 159.6 153.18 162.24C159.793 166.405 166.549 170.354 173.491 173.974C180.118 177.431 186.456 181.403 192.951 185.094C196.743 187.251 200.295 189.845 204.405 191.432C205.12 191.708 205.435 192.261 205.264 193.006C204.999 194.09 204.14 194.331 202.815 194.297ZM167.258 174.538C170.241 176.736 173.565 178.344 176.946 179.848C174.138 177.321 170.814 175.731 167.258 174.538Z" fill="#214434"/>
<path d="M114.206 132.866C114.22 133.067 114.183 133.268 114.101 133.452C114.018 133.636 113.891 133.797 113.732 133.921C113.572 134.045 113.384 134.127 113.185 134.161C112.986 134.196 112.782 134.18 112.59 134.117C111.744 133.862 111.025 133.3 110.572 132.543C106.78 126.635 102.531 121.045 99.0471 114.909C96.3144 110.095 93.4819 105.328 90.8438 100.462C88.1741 95.5378 86.6817 90.1231 84.7188 84.9078C82.5747 79.1968 80.7458 73.3807 79.0747 67.5123C78.9696 67.1371 78.8645 66.7567 78.783 66.3737C78.6958 66.0311 78.7218 65.6694 78.8573 65.3427C78.9927 65.0161 79.2302 64.7418 79.5345 64.561C80.1888 64.1307 80.8772 64.2488 81.4737 64.7446C82.4575 65.6163 83.3526 66.5829 84.146 67.6303C88.7837 73.3388 92.2916 79.6978 95.0059 86.5186C95.5314 87.8119 96.1279 89.0738 96.7585 90.3146C99.3546 95.4276 100.739 100.997 102.802 106.317C105.987 114.484 109.305 122.582 113.202 130.452C113.615 131.218 114.106 132.008 114.206 132.866ZM83.92 73.3598C88.2293 87.8827 93.2217 101.834 102.405 113.909C102.302 112.867 102.078 111.841 101.738 110.85C98.7345 102.004 94.7142 93.5728 91.188 84.9393C89.6824 81.2535 87.9665 77.6883 85.6096 74.4458C85.2785 73.992 84.9763 73.5145 83.92 73.3598Z" fill="#214434"/>
<path d="M142.99 143.926C149.401 144.493 155.691 145.794 161.964 147.153C169.174 148.727 176.36 150.411 183.452 152.429C189.335 154.102 194.909 156.679 200.563 158.987C204.076 160.433 207.542 161.994 211.034 163.489C212.001 163.901 213.06 164.36 212.642 165.622C212.209 166.933 211.024 166.703 209.97 166.461C200.398 164.25 190.849 161.952 181.29 159.693C168.722 156.723 156.59 152.442 144.461 148.15C143.473 147.804 142.524 147.363 141.552 146.964C140.533 146.56 140.133 145.831 140.425 144.784C140.701 143.795 141.518 143.795 142.335 143.856L142.99 143.926ZM162.368 150.485C163.616 152.148 187.551 158.927 190.089 158.287C181.311 154.076 171.751 152.581 162.368 150.48V150.485Z" fill="#214434"/>
<path d="M118.715 61.2284C120.492 81.6743 121.226 102.197 120.914 122.718C120.888 124.418 120.856 126.128 121.201 127.807C121.317 128.344 121.315 128.899 121.192 129.435C121.07 129.97 120.832 130.472 120.494 130.905C119.737 131.91 118.857 131.857 118.239 130.75C117.977 130.342 117.84 129.866 117.848 129.381C118.302 123.4 116.213 117.856 114.815 112.211C112.537 103.013 111.2 93.7188 111.549 84.238C111.741 79.007 112.338 73.8074 112.987 68.6079C113.525 64.0218 114.453 59.4897 115.761 55.0608C115.927 54.5204 116.024 53.9511 116.55 53.618C117.532 53.0198 118.405 53.5078 118.57 54.6909C118.883 56.8631 118.741 59.0457 118.715 61.2284ZM116.35 69.1982C116.156 69.3148 115.995 69.4788 115.882 69.6748C115.769 69.8707 115.707 70.0922 115.704 70.3183C115.315 73.4323 114.936 76.5462 114.653 79.6733C114.151 85.1824 114.532 90.6757 114.994 96.1586C115.328 100.094 115.633 104.079 116.931 107.875C117.109 108.399 117.133 109.336 117.863 109.186C118.415 109.073 118.171 108.2 118.166 107.657C118.087 100.71 117.903 93.7687 117.551 86.8325C117.343 82.7741 117.288 78.7 116.994 74.66C116.849 72.8761 117.075 71.0135 116.339 69.1982H116.35Z" fill="#214434"/>
<path d="M141.109 231.076C141.104 231.351 141.019 231.619 140.866 231.848C140.712 232.076 140.495 232.256 140.242 232.364C139.975 232.519 139.665 232.584 139.359 232.549C139.052 232.515 138.765 232.383 138.539 232.173C137.947 231.65 137.478 231.003 137.165 230.279C133.25 221.422 129.729 212.413 126.975 203.129C125.483 198.103 124.941 192.88 124.14 187.717C123.491 183.541 122.492 179.422 122.14 175.198C121.908 172.237 121.855 169.265 121.98 166.297C122.014 165.348 122.45 164.529 122.994 163.784C123.407 163.212 123.919 162.666 124.728 162.834C125.488 162.992 125.685 163.666 125.848 164.309C126.636 167.386 127.374 170.479 128.213 173.546C130.635 182.41 132.969 191.301 135.018 200.262C136.203 205.448 136.76 210.755 137.759 215.973C138.636 220.554 140.15 224.987 140.825 229.615C140.896 230.082 141.006 230.549 141.109 231.076ZM134.682 214.937C132.766 202.167 130.052 189.595 125.892 177.363C127.713 190.157 128.515 203.177 134.682 214.937Z" fill="#214434"/>
<path d="M102.856 138.703C99.4667 138.27 96.0876 137.425 92.7348 136.447C87.3824 134.889 82.4504 132.357 77.3922 130.093C68.3558 126.053 59.8424 121.092 51.4156 115.95C48.16 113.964 45.4878 111.186 42.1402 109.332C41.4176 108.933 40.9052 108.183 41.2232 107.233C41.5411 106.283 42.3556 106.089 43.2333 106.184C44.7061 106.351 46.1569 106.674 47.5609 107.149C61.4091 111.595 74.8574 117.199 87.7634 123.899C91.7048 125.945 95.7671 127.803 99.5692 130.138C101.456 131.33 103.216 132.71 104.824 134.256C105.739 135.109 106.204 136.093 105.689 137.297C105.174 138.501 104.073 138.643 102.856 138.703ZM99.2644 135.03C99.422 135.072 99.5893 135.058 99.7375 134.99C99.8857 134.922 100.006 134.804 100.076 134.658C100.26 134.256 99.9528 133.989 99.698 133.771C98.5623 132.748 97.3203 131.849 95.9931 131.09C82.0983 123.535 67.762 116.947 52.8713 111.582C52.1408 111.32 51.1056 110.533 50.6773 111.346C50.3305 111.997 51.5707 112.43 52.1908 112.839C63.7488 120.456 76.0363 126.907 88.8722 132.097C92.2014 133.438 95.6961 134.212 99.2644 135.03Z" fill="#214434"/>
<path d="M99.4361 241.319C99.2995 235.547 100.374 229.855 100.85 224.125C101.002 222.255 101.049 220.376 101.141 218.501C101.404 212.955 102.455 207.517 103.341 202.047C104.831 192.918 106.68 183.867 108.888 174.895C110.443 168.528 112.59 162.361 114.992 156.269C115.181 155.829 115.416 155.409 115.693 155.018C116.087 154.438 116.6 154.044 117.349 154.357C118.137 154.69 118.297 155.346 118.069 156.096C117.79 157.011 117.485 157.919 117.136 158.811C112.503 170.695 109.802 183.08 107.676 195.596C106.783 200.843 105.598 206.027 104.815 211.286C104.381 214.225 104.127 217.187 104.055 220.156C103.929 225.096 102.928 229.954 102.726 234.889C102.613 237.594 102.413 240.296 102.34 243.003C102.308 244.107 101.909 244.839 100.808 244.873C99.5964 244.913 99.528 243.895 99.4492 243.016C99.3966 242.46 99.4361 241.888 99.4361 241.319Z" fill="#214434"/>
<path d="M128.573 106.54C128.836 102.526 129.824 98.4518 131.106 94.4721C133.471 87.1266 135.048 79.5372 137.922 72.3807C142.739 60.4812 148.575 49.0191 155.367 38.122C159.268 31.9084 163.508 25.9128 168.066 20.1624C168.285 19.8411 168.55 19.5546 168.854 19.3124C169.142 19.1037 169.494 19.0013 169.849 19.0228C170.204 19.0444 170.541 19.1885 170.802 19.4305C171.409 19.9552 171.114 20.5375 170.712 21.0517C169.588 22.4998 168.452 23.9374 167.323 25.3882C159.23 35.7584 152.668 47.0546 146.709 58.7549C141.409 69.1644 138.038 80.2219 134.927 91.3975C133.828 95.3326 132.446 99.2099 131.603 103.226C131.324 104.538 131.153 105.889 130.899 107.214C130.811 107.64 130.668 108.053 130.473 108.442C130.379 108.668 130.203 108.852 129.98 108.956C129.758 109.06 129.504 109.078 129.269 109.006C129.051 108.961 128.858 108.837 128.726 108.657C128.595 108.478 128.536 108.256 128.56 108.035L128.573 106.54Z" fill="#214434"/>
<path d="M94.4972 125.805C93.6564 125.763 93.0257 125.33 92.4844 124.722C89.841 121.749 87.2292 118.748 84.5411 115.802C73.2293 103.454 62.7136 90.4026 51.2782 78.1646C48.4693 75.1582 45.9126 71.9393 43.3664 68.7204C42.3215 67.3717 41.1742 66.1053 39.9348 64.9323C39.1202 64.2012 38.4685 63.3074 38.0218 62.3089C37.7591 61.7081 37.365 61.0418 38.0587 60.5302C38.7524 60.0187 39.2384 60.6903 39.6168 61.0549C41.4299 62.8257 43.2955 64.5624 44.9272 66.4958C52.9388 75.9819 61.5574 84.925 69.5848 94.4032C77.1182 103.304 84.6121 112.268 92.8129 120.595C93.6695 121.466 94.6049 122.263 95.4405 123.147C95.9029 123.633 96.1867 124.26 95.8504 124.95C95.7454 125.218 95.5575 125.445 95.3141 125.599C95.0707 125.753 94.7846 125.825 94.4972 125.805Z" fill="#214434"/>
<path d="M195.084 210.142C195.113 210.405 195.064 210.671 194.943 210.907C194.823 211.143 194.636 211.338 194.406 211.47C193.881 211.769 193.394 211.604 192.942 211.276C181.765 203.183 170.035 195.876 159.078 187.474C151.234 181.456 143.543 175.254 136.606 168.182C134.525 166.117 132.732 163.781 131.278 161.238C130.792 160.361 130.868 159.645 131.73 159.105C132.591 158.564 133.288 158.897 133.724 159.682C137.426 166.364 143.409 170.868 149.074 175.65C159.341 184.307 170.179 192.23 181.339 199.699C185.367 202.396 189.603 204.785 193.458 207.745C194.608 208.626 195.087 209.313 195.084 210.142Z" fill="#214434"/>
<path d="M130.18 164.391C130.853 164.58 131.197 165.057 131.544 165.582C133.685 168.84 135.314 172.369 137.075 175.832C141.636 184.804 147.296 193.107 152.953 201.404C156.74 206.958 160.311 212.685 164.754 217.756C167.755 221.166 170.892 224.464 173.951 227.819C174.363 228.27 174.746 228.746 175.096 229.246C175.556 229.905 175.506 230.532 174.91 231.125C174.313 231.717 173.717 231.494 173.168 231.062C171.102 229.419 169.476 227.347 167.65 225.469C158.755 216.318 152.026 205.531 144.958 195.037C139.074 186.304 134.221 176.965 129.531 167.547C129.192 166.868 128.937 166.18 129.137 165.409C129.195 165.158 129.324 164.928 129.509 164.748C129.694 164.567 129.927 164.444 130.18 164.391Z" fill="#214434"/>
<path d="M156.593 120.371C155.855 120.371 155.345 120.109 155.174 119.503C155.004 118.897 155.035 118.249 155.674 117.879C156.428 117.444 157.206 117.042 157.989 116.659C166.174 112.656 174.889 110.069 183.529 107.312C192.67 104.392 201.723 101.205 210.856 98.2643C217.365 96.1656 224.028 94.5496 230.616 92.6975C231.494 92.4509 232.342 92.0941 233.194 91.7662C233.632 91.5983 234.04 91.5196 234.379 91.9288C234.548 92.0966 234.662 92.3129 234.703 92.5479C234.745 92.7829 234.712 93.0249 234.61 93.2405C234.037 94.5364 232.933 95.0769 231.672 95.4153C227.045 96.6719 222.436 98.0072 217.783 99.1614C210.478 100.972 203.53 103.847 196.399 106.168C186.448 109.411 176.348 112.223 166.62 116.137C163.667 117.323 160.777 118.666 157.852 119.928C157.413 120.12 156.951 120.248 156.593 120.371Z" fill="#214434"/>
<path d="M146.925 122.217C146.7 122.227 146.477 122.172 146.281 122.06C146.085 121.949 145.925 121.784 145.819 121.585C145.685 121.381 145.625 121.137 145.65 120.894C145.674 120.651 145.781 120.423 145.953 120.25C146.342 119.838 146.755 119.444 147.18 119.072C152.987 114.014 159.43 109.73 165.151 104.58C176.381 94.4697 189.083 86.5681 202.323 79.4378C205.09 77.9451 207.818 76.3763 210.566 74.8442C211.72 74.2015 212.994 73.871 214.227 73.4355C214.812 73.2282 215.375 73.3437 215.669 73.9759C215.963 74.6081 215.932 75.18 215.383 75.6391C215.106 75.8523 214.803 76.0287 214.481 76.1638C205.526 80.2851 197.226 85.566 188.778 90.5924C180.554 95.4745 173.152 101.487 165.85 107.629C160.594 112.046 155.205 116.304 149.85 120.601C148.98 121.283 148.097 122.044 146.925 122.217Z" fill="#214434"/>
<path d="M87.4528 141.236C84.9802 141.364 82.5733 140.871 80.1506 140.538C75.2632 139.864 70.3207 139.601 65.4754 138.615C58.118 137.117 50.7608 135.729 43.4613 133.935C39.5803 132.975 35.6152 132.264 31.7105 131.346C31.2008 131.228 30.6989 131.083 30.197 130.942C29.4087 130.713 29.0173 130.115 29.125 129.368C29.2485 128.505 29.9133 128.119 30.7672 128.24C31.8446 128.397 32.914 128.628 33.9756 128.872C40.4001 130.346 46.7931 131.957 53.2465 133.29C63.6834 135.443 74.2017 137.143 84.8357 138.012C87.3161 138.219 89.8123 137.702 92.3059 137.991C93.0207 138.072 93.5882 138.3 93.6539 139.132C93.7196 139.964 93.3544 140.465 92.5214 140.614C92.2587 140.661 92.0143 140.743 91.7541 140.772C90.3221 140.939 88.8874 141.086 87.4528 141.236Z" fill="#214434"/>
<path d="M111.788 104.697C111.717 105.66 111.659 106.518 110.576 106.709C109.494 106.901 109.286 106.019 109.06 105.29C107.812 101.281 107.276 97.1234 106.522 93.0126C105.374 86.7532 105.14 80.3522 103.632 74.1558C102.927 71.2701 101.897 68.4867 101.406 65.5564C101.377 65.3832 101.319 65.2179 101.29 65.0317C101.154 64.2053 101.361 63.5416 102.231 63.2661C103.101 62.9907 103.529 63.5285 103.871 64.187C104.415 65.2363 104.599 66.4195 104.943 67.5423C106.853 73.7806 107.702 80.2184 108.622 86.6483C109.449 92.3804 110.151 98.1387 111.596 103.768C111.675 104.117 111.738 104.458 111.788 104.697Z" fill="#214434"/>
<path d="M80.5514 154.662C80.4805 155.687 79.905 156.141 79.1535 156.524C73.6618 159.315 68.2016 162.167 62.6942 164.919C58.0301 167.256 53.7156 170.166 49.3406 172.967C48.6443 173.413 47.9086 173.807 47.1702 174.182C46.4318 174.557 45.8222 174.457 45.3309 173.77C44.7922 173.025 45.2048 172.458 45.6751 171.91C45.9005 171.704 46.1461 171.521 46.4082 171.364C51.5531 167.464 57.2524 164.499 62.9622 161.543C66.8799 159.512 70.7583 157.4 74.6445 155.307C76.0224 154.544 77.5136 154.005 79.0616 153.712C79.905 153.57 80.5672 153.717 80.5514 154.662Z" fill="#214434"/>
<path d="M112.898 193.137C112.793 188.084 113.234 183.033 114.212 178.074C114.412 177.27 114.667 176.481 114.977 175.713C115.189 175.099 115.615 174.782 116.29 174.905C117.005 175.039 117.297 175.477 117.292 176.217C117.276 178.284 116.69 180.267 116.416 182.295C115.678 187.741 115.804 193.195 116.109 198.652C116.288 201.834 116.545 205.013 116.995 208.172C117.083 208.69 117.031 209.223 116.845 209.715C116.553 210.433 116.13 210.911 115.316 210.924C114.446 210.924 114.291 210.3 114.115 209.633C113.566 207.534 113.563 205.391 113.403 203.264C113.127 199.643 112.701 196.031 112.898 193.137Z" fill="#214434"/>
<path d="M221.716 165.951L225.077 166.738C230.069 167.916 234.996 169.196 239.507 171.741C240.438 172.266 241.032 172.893 240.735 173.897C240.438 174.902 239.539 175.033 238.583 174.894C232.361 173.955 226.268 172.302 220.426 169.968C219.375 169.55 218.353 169.097 218.647 167.667C218.889 166.499 219.819 165.928 221.716 165.951Z" fill="#214434"/>
<path d="M127.584 251.124C127.524 252.097 127.093 252.698 126.205 252.879C125.277 253.057 124.891 252.446 124.596 251.699C122.465 246.263 120.511 240.788 119.194 235.069C118.091 230.281 116.861 225.52 115.952 220.685C115.827 220.225 115.838 219.738 115.983 219.284C116.178 218.759 116.432 218.3 117.034 218.282C117.636 218.264 117.959 218.715 118.122 219.242C118.385 220.074 118.713 220.9 118.818 221.753C119.139 224.563 119.765 227.329 120.687 230.003C122.197 234.279 122.66 238.849 124.365 243.068C125.327 245.45 126.312 247.824 127.279 250.203C127.419 250.523 127.503 250.862 127.584 251.124Z" fill="#214434"/>
<path d="M42.3925 175.062C42.4109 175.867 41.9668 176.243 41.549 176.636C39.7097 178.336 37.4447 179.441 35.4056 180.857C29.596 184.894 23.7049 188.822 18.6546 193.835C18.4076 194.079 18.1291 194.284 17.8479 194.504C17.1201 195.092 16.4237 194.897 15.8719 194.294C15.3201 193.691 15.3465 193.024 15.9298 192.418C17.4223 190.826 18.8753 189.192 20.6227 187.859C26.4192 183.433 32.2893 179.11 38.5562 175.361C39.2674 174.935 40.0106 174.565 40.7791 174.254C41.6988 173.861 42.1324 174.433 42.3925 175.062Z" fill="#214434"/>
<path d="M157.234 234.733C157.289 235.292 156.989 235.641 156.535 235.885C156.343 235.991 156.124 236.037 155.905 236.018C155.686 235.999 155.478 235.915 155.308 235.777C154.85 235.44 154.469 235.009 154.191 234.513C151.687 230.478 149.125 226.483 146.713 222.385C144.566 218.733 142.661 214.969 140.625 211.27C140.02 210.17 139.39 209.04 139.991 207.694C140.428 206.713 140.916 206.613 141.568 207.455C141.989 207.957 142.348 208.508 142.637 209.095C145.197 214.911 148.705 220.179 152.068 225.535C153.689 228.119 155.197 230.782 156.748 233.406C156.984 233.825 157.284 234.216 157.234 234.733Z" fill="#214434"/>
<path d="M118.01 40.2954C118.601 35.778 118.961 31.2081 120.9 26.9844C121.091 26.5934 121.324 26.2248 121.596 25.8852C122.324 24.9198 123.254 24.8359 124.145 25.6518C125.036 26.4676 125.32 27.5537 125.123 28.75C124.522 32.3964 123.92 36.0429 123.318 39.6894C123.19 40.509 122.94 41.3049 122.577 42.0505C121.964 43.2782 121.087 43.7819 119.844 43.4986C118.651 43.2362 118.167 42.3495 118.054 41.2162C118.023 40.9067 118.023 40.5997 118.01 40.2954Z" fill="#214434"/>
<path d="M96.2664 114.898C96.1692 115.467 96.0036 116.121 95.3178 116.396C94.632 116.672 94.2852 116.157 93.9199 115.706C90.462 111.425 87.5112 106.787 84.3397 102.295C82.6028 99.8374 80.6899 97.5052 78.8821 95.0996C78.4965 94.573 78.1639 94.0097 77.8889 93.418C77.7459 93.1659 77.7014 92.8699 77.764 92.587C77.8266 92.3041 77.9918 92.0544 78.2279 91.8859C78.4584 91.7155 78.7402 91.6286 79.0268 91.6396C79.3134 91.6506 79.5877 91.7587 79.8044 91.9463C80.3672 92.3604 80.8757 92.8433 81.3179 93.3839C86.4155 99.819 90.8325 106.737 95.6069 113.4C95.9143 113.823 96.2296 114.25 96.2664 114.898Z" fill="#214434"/>
<path d="M7.75873 120.061C9.93177 120.268 12.1836 120.729 14.2779 121.784C16.9239 123.119 19.5567 124.478 22.384 125.407C22.5484 125.465 22.7083 125.535 22.8622 125.617C24.247 126.315 24.6701 127.031 24.2786 128.004C23.8687 129.022 22.9174 129.413 21.5274 129.025C16.9606 127.742 12.3702 126.517 8.04516 124.512C7.57219 124.295 7.09657 124.072 6.63937 123.817C5.73547 123.314 4.56357 122.899 4.88414 121.564C5.20471 120.228 6.44493 120.079 7.75873 120.061Z" fill="#214434"/>
<path d="M139.693 243.173C139.862 242.457 140.074 241.482 140.324 240.516C140.476 239.934 140.931 239.68 141.501 239.651C141.854 239.629 142.206 239.714 142.512 239.893C142.817 240.071 143.062 240.337 143.217 240.655C144.057 242.179 144.908 243.706 145.642 245.285C146.962 248.087 147.917 251.046 148.482 254.091C148.647 255.011 148.387 255.761 147.607 256.234C146.826 256.706 146.03 256.328 145.479 255.748C142.168 252.304 140.156 248.236 139.693 243.173Z" fill="#214434"/>
<path d="M179.259 265.466C178.239 265.251 177.359 264.492 176.568 263.705C171.326 258.493 166.289 253.097 162.2 246.9C161.981 246.579 161.786 246.241 161.617 245.89C161.449 245.553 161.407 245.167 161.499 244.801C161.592 244.436 161.813 244.116 162.122 243.899C162.821 243.351 163.375 243.967 163.806 244.403C165.036 245.654 165.974 247.134 166.985 248.561C170.309 253.251 174.274 257.373 178.447 261.308C179.178 261.997 179.865 262.731 180.504 263.506C180.675 263.709 180.771 263.964 180.778 264.229C180.784 264.494 180.701 264.753 180.541 264.965C180.268 265.379 179.884 265.51 179.259 265.466Z" fill="#214434"/>
<path d="M21.6283 163.91C22.456 163.808 23.0525 164.021 23.3494 164.724C23.6726 165.487 23.3284 166.059 22.7372 166.56C21.3524 167.717 19.8784 168.696 18.0968 169.184C14.5574 170.131 11.0312 171.128 7.4944 172.088C7.07355 172.198 6.6418 172.263 6.20689 172.279C5.85456 172.309 5.50138 172.231 5.19504 172.055C4.8887 171.878 4.64394 171.612 4.49368 171.293C4.11005 170.577 4.49365 170.018 4.92458 169.517C5.64779 168.693 6.56531 168.061 7.59421 167.68C11.9298 166.028 16.4572 165.057 20.9478 163.952C21.1718 163.909 21.4006 163.894 21.6283 163.91Z" fill="#214434"/>
<path d="M57.1116 57.2312C57.1116 57.9972 56.8488 58.4064 56.3943 58.6137C56.1997 58.7178 55.9772 58.7582 55.7583 58.729C55.5395 58.6998 55.3354 58.6025 55.175 58.451C54.5551 57.8965 54.0117 57.2622 53.559 56.5648C50.7055 52.1234 47.844 47.6873 45.9074 42.737C45.3358 41.3637 44.6029 40.063 43.7239 38.8623C43.3299 38.2873 43.0219 37.6581 42.8095 36.9945C42.531 36.1419 43.0538 35.6434 43.6319 35.2552C44.2731 34.8276 44.683 35.3627 45.043 35.8008C46.5363 37.5752 47.7671 39.5541 48.698 41.6772C50.353 45.5311 52.3918 49.2091 54.7835 52.656C55.8135 54.1251 56.5151 55.7699 57.1116 57.2312Z" fill="#214434"/>
<path d="M136.011 51.5783C135.874 52.1711 135.785 52.7798 135.593 53.3543C134.016 58.1026 133.42 63.0371 132.787 67.9691C132.448 70.6056 132.051 73.2368 131.667 75.868C131.64 76.2604 131.538 76.6441 131.368 76.9987C130.934 77.7201 130.564 78.7432 129.444 78.3497C128.456 78.0008 128.567 77.1325 128.745 76.251C129.725 71.3768 130.351 66.4475 130.963 61.5103C131.452 57.5753 132.842 53.8212 133.89 50.0016C133.916 49.8265 133.998 49.6642 134.122 49.5383C134.247 49.4123 134.409 49.3293 134.584 49.3012C134.986 49.2566 135.233 49.5215 135.388 49.8573C135.64 50.4004 136.066 50.8936 136.011 51.5783Z" fill="#214434"/>
<path d="M12.4546 80.777C12.4546 81.9967 11.5955 82.7469 10.4054 82.4924C7.93311 81.9678 5.70521 81.1154 4.11572 78.8884C2.93345 77.2281 1.5121 75.7408 0.437552 73.9729C-0.153582 72.9997 -0.17198 72.087 0.561025 71.1977C1.3492 70.222 2.2924 70.5604 3.13312 71.064C6.58605 73.1329 9.56488 75.9032 11.8766 79.1953C12.2024 79.6596 12.4967 80.1658 12.4546 80.777Z" fill="#214434"/>
<path d="M250.045 172.603C252.491 172.765 255.037 173.967 257.693 174.785C258.692 175.089 259.673 175.447 260.633 175.858C261.482 176.228 262.12 176.876 261.978 177.875C261.839 178.835 261.14 179.325 260.207 179.562C258.042 180.104 255.967 179.588 253.886 179.113C252.061 178.688 250.287 178.067 248.595 177.261C247.105 176.556 246.493 175.522 246.803 174.313C247.113 173.104 247.962 172.587 250.045 172.603Z" fill="#214434"/>
<path d="M225.061 66.3264C224.386 66.4103 223.96 66.0273 223.747 65.479C223.461 64.7655 223.908 64.3011 224.483 63.9968C229.026 61.5781 233.133 58.4143 237.884 56.3261C240.036 55.3764 242.088 54.1776 244.172 53.102C244.981 52.6875 245.864 52.0893 246.573 53.1702C247.199 54.1303 246.749 55.2951 245.475 55.7935C242.059 57.1288 238.712 58.6058 235.574 60.5156C232.781 62.2261 229.967 63.8998 227.166 65.5866C226.536 66.0022 225.813 66.2563 225.061 66.3264Z" fill="#214434"/>
<path d="M11.4398 232.972C10.7408 232.93 10.1943 232.917 9.93416 232.332C9.69768 231.807 9.81595 231.335 10.1575 230.866C14.0902 225.461 18.0202 220.053 21.9476 214.64C22.5125 213.853 23.2614 213.409 24.1942 214.023C25.1796 214.666 24.8748 215.482 24.4071 216.306C22.799 219.131 20.6233 221.552 18.7051 224.144C16.9893 226.463 15.2892 228.796 13.7126 231.228C13.1319 232.101 12.4462 232.901 11.4398 232.972Z" fill="#214434"/>
<path d="M241.691 91.9667C241.084 91.8434 240.406 91.7988 240.219 91.0774C240.119 90.7361 240.156 90.3691 240.324 90.0552C240.491 89.7413 240.776 89.5055 241.115 89.3984C242.474 88.8094 243.871 88.3159 245.298 87.9215C249.671 86.8511 253.859 85.2587 258.05 83.6637C258.823 83.3699 259.614 83.1154 260.415 82.8767C261.085 82.6747 261.787 82.4203 262.144 83.3857C262.462 84.2435 262.099 84.8338 261.408 85.243C260.62 85.7065 259.809 86.1303 258.978 86.5127C253.617 89.0102 247.916 90.4346 242.211 91.8565C242.032 91.9011 241.862 91.93 241.691 91.9667Z" fill="#214434"/>
<path d="M73.6887 81.7887C73.7045 82.4498 73.5153 83.0427 72.8584 83.2814C72.1437 83.5438 71.5683 83.2054 71.1689 82.6046C70.484 81.6447 69.8507 80.649 69.2718 79.6218C67.1697 75.6055 64.4238 72.0534 61.6517 68.5119C61.1945 67.9269 60.7583 67.3235 60.3379 66.7044C60.0541 66.2742 59.7178 65.8203 60.2748 65.3192C60.7583 64.8811 61.2523 64.5978 61.9249 64.8969C62.673 65.2677 63.3291 65.8 63.8457 66.4552C67.4428 70.6845 70.5777 75.2848 73.1974 80.178C73.5097 80.6581 73.6799 81.2164 73.6887 81.7887Z" fill="#214434"/>
<path d="M32.3388 249.462C31.1143 249.462 30.6703 248.743 31.0986 247.625C33.0509 242.462 35.8624 237.722 38.377 232.837C38.7554 232.1 39.1653 231.379 39.6172 230.683C40.0692 229.988 40.8023 229.747 41.5538 230.159C42.3053 230.571 42.6417 231.31 42.2134 232.163C41.073 234.422 39.8984 236.665 38.7449 238.918C37.2314 241.87 35.7284 244.829 34.2096 247.777C33.7866 248.588 33.3399 249.417 32.3388 249.462Z" fill="#214434"/>
<path d="M194.613 249.443C193.991 249.428 193.39 249.211 192.903 248.824C188.859 245.506 184.495 242.582 180.854 238.781C180.494 238.403 180.118 238.039 180 237.493C179.91 237.178 179.921 236.842 180.031 236.533C180.141 236.224 180.345 235.957 180.615 235.77C181.19 235.329 181.647 235.633 182.146 235.969C183.668 237.002 184.968 238.298 186.35 239.481C189.18 241.879 192.13 244.134 195.099 246.34C195.537 246.627 195.898 247.017 196.15 247.476C196.704 248.583 196.097 249.506 194.613 249.443Z" fill="#214434"/>
<path d="M229.27 206.092C226.556 205.997 224.084 205.042 221.651 203.93C221.06 203.668 220.503 203.301 219.899 203.059C218.932 202.674 218.585 201.979 218.698 200.995C218.814 199.959 219.526 199.503 220.435 199.308C221.559 199.067 222.692 199.193 223.811 199.413C226.225 199.888 228.443 200.901 230.676 201.887C231.924 202.435 232.341 203.34 232.173 204.599C231.992 205.934 230.933 205.992 229.917 206.089C229.714 206.11 229.494 206.092 229.27 206.092Z" fill="#214434"/>
<path d="M28.4719 48.2557C28.4719 49.116 28.0148 49.5882 27.3737 49.9659C27.1409 50.1355 26.8562 50.2188 26.5685 50.2016C26.2809 50.1844 26.0082 50.0676 25.7974 49.8715C22.9074 47.4058 20.1487 44.8064 18.0522 41.6011C17.398 40.6043 17.4742 39.5866 18.3544 38.7577C19.2765 37.8921 20.3589 38.0285 21.2075 38.7813C23.9215 41.1945 26.4121 43.8149 28.1041 47.0832C28.334 47.432 28.4615 47.8382 28.4719 48.2557Z" fill="#214434"/>
<path d="M77.9481 52.7359C77.949 53.2409 77.8154 53.7371 77.561 54.1736C77.3066 54.61 76.9406 54.9712 76.5005 55.2199C75.6545 55.7262 74.8348 55.6134 74.3829 54.7111C72.9028 51.7523 71.464 48.7734 70.0663 45.7745C69.7966 45.1702 69.7564 44.4886 69.9533 43.857C70.3605 42.4222 71.4903 41.9685 72.7513 42.7947C72.9447 42.8958 73.1175 43.0319 73.261 43.196C75.2157 45.9922 77.0049 48.8722 77.8824 52.2166C77.9149 52.3882 77.9369 52.5616 77.9481 52.7359Z" fill="#214434"/>
<path d="M101.81 257.234C101.429 260.927 102.228 264.55 102.433 268.21C102.452 268.514 102.473 268.821 102.483 269.126C102.507 269.784 102.37 270.419 101.645 270.576C100.857 270.744 100.273 270.327 99.9973 269.603C99.4271 268.116 99.4114 266.52 99.2248 264.967C98.7923 261.143 98.6982 257.289 98.9437 253.448C98.9786 252.707 99.0895 251.971 99.2747 251.253C99.3375 250.925 99.5216 250.633 99.7904 250.434C100.059 250.236 100.393 250.146 100.725 250.182C101.587 250.219 101.676 250.88 101.734 251.47C101.898 253.387 101.923 255.313 101.81 257.234Z" fill="#214434"/>
<path d="M137.592 279.973C136.712 279.85 136.242 279.06 135.842 278.226C134.129 274.643 132.425 271.057 130.731 267.47C130.174 266.287 129.654 265.086 129.155 263.879C128.916 263.365 128.749 262.822 128.658 262.263C128.587 261.657 128.658 260.951 129.378 260.739C130.098 260.526 130.498 261.027 130.76 261.618C133.225 267.127 136.155 272.394 138.851 277.783C139.41 278.914 138.885 279.947 137.592 279.973Z" fill="#214434"/>
<path d="M196.518 34.2642C197.303 31.4593 198.861 28.9309 201.015 26.9669C201.37 26.6441 201.747 26.3478 202.145 26.0804C202.768 25.6502 203.459 25.2121 204.163 25.8181C204.867 26.424 205.645 27.0981 205.253 28.2549C204.108 31.6359 201.93 34.2249 199.074 36.2866C198.837 36.4863 198.542 36.6042 198.233 36.6226C197.924 36.641 197.617 36.559 197.358 36.3888C196.691 35.9639 196.528 35.3239 196.518 34.2642Z" fill="#214434"/>
<path d="M215.933 223.693C215.486 223.729 215.058 223.507 214.619 223.291C211.808 221.901 208.999 220.503 206.186 219.118C204.609 218.331 203.296 217.169 202.016 215.992C201.359 215.388 200.918 214.549 201.564 213.82C202.153 213.156 202.973 213.442 203.679 213.972C207.158 216.595 211.175 218.224 215.042 220.133C215.625 220.424 216.203 220.731 216.781 221.036C217.359 221.34 217.848 221.736 217.63 222.468C217.543 222.842 217.324 223.173 217.012 223.398C216.7 223.623 216.316 223.728 215.933 223.693Z" fill="#214434"/>
<path d="M61.6623 246.393C61.7537 245.98 61.8722 245.574 62.017 245.176C63.5285 241.567 65.0506 237.964 66.5832 234.367C66.8776 233.588 67.3541 232.891 67.973 232.334C68.5851 231.83 69.3024 231.62 70.0249 232.09C70.7973 232.586 70.5634 233.27 70.2665 233.926C68.5851 237.745 66.9194 241.572 65.2091 245.381C64.7861 246.32 64.3395 247.306 63.2177 247.676C62.327 247.991 61.6492 247.497 61.6623 246.393Z" fill="#214434"/>
<path d="M71.731 36.1282C71.731 37.9145 70.5487 38.5886 69.1274 38.0299C67.6272 37.4371 66.9809 36.0889 66.4659 34.7748C65.6094 32.5872 64.9474 30.3156 64.259 28.0677C64.0305 27.3202 63.9017 26.4415 64.7109 25.9378C65.5779 25.4001 66.2137 26.0873 66.7523 26.6198C69.5162 29.3556 70.927 32.7891 71.731 36.1282Z" fill="#214434"/>
<path d="M102.001 46.3936C101.946 46.7137 101.862 47.0521 101.828 47.3984C101.762 48.1198 101.355 48.5395 100.664 48.5841C99.9018 48.6314 99.597 48.0463 99.4629 47.4298C99.1187 45.8558 98.7798 44.2818 98.5275 42.6947C98.002 39.3472 97.2295 36.026 97.3083 32.6052C97.3267 31.8811 97.1612 30.9813 98.2332 30.8973C99.2606 30.8186 100.031 31.2804 100.18 32.3927C100.64 35.8424 101.079 39.2948 101.526 42.7445C101.681 43.9513 101.83 45.158 102.001 46.3936Z" fill="#214434"/>
<path d="M29.3233 254.532C29.2145 255.015 29.0794 255.491 28.9187 255.959C27.3423 259.967 25.7598 263.972 24.1712 267.973C23.8586 268.76 23.3831 269.41 22.4215 269.14C21.4021 268.849 21.1552 268.043 21.3706 267.065C21.6333 265.777 22.2087 264.597 22.6842 263.393C23.94 260.245 25.2055 257.098 26.4806 253.95C26.7696 253.247 27.2241 252.513 28.1069 252.762C28.8294 252.977 29.2603 253.622 29.3233 254.532Z" fill="#214434"/>
<path d="M28.2941 96.6993C27.9081 96.6415 27.5289 96.5458 27.1618 96.4134C24.4307 95.3036 22.1284 93.348 20.5937 90.8342C19.8055 89.5542 20.1943 88.8302 21.6945 88.5758C22.7364 88.392 23.8092 88.6165 24.6895 89.2027C26.6279 90.4698 28.4108 91.9593 30.0018 93.6409C30.5746 94.2363 30.8216 94.8789 30.4984 95.6527C30.1411 96.5026 29.4002 96.7072 28.2941 96.6993Z" fill="#214434"/>
<path d="M186.605 0.018697C187.393 -0.0757318 187.737 0.218043 187.939 0.703302C188.06 0.964792 188.086 1.26012 188.013 1.53865C187.94 1.81719 187.772 2.06157 187.537 2.2299C186.487 3.09025 185.436 3.92175 184.364 4.76374C182.202 6.46706 180.176 8.335 178.303 10.3508C177.713 10.9321 177.078 11.467 176.406 11.9508C175.823 12.4125 175.189 12.5253 174.659 11.9141C174.128 11.3029 174.236 10.6603 174.79 10.0518C177.452 7.10357 180.352 4.3779 183.46 1.90202C184.485 1.102 185.367 0.0423042 186.605 0.018697Z" fill="#214434"/>
<path d="M124.443 138.596C126.854 138.633 127.816 139.446 127.798 141.424C127.771 143.958 125.846 146.342 123.857 146.297C121.7 146.245 120.179 144.64 120.412 142.239C120.672 139.546 121.652 138.423 124.443 138.596Z" fill="#214434"/>
<path d="M141.525 25.1362C140.876 27.4366 140.251 29.7449 139.778 32.0951C139.515 33.4591 139.158 34.8099 138.837 36.166C138.783 36.4209 138.706 36.6703 138.606 36.9109C138.212 37.7975 137.805 38.8598 136.604 38.5792C135.404 38.2985 135.656 37.1208 135.758 36.2657C136.228 32.3102 137.334 28.5042 138.664 24.7585C138.927 23.9716 139.502 23.3709 140.456 23.5886C141.244 23.7644 141.664 24.268 141.525 25.1362Z" fill="#214434"/>
<path d="M129.403 9.40659C129.14 11.9326 128.688 14.2225 126.55 15.7281C125.121 16.7379 124.143 16.3182 123.923 14.5975C123.613 12.0899 124.001 9.65315 124.824 7.28194C125.192 6.23273 125.909 5.63206 127.081 5.66353C128.208 5.69501 128.675 6.49241 128.985 7.36588C129.178 8.03411 129.318 8.71646 129.403 9.40659Z" fill="#214434"/>
<path d="M190.56 43.0034C192.034 43.0218 192.901 44.2257 192.501 45.5451C191.737 48.0895 190.192 50.2299 188.841 52.4673C188.355 53.2699 187.496 53.4483 186.635 53.1309C185.529 52.7244 185.368 51.6542 185.423 50.7309C185.607 47.5203 187.712 45.3694 189.837 43.2683C190.032 43.0769 190.397 43.0585 190.56 43.0034Z" fill="#214434"/>
<path d="M152.484 268.421C152.555 267.169 152.671 266.207 153.766 265.798C154.862 265.388 155.451 266.186 156.047 266.884C157.531 268.602 158.594 270.643 159.15 272.843C159.378 273.74 159.092 274.37 158.475 274.941C157.799 275.555 157.03 275.529 156.297 275.094C153.672 273.525 152.892 270.947 152.484 268.421Z" fill="#214434"/>
<path d="M51.5829 267.425C51.5278 266.835 51.7826 266.376 51.9613 265.878C52.9596 263.186 53.9685 260.5 54.9879 257.819C55.1817 257.337 55.421 256.874 55.7025 256.437C56.1543 255.729 56.8506 255.388 57.6125 255.776C58.3744 256.164 58.2614 256.915 58.0276 257.612C56.9084 260.951 55.8128 264.298 54.3021 267.491C54.2063 267.732 54.0895 267.965 53.9527 268.186C53.5928 268.689 53.0095 269.371 52.555 269.201C52.2119 269.063 51.9274 268.811 51.75 268.487C51.5727 268.163 51.5137 267.788 51.5829 267.425Z" fill="#214434"/>
<path d="M251.805 50.806C251.212 50.8348 250.754 50.5883 250.586 50.0191C250.418 49.4499 250.513 48.9043 251.183 48.6158C254.427 47.2098 257.654 45.7619 260.904 44.398C261.658 44.0832 262.522 43.9967 263.286 44.5475C264.109 45.1377 264.175 46.0242 263.268 46.3836C259.543 47.8735 255.893 49.5653 252.055 50.764C251.973 50.7855 251.89 50.7995 251.805 50.806Z" fill="#214434"/>
<path d="M140.174 290.984C140.135 290.11 140.13 289.491 140.834 289.31C141.153 289.201 141.501 289.206 141.817 289.326C142.133 289.446 142.397 289.672 142.563 289.966C143.035 290.795 143.424 291.676 143.821 292.547C144.633 294.333 145.421 296.13 146.227 297.916C146.451 298.41 146.65 298.89 146.227 299.372C145.731 299.936 145.177 299.635 144.672 299.425C144.084 299.229 143.588 298.824 143.28 298.286C142.134 296.076 141.123 293.799 140.253 291.466C140.194 291.313 140.167 291.148 140.174 290.984Z" fill="#214434"/>
<path d="M97.4824 277.689C97.5428 277.136 97.5192 276.64 97.6663 276.194C97.9054 275.462 98.4545 275.095 99.269 275.1C100.083 275.105 100.244 275.677 100.32 276.317C100.583 278.851 101.694 281.301 101.082 283.924C100.932 284.569 100.922 285.359 100.076 285.38C99.2296 285.401 98.5807 284.805 98.4335 283.955C98.0657 281.854 97.7872 279.735 97.4824 277.689Z" fill="#214434"/>
</g>
<defs>
<clipPath id="clip0_1668_13399">
<rect width="263.931" height="299.689" fill="white"/>
</clipPath>
</defs>
</svg>
