<svg width="100%" height="100%" viewBox="0 0 26 29" fill="none" xmlns="http://www.w3.org/2000/svg">
<path d="M24.4256 17.7976C21.8199 16.2735 18.9683 16.9618 14.3468 14.6019C18.9683 12.242 21.9182 12.8812 24.4256 11.4062C25.8022 10.6196 26.5397 8.75132 25.6547 7.27638C24.7698 5.75227 22.8523 5.55561 21.5249 6.34225C18.87 7.86635 18.0834 10.7671 13.6585 13.5695C13.9535 8.358 15.9693 5.8506 15.9693 3.14654C15.9693 1.57327 14.7402 0 13.0194 0C11.2495 0 10.1187 1.57327 10.1187 3.14654C10.1187 5.8506 12.1836 8.30884 12.4294 13.5203C8.05376 10.7179 7.21796 7.86635 4.56307 6.34225C3.03896 5.50645 1.17071 5.94893 0.38407 7.32554C-0.550059 8.94798 0.38407 10.6687 1.66235 11.4062C4.16975 12.8812 7.21796 12.1928 11.8886 14.6019C7.1688 17.011 4.26808 16.2735 1.66235 17.7976C0.236576 18.5843 -0.500894 20.3542 0.38407 21.8783C1.26904 23.3532 3.18646 23.6482 4.51391 22.9108C7.07047 21.4358 8.0046 18.5351 12.4294 15.6835C12.1836 20.9442 10.1187 23.3532 10.1187 26.0573C10.1187 27.6797 11.2495 29.2038 13.0194 29.2038C14.7402 29.2038 15.9693 27.6797 15.9693 26.0573C15.9693 23.3532 13.9535 20.895 13.6585 15.6344C18.0834 18.4859 19.0175 21.4358 21.5741 22.9108C22.9998 23.6974 24.7698 23.4024 25.6547 21.9275C26.4905 20.5017 25.9497 18.6334 24.4256 17.7976Z" fill="#CDEADA"/>
</svg>
