<svg width="94" height="56" viewBox="0 0 94 56" fill="none" xmlns="http://www.w3.org/2000/svg">
<g clip-path="url(#clip0_2394_14048)">
<path d="M54.9964 9.94352C54.9964 15.0707 50.118 19.4083 44.9907 19.4083C39.8635 19.4083 35.3447 15.0707 35.3447 9.94352C35.3447 4.8163 39.0414 -0.197354 45.3964 0.00546395C51.2105 0.192056 54.9964 4.8163 54.9964 9.94352Z" fill="#FFFEFA"/>
<path d="M45.3963 11.9041C46.6657 11.9041 47.6949 10.875 47.6949 9.60548C47.6949 8.336 46.6657 7.30688 45.3963 7.30688C44.1268 7.30688 43.0977 8.336 43.0977 9.60548C43.0977 10.875 44.1268 11.9041 45.3963 11.9041Z" fill="#214434"/>
<path d="M36.2351 19.8494C36.3703 19.6249 36.9436 19.1409 36.9436 19.1409C36.9436 19.1409 37.7873 18.5676 38.0577 18.4648C38.2146 18.4053 37.5061 18.2052 37.4141 18.262C36.7705 18.6676 35.9025 19.4437 35.5212 19.9521C35.1507 20.4497 34.572 21.4016 34.3935 22.0019C34.0095 23.3081 34.1555 24.5683 34.2366 25.3606C34.2826 25.8122 34.5801 26.829 34.8099 27.2184C35.3238 28.0811 36.9706 29.417 37.8171 29.9551C39.0718 30.7528 41.9464 31.5533 43.3607 32.0157C44.4749 32.3808 46.5625 32.9406 47.6875 33.2651C48.7232 33.5652 50.7676 34.2738 51.8115 34.5496C52.1955 34.6496 53.023 34.6875 53.3664 34.8876C53.8126 35.1472 54.5292 35.9639 54.7185 36.4426C54.8375 36.74 54.8618 37.4404 54.7185 37.7271C54.4265 38.3112 52.9608 39.1116 52.6227 39.282C52.5065 39.3388 52.3523 39.6444 52.4199 39.7552C52.4875 39.8688 53.9748 38.8088 53.9748 38.8088C53.9748 38.8088 55.4351 37.5702 55.7326 37.051C55.9949 36.5913 56.3627 35.4771 56.4411 34.9228C56.5168 34.3954 56.6115 33.2867 56.6088 32.7269C56.6088 32.1807 56.4114 31.1341 56.2031 30.6312C55.8435 29.7631 54.6293 28.2541 53.9045 27.6565C53.4665 27.2968 52.6471 26.902 52.1143 26.71C50.8406 26.253 48.4853 25.5742 47.1791 25.2227C46.1894 24.955 44.1801 24.3114 43.1904 24.0409C42.2682 23.7894 39.9101 23.2486 38.9988 22.9592C38.3552 22.7537 36.7029 22.1453 36.2946 21.6071C35.9241 21.1204 36.0377 20.1604 36.227 19.8494H36.2351Z" fill="#FFFEFA"/>
<path d="M4.16279 45.4233V45.5422C4.16279 46.8673 3.51648 48.041 2.12921 48.041C0.825768 48.041 0.000976562 46.8835 0.000976562 45.5909C0.000976562 44.2983 0.850106 43.103 2.18329 43.103C2.94318 43.103 3.60572 43.506 3.94916 44.2226L3.17845 44.658C2.99997 44.2361 2.62138 43.9116 2.15896 43.9116C1.31794 43.9116 0.901486 44.8121 0.901486 45.5909C0.901486 46.3697 1.32335 47.2324 2.16436 47.2324C2.71062 47.2324 3.16763 46.7348 3.18386 46.1696H2.23467V45.4233H4.16279Z" fill="#FFFEFA"/>
<path d="M16.0832 48.041C14.7202 48.041 13.8711 46.9457 13.8711 45.5666C13.8711 44.1874 14.75 43.103 16.0832 43.103C17.4163 43.103 18.2952 44.1739 18.2952 45.5666C18.2952 46.9593 17.4461 48.041 16.0832 48.041ZM16.0832 44.0062C15.2584 44.0062 14.7716 44.7715 14.7716 45.5287C14.7716 46.2859 15.115 47.1405 16.0832 47.1405C17.0513 47.1405 17.3947 46.2508 17.3947 45.5287C17.3947 44.7688 16.9079 44.0062 16.0832 44.0062Z" fill="#FFFEFA"/>
<path d="M28.2129 43.2305H29.2973C30.1275 43.2305 30.6386 43.5712 30.6386 44.5042C30.6386 44.8395 30.525 45.2262 30.2465 45.4128C30.7738 45.5128 31.0118 46.0726 31.0118 46.5891C31.0118 47.5086 30.3952 47.9196 29.5839 47.9196H28.2156V43.2305H28.2129ZM29.0837 45.1829H29.1891C29.6164 45.1829 29.8246 45.0531 29.8246 44.5664C29.8246 44.0796 29.565 43.9633 29.1972 43.9633H29.0837V45.1829ZM29.0837 47.1841H29.2675C29.7354 47.1841 30.1383 47.1219 30.1383 46.5134C30.1383 45.905 29.6651 45.8806 29.2243 45.8806H29.0809V47.1868L29.0837 47.1841Z" fill="#FFFEFA"/>
<path d="M41.8532 44.0253V45.0583H43.2405V45.8533H41.8532V47.1216H43.2945V47.9167H40.9824V43.2275H43.2945V44.0226H41.8532V44.0253Z" fill="#FFFEFA"/>
<path d="M54.2321 47.1216H55.4652V47.9167H53.3613V43.2275H54.2321V47.1189V47.1216Z" fill="#FFFEFA"/>
<path d="M66.1071 47.9167H65.2363V43.2275H66.1071V47.9167Z" fill="#FFFEFA"/>
<path d="M76.2295 43.1057H76.8596L79.2123 46.3833H79.2231V43.2301H80.0938V48.0112H79.4665L77.1111 44.7337H77.1003V47.9166H76.2295V43.103V43.1057Z" fill="#FFFEFA"/>
<path d="M92.3247 44.2605C92.1597 44.0252 91.9461 43.8765 91.654 43.8765C91.362 43.8765 91.1078 44.1009 91.1078 44.4038C91.1078 45.1934 92.8817 44.8635 92.8817 46.4374C92.8817 47.3757 92.3247 48.041 91.4106 48.041C90.7941 48.041 90.3425 47.6678 90.0342 47.1269L90.5967 46.5482C90.7157 46.9079 91.0293 47.2324 91.4025 47.2324C91.7757 47.2324 91.9785 46.916 91.9785 46.5536C91.9785 46.0696 91.5513 45.9317 91.2024 45.7884C90.6264 45.5396 90.2073 45.234 90.2073 44.5065C90.2073 43.7304 90.7589 43.1003 91.5107 43.1003C91.9082 43.1003 92.4599 43.3059 92.733 43.6223L92.3247 44.255V44.2605Z" fill="#FFFEFA"/>
<path d="M1.67344 55.0986H2.58477V55.4583H1.30566V51.9915H1.67344V55.0986Z" fill="#FFFEFA"/>
<path d="M6.41915 52.0563L5.91886 53.2272L5.68359 53.1299L6.09464 51.9292L6.41915 52.0536V52.0563Z" fill="#FFFEFA"/>
<path d="M10.0898 51.9915H11.8043V52.3511H10.4576V53.3814H11.7638V53.7411H10.4576V55.1013H11.8043V55.461H10.0898V51.9942V51.9915Z" fill="#FFFEFA"/>
<path d="M18.017 52.7513C17.7547 52.4673 17.3897 52.2915 17.0084 52.2915C16.2728 52.2915 15.6752 52.9622 15.6752 53.7248C15.6752 54.4874 16.2755 55.158 17.0165 55.158C17.3897 55.158 17.752 54.9742 18.0143 54.6983V55.177C17.7304 55.3933 17.3788 55.5177 17.0273 55.5177C16.0943 55.5177 15.3047 54.7227 15.3047 53.7383C15.3047 52.754 16.0808 51.9319 17.0273 51.9319C17.3951 51.9319 17.7196 52.0428 18.0143 52.2726V52.7513H18.017Z" fill="#FFFEFA"/>
<path d="M24.9872 53.7302C24.9872 54.7281 24.2084 55.5177 23.2646 55.5177C22.3208 55.5177 21.542 54.7281 21.542 53.7302C21.542 52.7323 22.3208 51.9319 23.2646 51.9319C24.2084 51.9319 24.9872 52.735 24.9872 53.7302ZM21.9098 53.7248C21.9098 54.5063 22.5155 55.158 23.2646 55.158C24.0137 55.158 24.6194 54.5063 24.6194 53.7248C24.6194 52.9433 24.0245 52.2915 23.2646 52.2915C22.5047 52.2915 21.9098 52.9406 21.9098 53.7248Z" fill="#FFFEFA"/>
<path d="M28.9254 55.0986H29.8367V55.4583H28.5576V51.9915H28.9254V55.0986Z" fill="#FFFEFA"/>
<path d="M33.2666 51.9915H34.9811V52.3511H33.6344V53.3814H34.9405V53.7411H33.6344V55.1013H34.9811V55.461H33.2666V51.9942V51.9915Z" fill="#FFFEFA"/>
<path d="M43.0938 51.9915H43.7157C44.2106 51.9915 44.6135 52.0618 45.0029 52.4106C45.3788 52.7513 45.5519 53.2138 45.5519 53.7303C45.5519 54.2468 45.3761 54.6822 45.0138 55.0229C44.6189 55.3907 44.2241 55.461 43.7076 55.461H43.0938V51.9942V51.9915ZM43.7292 55.0986C44.1322 55.0986 44.4702 55.0391 44.7731 54.7417C45.0435 54.4739 45.1841 54.1116 45.1841 53.7249C45.1841 53.3382 45.0408 52.9488 44.7541 52.6864C44.4513 52.4052 44.1187 52.3511 43.7292 52.3511H43.4615V55.0986H43.7292Z" fill="#FFFEFA"/>
<path d="M49.1357 51.9915H50.8502V52.3511H49.5062V53.3814H50.8124V53.7411H49.5062V55.1013H50.8502V55.461H49.1357V51.9942V51.9915Z" fill="#FFFEFA"/>
<path d="M59.3307 55.0986H60.242V55.4583H58.9629V51.9915H59.3307V55.0986Z" fill="#FFFEFA"/>
<path d="M64.0773 52.0563L63.5771 53.2272L63.3418 53.1299L63.7528 51.9292L64.0773 52.0536V52.0563Z" fill="#FFFEFA"/>
<path d="M68.1217 55.4583H67.7539V51.9915H68.1217V55.4583Z" fill="#FFFEFA"/>
<path d="M72.2922 51.7939L73.4929 54.7037L74.699 51.7939L75.3696 55.4582H74.9937L74.5692 53.1136H74.561L73.4956 55.6015L72.4355 53.1136H72.4274L72.0028 55.4582H71.627L72.2976 51.7939H72.2922Z" fill="#FFFEFA"/>
<path d="M79.3532 54.4739L78.9557 55.4582H78.5527L80.0779 51.8264L81.5625 55.4582H81.1542L80.7648 54.4739H79.3532ZM80.0671 52.7269L79.5019 54.1142H80.6188L80.0671 52.7269Z" fill="#FFFEFA"/>
<path d="M88.0599 53.7167C88.068 54.1845 88.0193 54.5712 87.7192 54.939C87.4163 55.3067 86.9566 55.5177 86.4969 55.5177C85.5666 55.5177 84.7959 54.7091 84.7959 53.7356C84.7959 52.7621 85.5666 51.9346 86.5185 51.9346C87.0972 51.9346 87.565 52.205 87.9166 52.6836L87.6489 52.946C87.373 52.5376 86.9999 52.2942 86.5131 52.2942C85.7586 52.2942 85.1637 52.9595 85.1637 53.741C85.1637 54.1088 85.3043 54.4576 85.5504 54.7199C85.7911 54.9741 86.1426 55.1607 86.4888 55.1607C87.062 55.1607 87.6678 54.7199 87.6678 54.0763H86.6862V53.7167H88.0626H88.0599Z" fill="#FFFEFA"/>
<path d="M91.6514 51.9915H93.3659V52.3511H92.0218V53.3814H93.328V53.7411H92.0218V55.1013H93.3659V55.461H91.6514V51.9942V51.9915Z" fill="#FFFEFA"/>
</g>
<defs>
<clipPath id="clip0_2394_14048">
<rect width="93.3637" height="55.6017" fill="white"/>
</clipPath>
</defs>
</svg>
