<svg width="100%" height="100%" viewBox="0 0 796 440" fill="none" xmlns="http://www.w3.org/2000/svg">
<path fill-rule="evenodd" clip-rule="evenodd" d="M493.405 3.88387C535.999 3.19212 611.991 2.31734 662.277 1.93961C712.563 1.56188 762.442 1.13969 773.115 1.00035C783.79 0.863968 793.561 1.32918 794.825 2.03934C797.332 3.44382 793.854 23.1182 784.285 61.6611C780.903 75.2857 773.387 106.097 767.581 130.131C761.77 154.166 756.167 176.308 755.122 179.339C753.1 185.207 730.827 185.849 503.03 186.594C395.101 186.948 359.107 188.663 354.027 193.691C350.236 197.441 355.467 197.927 374.894 195.63C389.151 193.943 404.851 193.84 409.788 195.402C418.053 198.018 418.408 198.818 414.304 205.592C408.472 215.217 404.172 216.731 355.085 226.466C332.254 230.993 310.867 235.79 307.552 237.129C304.24 238.467 292.323 247.955 281.071 258.214C248.208 288.177 220.122 306.914 177.763 327.138C155.945 337.554 137.253 347.469 136.226 349.17C135.197 350.868 138.438 362.441 143.423 374.883C150.055 391.433 151.666 401.515 149.432 412.454C146.296 427.786 145.272 428.556 118.228 435.876C105.237 439.393 94.8293 432.564 91.8464 418.575C90.1036 410.392 88.8554 408.482 88.3018 413.149L87.4473 420.353L83.0196 415.284L78.5918 410.215L80.4574 416.319C82.0091 421.408 81.3877 421.947 76.7128 419.546C72.4322 417.349 72.0127 418.74 74.928 425.411C77.031 430.219 78.9785 432.134 79.2511 429.665C80.0889 422.16 86.8034 421.823 89.757 429.133C91.4339 433.284 90.1914 436.961 86.624 438.402C83.3719 439.716 80.2645 439.686 79.7178 438.333C79.1724 436.983 76.1006 436.938 72.8879 438.236C69.6793 439.532 64.9419 437.976 62.3638 434.773C51.3467 421.078 47.8797 414.041 50.6739 411.06C52.3158 409.313 55.5585 412.221 57.8758 417.525C67.7836 440.175 72.8395 435.903 65.9303 410.722C62.0464 396.569 57.5375 384.638 55.9103 384.208C54.2793 383.78 53.8813 385.734 55.0199 388.552C56.1585 391.37 55.0816 396.99 52.6278 401.04C48.5124 407.832 48.0888 407.613 47.1622 398.214C46.5176 391.682 42.2406 384.876 35.2447 379.25C7.43762 356.888 -2.66766 329.312 10.4985 311.713L16.9326 303.113L7.60813 306.829C0.13856 309.802 -0.771763 309.501 3.04098 305.297C5.65824 302.412 11.8517 298.39 16.8077 296.357C21.761 294.328 31.6984 287.203 38.887 280.527C53.2682 267.173 67.3099 260.084 69.3548 265.145C70.0777 266.934 74.9173 262.263 80.1066 254.77C95.1007 233.127 140.199 179.801 160.758 159.404L179.584 140.73L238.339 120.639L297.099 100.547L343.726 100.431L390.358 100.315L394.605 84.2699C396.941 75.4463 401.968 55.3962 405.775 39.7139C409.582 24.0316 413.431 9.83761 414.33 8.1712C415.23 6.50479 450.812 4.57562 493.405 3.88387ZM410.983 43.5932C408.737 53.4675 404.502 70.0323 401.575 80.4011C398.648 90.7698 396.846 99.2131 397.573 99.1628C414.183 98.0206 426.788 99.463 429.249 102.796C434.606 110.051 424.678 121.229 406.27 128.666C389.643 135.384 388.922 136.255 383.383 156.333C380.24 167.732 378.221 178.433 378.9 180.113C379.579 181.794 401.135 182.792 426.799 182.339C452.463 181.883 493.303 181.574 517.549 181.65C541.796 181.729 598.331 181.213 643.184 180.507C688.037 179.801 729.698 179.468 735.762 179.768C741.827 180.071 747.754 178.626 748.936 176.558C753.481 168.594 791.918 7.09172 789.426 6.43902C787.452 5.9232 574.725 7.62549 483.963 8.88532C414.256 9.85026 419.203 7.49853 410.983 43.5932ZM149.456 179.277C110.896 221.139 72.7315 272.322 71.7685 283.478C71.107 291.124 73.6859 294.784 85.018 302.278C103.197 314.304 118.753 313.8 160.062 299.839C197.163 287.301 206.733 281.014 197.569 275.198C188.841 269.654 193.151 261.449 206.167 258.834C212.249 257.612 217.79 258.013 218.483 259.729C219.176 261.444 223.553 256.559 228.207 248.877C236.372 235.401 244.828 229.636 268.372 221.485C275.87 218.887 278.857 216.226 277.644 213.223C276.546 210.505 279.523 207.307 285.337 204.957C293.114 201.815 294.886 202.433 295.169 208.378C295.404 213.351 296.682 214.391 299.223 211.681C301.266 209.508 302.165 205.819 301.22 203.481C300.276 201.144 302.165 198.159 305.417 196.845C308.669 195.531 311.902 195.874 312.604 197.61C313.304 199.343 317.695 198.725 322.366 196.237C328.074 193.194 330.344 189.153 329.291 183.904C328.433 179.611 330.008 173.296 332.793 169.874C336.866 164.871 328.616 167.478 290.716 183.157C238.685 204.683 195.209 217.9 211.084 207.368C218.543 202.417 216.363 202.434 198.598 207.458C174.001 214.413 171.069 208.654 195.228 200.844C211.827 195.475 213.523 193.387 203.443 190.726C200.019 189.822 199.033 188.392 201.225 187.507C203.393 186.631 207.939 186.646 211.326 187.541C216.115 188.805 216.635 186.88 213.653 178.885C211.358 172.729 211.613 169.944 214.287 171.943C220.489 176.58 233.899 171.501 237.532 163.141C239.192 159.316 241.095 157.364 241.755 158.805C242.419 160.244 245.536 157.586 248.687 152.901C251.935 148.071 255.011 145.854 255.791 147.785C258.163 153.657 278.589 142.894 289.915 129.808L300.758 117.276L313.078 124.718C321.678 129.912 329.142 131.227 337.776 129.069C349.891 126.04 365.606 113.162 363.51 107.974C362.094 104.469 323.655 103.753 315.42 107.08C311.66 108.599 305.305 108.976 301.301 107.919C291.451 105.318 242.533 120.964 225.453 132.179C214.179 139.58 211.526 140.367 210.057 136.733C206.605 128.187 178.052 148.23 149.456 179.277ZM206.8 140.02C208.097 143.23 180.788 166.135 176.892 165.106C175.528 164.749 180.315 159.358 187.529 153.131C194.744 146.907 201.768 140.764 203.142 139.478C204.518 138.196 206.162 138.44 206.8 140.02ZM381.468 116.625C385.255 117.601 396.404 116.608 406.236 114.419C432.379 108.602 427.068 102.278 397.404 103.908C378.178 104.965 373.919 106.09 374.216 110.026C374.416 112.678 377.68 115.649 381.468 116.625ZM303.773 170.078C298.6 174.389 301.272 174.033 314.651 168.628C328.029 163.223 330.198 161.623 323.482 162.114C318.583 162.472 313.688 163.126 312.604 163.564C311.52 164.002 307.546 166.931 303.773 170.078ZM343.501 159.06C349.537 160.653 378.63 156.745 377.708 154.463C377.138 153.054 370.351 152.848 362.621 154.006C346.587 156.404 340.017 158.143 343.501 159.06ZM341.32 166.542C341.577 167.179 344.858 167.379 348.615 166.986C352.53 166.573 353.91 165.439 351.857 164.328C348.41 162.46 340.355 164.154 341.32 166.542ZM76.393 337.381C85.7515 362.893 94.434 381.955 95.7376 379.847C97.0385 377.744 90.2846 356.556 80.7268 332.764C71.169 308.971 63.7001 286.275 64.1324 282.329L64.9199 275.153L62.1695 283.122C60.3097 288.506 64.9237 306.111 76.393 337.381ZM334.841 180.094C337.194 182.127 339.61 185.008 340.211 186.497C341.713 190.214 352.363 185.568 353.971 180.492C356.167 173.545 347.889 169.398 338.992 172.993C332.926 175.444 331.762 177.433 334.841 180.094ZM170.967 259.824C170.503 264.942 171.171 265.029 174.635 260.29C180.306 252.536 186.722 256.068 187.4 267.312C187.785 273.736 186.379 275.522 181.586 274.691C177.081 273.912 174.332 275.133 172.026 278.937C169.548 283.028 168.341 283.163 166.864 279.507C165.804 276.884 163.105 273.153 160.865 271.219C158.358 269.054 159.625 264.993 164.164 260.635C170.645 254.42 171.463 254.322 170.967 259.824ZM75.6228 314.547C79.8811 324.849 88.6869 333.422 90.1755 328.72C92.0096 322.931 80.7362 304.766 76.4001 306.518C74.4686 307.298 74.1168 310.911 75.6228 314.547ZM119.479 363.908C119.256 370.167 126.954 365.761 127.54 359.29C127.851 355.828 126.427 354.833 123.836 356.716C121.522 358.399 119.559 361.633 119.479 363.908ZM37.5929 403.061C38.7912 406.572 38.1391 407.648 35.9325 405.807C33.9334 404.139 33.0476 401.538 33.9609 400.03C34.8742 398.523 36.5071 399.886 37.5929 403.061ZM107.56 431.377C109.88 431.989 108.403 426.596 104.279 419.395L96.7722 406.298L100.059 418.281C101.865 424.872 105.24 430.764 107.56 431.377ZM139.092 403.704C141.953 410.785 133.661 423.763 125.486 425.002C119.337 425.933 119.343 426.198 125.528 426.878C136.446 428.08 138.457 426.407 142.732 412.589C146.935 399.01 145.674 389.897 140.378 395.538C138.615 397.416 138.037 401.092 139.092 403.704Z" fill="#214434"/>
</svg>
