<svg width="100%" height="100%" viewBox="0 0 28 23" fill="none" xmlns="http://www.w3.org/2000/svg">
<path fill-rule="evenodd" clip-rule="evenodd" d="M9.88474 0.221962C5.67855 1.17876 3.96878 3.06034 3.70432 7.01891C3.60493 8.51474 3.57798 8.60065 3.16191 8.76237C-0.481659 10.1773 -0.870778 11.6142 1.45214 15.0708C4.66617 19.8514 9.41982 22.1305 16.1157 22.1019C21.6409 22.0766 25.3973 20.5555 26.8493 17.7508C27.8331 15.8541 27.1239 13.6963 24.774 11.4272C23.4921 10.1908 23.3725 10.0173 23.2816 9.27951C22.756 4.97225 21.6409 3.02497 18.7907 1.43143C16.6379 0.227015 12.3946 -0.349083 9.88474 0.221962ZM16.1123 0.717204C16.712 0.84691 17.2308 1.03726 17.2645 1.14001C17.342 1.37247 18.3055 1.88119 18.4302 1.75654C18.6862 1.5005 19.4628 2.22651 19.2977 2.57015C19.1343 2.9121 19.136 2.9121 19.3937 2.59037C20.2023 1.58135 22.8554 6.06717 22.8554 8.44231C22.8554 9.0302 21.9693 10.078 21.4741 10.078C21.3696 10.078 21.3326 10.1268 21.3915 10.1875C21.4505 10.2481 21.8042 10.0965 22.1748 9.85055C22.5454 9.60462 22.8924 9.40416 22.948 9.40416C23.1737 9.40416 22.9194 10.1352 22.6819 10.1689C22.5404 10.1891 22.1327 10.4048 21.7739 10.6473C21.4168 10.8899 21.0462 11.0887 20.9502 11.0887C20.8542 11.0887 20.8205 11.1325 20.8727 11.1847C20.9249 11.2369 21.2787 11.1223 21.6594 10.9286C22.0384 10.7349 22.35 10.6103 22.35 10.6507C22.35 10.8259 21.0631 11.4963 20.0237 11.8635C19.4038 12.0825 19.0316 12.2628 19.1966 12.2644C19.3617 12.2661 19.7744 12.1516 20.1147 12.0101C20.455 11.8686 20.9923 11.7187 21.3107 11.6782C22.1765 11.5671 22.6516 11.1931 22.5943 10.6692C22.5539 10.3054 22.5875 10.2633 22.7846 10.4267C23.0626 10.6574 23.0929 11.4272 22.8571 12.2678C22.5606 13.3274 20.3943 14.3313 17.9215 14.5554C16.5789 14.6766 16.5166 14.7086 16.7912 15.1315C16.9259 15.3403 16.9546 15.3269 16.9596 15.0472C16.963 14.7676 16.9933 14.7541 17.1281 14.963C17.2376 15.1315 17.2915 15.1449 17.2932 15.0051C17.2948 14.8687 17.561 14.7946 18.0546 14.7946H18.8126L18.8597 16.0579L18.9625 15.3841C19.0872 14.5671 19.5184 14.4644 19.6683 15.2157L19.7694 15.721L19.8384 15.1449C19.9412 14.2842 20.2949 14.2959 20.3724 15.1635L20.4381 15.8895L20.4684 15.1315C20.4971 14.3953 20.5207 14.365 21.2955 14.045C21.7335 13.8647 22.3029 13.4874 22.5589 13.2078C22.8149 12.9281 23.0289 12.7344 23.0339 12.7782C23.039 12.822 23.0828 13.1724 23.1316 13.5564C23.2512 14.4863 22.163 16.3595 21.6796 16.0596C21.5987 16.0091 21.4775 16.0579 21.4118 16.1657C21.3292 16.2988 21.3663 16.319 21.5263 16.2264C21.6644 16.1455 21.7049 16.1523 21.624 16.2399C21.4387 16.4437 20.9502 16.4353 20.7969 16.2264C20.7262 16.1304 20.6723 16.1758 20.6706 16.3342C20.6672 16.6526 19.889 17.0602 18.8075 17.3095C17.7429 17.5554 17.6385 17.5369 17.6132 17.1124L17.5896 16.7334L17.5172 17.1124C17.4768 17.3213 17.3353 17.4914 17.2039 17.4914C17.0725 17.4914 16.9529 17.3213 16.9394 17.1124C16.9175 16.7418 16.9158 16.7418 16.8451 17.0956C16.7541 17.5622 16.5048 17.6161 14.7715 17.5487C12.3643 17.4544 11.9095 17.3584 11.891 16.9339C11.8758 16.5902 11.864 16.5953 11.7394 16.9861C11.6198 17.3617 11.5996 17.3331 11.5608 16.7334C11.5187 16.0933 11.5137 16.0866 11.4496 16.6071C11.3368 17.5184 11.0774 17.2202 11.1565 16.2702C11.2088 15.6486 11.1885 15.5105 11.0892 15.8069L10.9477 16.2281L10.8634 15.7227C10.8163 15.4448 10.8045 15.6351 10.8365 16.1438C10.8769 16.7991 10.85 16.9709 10.7405 16.7334C10.6074 16.4437 10.5855 16.4369 10.5754 16.6913C10.5636 16.9911 10.0582 17.1208 10.0582 16.8227C10.0582 16.7334 9.92517 16.7014 9.76346 16.7519C9.51247 16.8311 9.51584 16.8058 9.79546 16.5784C9.9757 16.4319 10.033 16.3123 9.9218 16.3123C9.69608 16.3123 9.67923 15.4549 9.88979 14.7962C10.0043 14.4374 10.0313 14.488 10.065 15.1331L10.1054 15.8912L10.3463 14.5436L10.4423 16.0596L10.5467 15.3858C10.6175 14.9344 10.7287 14.7289 10.8853 14.7625C11.6737 14.9327 14.4784 14.9984 14.3824 14.8434C14.3234 14.7474 13.4795 14.6143 12.5092 14.5486C10.727 14.4273 8.60115 14.0012 9.62196 13.9691C10.5198 13.9422 9.95549 13.7805 8.76287 13.7249C7.84313 13.6811 7.32599 13.543 6.39109 13.0915C5.73414 12.7748 5.27595 12.6114 5.37534 12.731C5.61791 13.0241 7.44727 13.8799 8.33163 14.114C8.81845 14.2437 9.04923 14.3953 9.04923 14.5924C9.05091 14.8165 9.08461 14.8299 9.19578 14.6547C9.29854 14.4913 9.36423 14.5621 9.42993 14.9057C9.48046 15.1685 9.47541 15.4582 9.41982 15.5492C9.36423 15.6402 9.3137 15.9063 9.30864 16.1405C9.29685 16.7031 8.59273 16.6711 7.67973 16.068C6.94529 15.5812 6.71789 15.5223 7.02783 15.8962C7.20807 16.1135 7.19291 16.1354 6.92171 16.036C6.61008 15.9215 6.61008 15.9265 6.92171 16.282C7.14069 16.5313 7.35799 16.6155 7.61909 16.5498C7.82965 16.4976 8.05369 16.5431 8.12107 16.6542C8.20867 16.7957 8.1396 16.821 7.88693 16.7401C7.23166 16.533 7.51634 16.7806 8.66516 17.4173C9.74324 18.0153 11.1633 18.46 10.9645 18.1383C10.914 18.0557 11.1666 18.0355 11.5389 18.0962C11.9045 18.1551 12.6069 18.1164 13.0971 18.0119C13.7641 17.8688 14.0353 17.8688 14.1701 18.0119C14.3049 18.1534 14.2476 18.172 13.9511 18.0827C13.6765 18.0002 13.5873 18.0204 13.6664 18.1484C13.8214 18.3977 14.822 18.3859 15.0764 18.1332C15.233 17.9766 15.2785 17.9766 15.2785 18.1332C15.2785 18.2444 15.4116 18.3337 15.5733 18.332C15.8024 18.3303 15.8175 18.2966 15.639 18.1838C15.3088 17.9749 15.5817 17.8789 16.5554 17.862C19.2792 17.8182 22.0872 16.6104 23.0306 15.0792L23.322 14.6059L23.6993 15.2157C23.9065 15.5509 24.107 15.7935 24.1457 15.7547C24.2434 15.657 23.6454 14.6312 23.4904 14.6295C23.4214 14.6295 23.3641 14.5149 23.3641 14.3751C23.3641 14.0264 23.6909 14.0567 23.8037 14.4172C23.8543 14.5789 24.0042 14.9125 24.1356 15.1584C24.267 15.4043 24.3748 15.7648 24.3748 15.9585C24.3748 16.1708 24.4826 16.3123 24.6443 16.3123C24.8582 16.3123 24.902 16.1708 24.8515 15.6435C24.769 14.7811 24.9728 15.0001 25.1109 15.9232C25.2204 16.6542 24.9745 17.072 24.6948 16.629C24.614 16.5009 24.5466 16.4774 24.5449 16.5751C24.5449 16.6728 24.6544 16.9002 24.7892 17.0804C24.9256 17.2607 25.0334 17.5218 25.0301 17.6599C25.025 17.825 24.9728 17.7946 24.8785 17.5757C24.7572 17.2943 24.7319 17.3314 24.7218 17.798C24.7151 18.1046 24.6224 18.5223 24.5146 18.7245C24.3344 19.0648 24.3411 19.0732 24.6157 18.8475C24.7791 18.7127 25.0183 18.5864 25.148 18.5678C25.4192 18.5274 25.4647 18.77 25.2154 18.9249C25.1227 18.9822 25.0469 18.935 25.0469 18.8205C25.0469 18.706 24.7757 18.9283 24.4439 19.3174C24.112 19.7049 23.7717 19.9811 23.6875 19.9289C23.5511 19.8447 22.0148 20.6347 22.0148 20.7897C22.0148 20.8251 22.2085 20.7796 22.4477 20.6886C22.9834 20.4848 23.1417 20.4797 22.9345 20.6718C22.1833 21.3641 17.0978 22.1727 15.2785 21.8897L14.352 21.7448L16.0365 21.6589L15.0258 21.5005C12.6793 21.1333 12.083 20.9447 10.2267 19.9761C8.31479 18.9788 6.79032 18.0052 6.92508 17.8704C6.96382 17.8317 7.17101 17.8907 7.38832 18.0018C7.64773 18.1332 7.58035 18.0254 7.19291 17.6852C6.53091 17.104 6.13505 16.9743 6.60334 17.4914C7.07163 18.0086 6.67577 17.8822 6.01376 17.3045C5.69034 17.0215 5.53031 16.8446 5.66002 16.9137C5.78973 16.981 6.17211 17.0535 6.50901 17.072C6.89981 17.0939 7.2923 17.264 7.58877 17.5386C7.97452 17.8974 9.9976 18.6807 10.503 18.6672C10.7708 18.6605 9.13009 17.9597 8.79319 17.9361C8.60789 17.9227 8.16992 17.6852 7.81786 17.4072C6.88802 16.6694 5.52021 15.3824 6.00871 15.7025C6.52585 16.0411 6.68756 16.0461 6.68756 15.7244C6.68756 15.5863 6.28497 15.246 5.79141 14.9681C4.44887 14.21 4.20967 13.8782 4.12713 12.6485L4.05469 11.594L4.57015 12.0589C5.0317 12.475 5.04855 12.4801 4.73186 12.1027C4.10691 11.3582 4.08838 11.188 4.67796 11.626C5.5101 12.2425 5.75772 12.3706 5.58927 12.0994C5.48989 11.9393 5.52694 11.9056 5.71729 11.9781C5.86384 12.0337 6.19737 12.0219 6.46016 11.9511C6.92845 11.8248 5.93965 11.4576 5.44609 11.5738C5.36692 11.5923 5.19678 11.5199 5.06708 11.4138C4.88515 11.2638 4.83125 11.2706 4.82619 11.4491C4.82282 11.6007 4.73355 11.5654 4.56173 11.343C4.41855 11.1577 4.23662 11.023 4.15745 11.0449C4.07828 11.0668 4.01763 10.868 4.02606 10.6052C4.0328 10.3424 3.98563 10.0409 3.91993 9.93309C3.67231 9.53218 3.97384 9.11274 4.45729 9.18517L4.91716 9.25424L4.07491 8.71183L4.54657 8.78426C5.01486 8.85501 5.01654 8.85333 4.67964 8.5417C4.49435 8.36819 4.26189 8.2267 4.16587 8.2267C4.06985 8.2267 3.99068 8.14247 3.99068 8.03972C3.99068 7.93696 4.11365 7.8999 4.27536 7.96223C4.52467 8.05825 4.5213 8.02793 4.24841 7.7264C3.81549 7.248 4.07154 7.0745 4.54994 7.52258C4.76387 7.72303 5.03507 7.88811 5.1513 7.88811C5.41408 7.88811 5.14119 7.60512 4.45392 7.16546C3.88961 6.80498 3.83739 6.47145 4.3697 6.62979C4.71839 6.73423 4.72344 6.72412 4.45055 6.51356C4.22651 6.34174 4.17766 6.15139 4.25852 5.75385L4.36464 5.22324L5.23047 5.62752C5.70719 5.84987 6.21085 6.02843 6.34898 6.02506C6.48879 6.02169 6.2597 5.88356 5.84363 5.72016C4.77734 5.29904 4.3478 4.9992 4.4455 4.74315C4.50951 4.5747 4.63248 4.60166 4.9559 4.8577C5.19005 5.04299 5.4663 5.18955 5.57074 5.18618C5.6735 5.18281 5.55895 5.07163 5.3147 4.93856C4.81777 4.66904 4.62574 4.30855 4.77229 3.92449C4.85315 3.71393 4.91716 3.7055 5.13109 3.88238C5.35681 4.06935 5.3686 4.05419 5.21194 3.75941C4.91547 3.20184 5.70213 2.31748 6.14179 2.71502C6.31529 2.87336 6.52417 3.00138 6.60334 3.00138C6.68251 3.00138 6.60165 2.89189 6.42141 2.75882C4.51288 1.34215 11.864 -0.205901 16.1123 0.717204ZM2.85533 9.57429C1.51784 10.3407 1.20789 11.1678 1.7183 12.6148C2.78964 15.6486 9.14188 20.4999 13.306 21.4618L14.347 21.7027L12.9152 21.6286C9.56806 21.4534 4.74534 18.7632 2.91934 16.0529C2.71889 15.7564 2.22701 15.0809 1.8261 14.5554C-0.166658 11.9292 0.185402 9.82192 2.72563 9.18854C3.62009 8.96619 3.66894 9.10769 2.85533 9.57429ZM25.0789 12.2105C26.5714 13.7434 27.3479 16.6509 26.5613 17.7593C26.3254 18.0911 26.3086 18.0389 26.3002 16.9962C26.2884 15.6233 25.6112 14.0399 24.6106 13.041C24.2485 12.6788 23.9503 12.2998 23.9486 12.1987C23.9469 12.096 23.8139 12.0353 23.6538 12.0623C23.4938 12.0892 23.3574 12.0134 23.3506 11.8938C23.3439 11.7742 23.3102 11.5283 23.2765 11.3481C23.1198 10.5058 23.6875 10.777 25.0823 12.2088L25.0789 12.2105Z" fill="#214434"/>
</svg>
