<svg width="39" height="24" viewBox="0 0 39 24" fill="none" xmlns="http://www.w3.org/2000/svg">
<path d="M11.4452 0.652665C7.47546 0.652665 4.69661 3.36535 3.96882 6.27652C2.97638 10.3786 5.22592 13.0913 8.33558 13.8191C6.61534 16.5979 4.03498 19.1121 0.991487 21.097L2.31475 23.6112C9.98965 19.8399 16.2751 14.2161 17.5322 9.12153C18.9217 3.43151 15.5473 0.652665 11.4452 0.652665ZM30.8935 0.652665C26.9238 0.652665 24.1449 3.36535 23.4171 6.27652C22.4247 10.3786 24.6742 13.0913 27.7839 13.8191C26.0636 16.5979 23.4833 19.1121 20.4398 21.097L21.763 23.6112C29.4379 19.8399 35.7234 14.2161 36.9805 9.12153C38.37 3.43151 34.9956 0.652665 30.8935 0.652665Z" fill="#214434" fill-opacity="0.3"/>
</svg>
