<svg width="92" height="4" viewBox="0 0 92 4" fill="none" xmlns="http://www.w3.org/2000/svg">
<path d="M78.183 1.4388C78.7541 1.14942 79.3861 0.829589 80.4294 0.829589C81.4727 0.829589 82.1047 1.14942 82.6759 1.4388C83.1708 1.68248 83.5744 1.8957 84.237 1.8957C84.9223 1.8957 85.3031 1.70532 85.7981 1.4388C86.3692 1.15704 86.9936 0.829589 88.0445 0.82959C89.0954 0.82959 89.7198 1.14942 90.291 1.4388C90.7859 1.69009 91.1819 1.8957 91.8521 1.8957L91.8521 3.36541C90.824 3.36541 90.1767 3.03797 89.6056 2.75621C89.1106 2.50491 88.7146 2.2993 88.0445 2.2993C87.3744 2.2993 86.9784 2.48968 86.4834 2.75621C85.9123 3.04558 85.2878 3.36541 84.237 3.36541C83.1861 3.36541 82.5616 3.03797 81.9905 2.75621C81.4955 2.51252 81.0919 2.2993 80.4294 2.2993C79.7441 2.2993 79.3633 2.48968 78.8683 2.75621C78.2972 3.04558 77.6651 3.36541 76.6219 3.36541L76.6219 1.88047C77.3072 1.88047 77.688 1.69009 78.183 1.4388Z" fill="#214434"/>
<path d="M62.9493 1.4388C63.5205 1.14942 64.1525 0.829589 65.1958 0.829589C66.239 0.829589 66.8711 1.14942 67.4422 1.4388C67.9372 1.68248 68.3408 1.8957 69.0033 1.8957C69.6887 1.8957 70.0694 1.70532 70.5644 1.4388C71.1355 1.15704 71.76 0.829589 72.8109 0.82959C73.8617 0.82959 74.4862 1.14942 75.0573 1.4388C75.5523 1.69009 75.9483 1.8957 76.6184 1.8957L76.6184 3.36541C75.5904 3.36541 74.9431 3.03797 74.372 2.75621C73.877 2.50491 73.481 2.2993 72.8109 2.2993C72.1407 2.2993 71.7448 2.48968 71.2498 2.75621C70.6786 3.04558 70.0542 3.36541 69.0033 3.36541C67.9524 3.36541 67.328 3.03797 66.7569 2.75621C66.2619 2.51252 65.8583 2.2993 65.1958 2.2993C64.5104 2.2993 64.1297 2.48968 63.6347 2.75621C63.0635 3.04558 62.4315 3.36541 61.3882 3.36541L61.3882 1.88047C62.0736 1.88047 62.4543 1.69009 62.9493 1.4388Z" fill="#214434"/>
<path d="M47.7197 1.4388C48.2908 1.14942 48.9229 0.829589 49.9662 0.829589C51.0094 0.829589 51.6415 1.14942 52.2126 1.4388C52.7076 1.68248 53.1112 1.8957 53.7737 1.8957C54.4591 1.8957 54.8398 1.70532 55.3348 1.4388C55.9059 1.15704 56.5304 0.829589 57.5812 0.82959C58.6321 0.82959 59.2566 1.14942 59.8277 1.4388C60.3227 1.69009 60.7187 1.8957 61.3888 1.8957L61.3888 3.36541C60.3608 3.36541 59.7135 3.03797 59.1423 2.75621C58.6474 2.50491 58.2514 2.2993 57.5812 2.2993C56.9111 2.2993 56.5151 2.48968 56.0202 2.75621C55.449 3.04558 54.8246 3.36541 53.7737 3.36541C52.7228 3.36541 52.0984 3.03797 51.5273 2.75621C51.0323 2.51252 50.6287 2.2993 49.9662 2.2993C49.2808 2.2993 48.9 2.48968 48.4051 2.75621C47.8339 3.04558 47.2019 3.36541 46.1586 3.36541L46.1586 1.88047C46.844 1.88047 47.2247 1.69009 47.7197 1.4388Z" fill="#214434"/>
<path d="M17.2602 1.4388C17.8314 1.14942 18.4634 0.829589 19.5067 0.829589C20.55 0.829589 21.182 1.14942 21.7531 1.4388C22.2481 1.68248 22.6517 1.8957 23.3142 1.8957C23.9996 1.8957 24.3803 1.70532 24.8753 1.4388C25.4465 1.15704 26.0709 0.829589 27.1218 0.82959C28.1727 0.82959 28.7971 1.14942 29.3682 1.4388C29.8632 1.69009 30.2592 1.8957 30.9293 1.8957L30.9293 3.36541C29.9013 3.36541 29.254 3.03797 28.6829 2.75621C28.1879 2.50491 27.7919 2.2993 27.1218 2.2993C26.4516 2.2993 26.0557 2.48968 25.5607 2.75621C24.9896 3.04558 24.3651 3.36541 23.3142 3.36541C22.2633 3.36541 21.6389 3.03797 21.0678 2.75621C20.5728 2.51252 20.1692 2.2993 19.5067 2.2993C18.8213 2.2993 18.4406 2.48968 17.9456 2.75621C17.3745 3.04558 16.7424 3.36541 15.6991 3.36541L15.6991 1.88047C16.3845 1.88047 16.7653 1.69009 17.2602 1.4388Z" fill="#214434"/>
<path d="M32.49 1.4388C33.0611 1.14942 33.6932 0.829589 34.7364 0.829589C35.7797 0.829589 36.4117 1.14942 36.9829 1.4388C37.4779 1.68248 37.8815 1.8957 38.544 1.8957C39.2293 1.8957 39.6101 1.70532 40.1051 1.4388C40.6762 1.15704 41.3006 0.829589 42.3515 0.82959C43.4024 0.82959 44.0268 1.14942 44.598 1.4388C45.0929 1.69009 45.4889 1.8957 46.1591 1.8957L46.1591 3.36541C45.131 3.36541 44.4837 3.03797 43.9126 2.75621C43.4176 2.50491 43.0216 2.2993 42.3515 2.2993C41.6814 2.2993 41.2854 2.48968 40.7904 2.75621C40.2193 3.04558 39.5948 3.36541 38.544 3.36541C37.4931 3.36541 36.8686 3.03797 36.2975 2.75621C35.8025 2.51252 35.3989 2.2993 34.7364 2.2993C34.0511 2.2993 33.6703 2.48968 33.1753 2.75621C32.6042 3.04558 31.9721 3.36541 30.9289 3.36541L30.9289 1.88047C31.6142 1.88047 31.995 1.69009 32.49 1.4388Z" fill="#214434"/>
<path d="M2.03453 1.4388C2.60566 1.14942 3.23771 0.829589 4.28098 0.829589C5.32425 0.829589 5.9563 1.14942 6.52743 1.4388C7.02241 1.68248 7.42601 1.8957 8.08852 1.8957C8.77388 1.8957 9.15464 1.70532 9.64962 1.4388C10.2207 1.15704 10.8452 0.829589 11.8961 0.82959C12.947 0.82959 13.5714 1.14942 14.1425 1.4388C14.6375 1.69009 15.0335 1.8957 15.7036 1.8957L15.7036 3.36541C14.6756 3.36541 14.0283 3.03797 13.4572 2.75621C12.9622 2.50491 12.5662 2.2993 11.8961 2.2993C11.2259 2.2993 10.83 2.48968 10.335 2.75621C9.76384 3.04558 9.13941 3.36541 8.08852 3.36541C7.03764 3.36541 6.4132 3.03797 5.84207 2.75621C5.34709 2.51252 4.94349 2.2993 4.28098 2.2993C3.59562 2.2993 3.21487 2.48968 2.71989 2.75621C2.14875 3.04558 1.5167 3.36541 0.473433 3.36541L0.473433 1.88047C1.15879 1.88047 1.53954 1.69009 2.03453 1.4388Z" fill="#214434"/>
</svg>
