<svg width="85" height="59" viewBox="0 0 85 59" fill="none" xmlns="http://www.w3.org/2000/svg">
<g clip-path="url(#clip0_115_2)">
<path d="M42.358 -2.65073e-05C40.362 0.0191424 38.4163 0.634506 36.7659 1.76855C35.1155 2.9026 33.8342 4.50462 33.0835 6.3728C32.3328 8.24099 32.1462 10.2918 32.5472 12.2669C32.9482 14.242 33.9189 16.0531 35.337 17.472C36.7551 18.8909 38.5572 19.8542 40.5162 20.2406C42.4753 20.6269 44.5038 20.4191 46.3461 19.6431C48.1885 18.8672 49.7623 17.5579 50.8693 15.8802C51.9764 14.2025 52.5671 12.2314 52.5672 10.2152C52.5545 7.49381 51.4723 4.88895 49.5587 2.97335C47.645 1.05775 45.0565 -0.0117617 42.3623 -2.65073e-05M42.3842 12.471C41.9433 12.4675 41.5132 12.3322 41.1483 12.0823C40.7833 11.8323 40.4998 11.4788 40.3334 11.0663C40.1671 10.6538 40.1253 10.2008 40.2135 9.76435C40.3016 9.32793 40.5157 8.92764 40.8287 8.61392C41.1417 8.3002 41.5396 8.0871 41.9724 8.00148C42.4051 7.91586 42.8532 7.96156 43.2603 8.1328C43.6674 8.30404 44.0151 8.59318 44.2598 8.96375C44.5044 9.33433 44.6349 9.76976 44.635 10.2152C44.6315 10.8154 44.3927 11.3898 43.9708 11.8126C43.549 12.2354 42.9785 12.4722 42.3842 12.471" fill="#1ECA9A"/>
<path d="M49.5866 40.7019L49.9975 40.4988C50.4039 40.2913 52.4143 39.1745 52.0166 37.7662C51.7107 36.6803 50.3427 36.2388 50.3427 36.2388C50.3427 36.2388 41.8379 33.6916 36.5585 31.97C31.0998 30.2042 30.9338 26.2885 30.8769 25.5778C30.7616 24.3 31.0255 23.0164 31.6349 21.8906C32.2444 20.7648 33.1717 19.8477 34.299 19.2562L34.5524 19.1326L34.6486 19.2871L34.465 19.3798C34.1853 19.521 32.5683 20.426 32.7868 21.587C33.0053 22.7481 34.4301 23.1189 34.4301 23.1189C34.4301 23.1189 42.9524 25.6881 48.1968 27.4098C53.6599 29.1756 53.8216 33.0913 53.8784 33.802C54.0245 35.199 53.7402 36.6075 53.0644 37.8353C52.3886 39.063 51.3542 40.0502 50.1023 40.6622L49.6872 40.8608L49.5866 40.7019Z" fill="#1ECA9A"/>
<path d="M6.48568 45.0104C6.23483 44.6762 5.91119 44.4048 5.53983 44.2173C5.16848 44.0297 4.75937 43.931 4.34418 43.9288C3.64992 43.9273 2.97826 44.178 2.4518 44.6351C2.16435 44.895 1.93267 45.2116 1.77106 45.5654C1.60945 45.9192 1.52134 46.3028 1.51216 46.6923C1.52709 47.4028 1.80822 48.0812 2.29883 48.5905C2.57052 48.8792 2.8972 49.1093 3.25921 49.2671C3.62122 49.4249 4.01109 49.5071 4.40537 49.5088C4.89587 49.4993 5.37512 49.3587 5.7943 49.1012C6.21348 48.8438 6.5576 48.4787 6.79161 48.0432H3.37832V46.6261H8.70148V46.8027C8.59313 47.8957 8.08524 48.9086 7.27703 49.6436C6.46882 50.3786 5.41836 50.7828 4.33086 50.7773C3.24337 50.7718 2.19698 50.3569 1.39612 49.6138C0.595263 48.8706 0.0974714 47.8526 0 46.7585C0.0198825 45.7635 0.373732 44.8047 1.00359 44.0393C1.63344 43.274 2.50195 42.7474 3.46685 42.5458C4.43174 42.3442 5.43582 42.4795 6.31458 42.9297C7.19335 43.3799 7.89471 44.1182 8.30377 45.0236L6.48568 45.0104Z" fill="#1ECA9A"/>
<path d="M19.9815 46.7364C19.9532 47.452 19.6519 48.1287 19.1407 48.6249C18.6295 49.121 17.948 49.3981 17.2391 49.3981C16.5301 49.3981 15.8487 49.121 15.3374 48.6249C14.8262 48.1287 14.5249 47.452 14.4966 46.7364C14.4908 46.3711 14.5574 46.0082 14.6926 45.6693C14.8278 45.3303 15.0288 45.0222 15.2838 44.763C15.5388 44.5038 15.8426 44.2988 16.1773 44.16C16.512 44.0213 16.8708 43.9517 17.2325 43.9553V43.92C17.5965 43.9206 17.9569 43.9937 18.2929 44.1352C18.6289 44.2767 18.9339 44.4838 19.1905 44.7447C19.4471 45.0055 19.6502 45.3149 19.7882 45.6552C19.9262 45.9955 19.9963 46.3599 19.9946 46.7276M17.2456 42.4499C16.4144 42.4595 15.6044 42.717 14.9176 43.1901C14.2308 43.6632 13.6977 44.3308 13.3853 45.109C13.073 45.8872 12.9953 46.7413 13.162 47.5639C13.3287 48.3866 13.7324 49.1411 14.3223 49.7328C14.9123 50.3244 15.6621 50.7267 16.4778 50.8892C17.2934 51.0517 18.1383 50.967 18.9065 50.6459C19.6746 50.3248 20.3317 49.7815 20.7951 49.0844C21.2585 48.3873 21.5076 47.5673 21.5111 46.7276C21.5112 46.1632 21.4006 45.6045 21.1859 45.0834C20.9711 44.5624 20.6565 44.0895 20.26 43.6919C19.8635 43.2942 19.393 42.9798 18.8757 42.7666C18.3583 42.5535 17.8043 42.4459 17.2456 42.4499Z" fill="#1ECA9A"/>
<path d="M28.5038 49.3102V47.2221H29.1637C29.5285 47.1875 29.8961 47.2436 30.2345 47.3854C30.399 47.4536 30.539 47.5708 30.6358 47.7215C30.7327 47.8722 30.7817 48.0491 30.7764 48.2286C30.7857 48.3848 30.7538 48.5406 30.684 48.6803C30.6141 48.8199 30.5087 48.9382 30.3787 49.0232C30.0007 49.2453 29.5646 49.3454 29.1287 49.3102H28.5038ZM26.9872 50.7802H29.0326C29.8149 50.7802 30.6453 50.714 31.2965 50.2416C31.6051 50.0218 31.8568 49.7301 32.0303 49.3913C32.2037 49.0524 32.2938 48.6763 32.2929 48.2948C32.3107 47.8551 32.1834 47.4219 31.9311 47.0631C31.6788 46.7044 31.3157 46.4404 30.8988 46.3127C31.1757 46.1633 31.4049 45.9375 31.5596 45.6616C31.7144 45.3857 31.7883 45.0711 31.7728 44.7544C31.7629 44.3726 31.6508 44.0007 31.4484 43.6782C31.246 43.3556 30.9609 43.0944 30.6234 42.9224C29.9303 42.6431 29.1809 42.5356 28.4382 42.6089H26.9872V50.7802ZM28.5038 45.7432V44.0745H28.7791C29.1114 44.0322 29.4488 44.0577 29.7712 44.1496C29.917 44.2023 30.0435 44.2985 30.134 44.4254C30.2246 44.5523 30.2748 44.7039 30.2782 44.8603C30.2788 45.0168 30.2357 45.1703 30.1537 45.3031C30.0718 45.4359 29.9543 45.5425 29.8149 45.6108C29.4838 45.7192 29.1349 45.7612 28.7878 45.7344L28.5038 45.7432Z" fill="#1ECA9A"/>
<path d="M38.311 42.6089H42.6989V44.0833H39.8231V45.9639H42.5721V47.434H39.8231V49.3101H42.6989V50.7802H38.311V42.6089Z" fill="#1ECA9A"/>
<path d="M49.1234 42.6089H50.6399V49.3101H53.1354V50.7802H49.1234V42.6089Z" fill="#1ECA9A"/>
<path d="M60.2679 42.6089H58.7557V50.7757H60.2679V42.6089Z" fill="#1ECA9A"/>
<path d="M67.0638 42.6089H68.7683L72.1685 48.5773V42.6089H73.6806V50.7802H72.0024L68.576 44.8338V50.7802H67.0638V42.6089Z" fill="#1ECA9A"/>
<path d="M81.2939 48.4846C81.3276 48.7532 81.4572 49.0003 81.6584 49.1793C81.8595 49.3584 82.1184 49.4572 82.3865 49.4572C82.6546 49.4572 82.9135 49.3584 83.1147 49.1793C83.3158 49.0003 83.4454 48.7532 83.4791 48.4846C83.4791 47.6017 82.7318 47.3191 82.0544 47.1028C81.5282 46.9784 81.0422 46.72 80.6427 46.3524C80.3239 46.0215 80.1112 45.6013 80.0325 45.1465C79.9538 44.6917 80.0127 44.2235 80.2015 43.803C80.3902 43.3825 80.7002 43.0293 81.0907 42.7895C81.4813 42.5497 81.9345 42.4344 82.3909 42.4588C83.0095 42.4538 83.6054 42.6935 84.0513 43.1266C84.4973 43.5597 84.7578 44.1518 84.7771 44.7764H83.2169C83.2124 44.66 83.1852 44.5457 83.1368 44.44C83.0884 44.3343 83.0197 44.2394 82.9348 44.1606C82.8499 44.0818 82.7504 44.0208 82.6421 43.981C82.5337 43.9412 82.4187 43.9235 82.3035 43.9288C82.1907 43.9248 82.0785 43.9455 81.9744 43.9895C81.8703 44.0334 81.7768 44.0996 81.7005 44.1835C81.6241 44.2674 81.5665 44.3669 81.5318 44.4754C81.4971 44.5838 81.486 44.6985 81.4993 44.8117C81.4993 45.4077 82.0413 45.6416 82.522 45.8094C83.0956 45.9564 83.6367 46.211 84.1172 46.5598C84.4014 46.7746 84.6295 47.0561 84.7818 47.3799C84.934 47.7037 85.006 48.0602 84.9913 48.4184C84.9772 49.1105 84.6979 49.7702 84.2123 50.2588C83.7267 50.7473 83.0724 51.0266 82.3871 51.0381C81.7018 51.0495 81.0388 50.7921 80.5375 50.3201C80.0361 49.848 79.7355 49.198 79.6987 48.5066L81.2939 48.4846Z" fill="#1ECA9A"/>
<path d="M2.92818 58.894H0.0961609V53.3185H0.677425V58.4879H2.92818V58.894Z" fill="#1ECA9A"/>
<path d="M3.90277 53.345H4.46219L3.88966 54.8768H3.5881L3.90277 53.345Z" fill="#1ECA9A"/>
<path d="M8.96807 55.7862V56.188H7.0582V58.4879H9.56681V58.8941H6.47256V53.3185H9.48814V53.7202H7.0582V55.7862H8.96807ZM8.06339 53.1022H7.62635L8.45673 52.365H9.23466L8.06339 53.1022Z" fill="#1ECA9A"/>
<path d="M16.5595 57.5564C16.3036 57.9943 15.9385 58.3569 15.5006 58.6078C15.0627 58.8588 14.5674 58.9894 14.064 58.9867C13.3248 59.0085 12.6029 58.7592 12.0317 58.2848C11.4646 57.7062 11.1465 56.9249 11.1465 56.1107C11.1465 55.2964 11.4646 54.5151 12.0317 53.9365C12.6105 53.4424 13.3503 53.1828 14.1077 53.2081C14.5829 53.1777 15.0567 53.2865 15.4723 53.5214C15.8878 53.7563 16.2274 54.1074 16.4502 54.5325L15.8515 54.6517C15.6958 54.3201 15.4471 54.0421 15.1363 53.8522C14.8255 53.6622 14.4663 53.5687 14.1033 53.5834C12.9102 53.5834 11.752 54.2985 11.752 56.0952C11.752 57.8919 12.884 58.6027 14.0727 58.6027C14.4674 58.5947 14.8526 58.4788 15.1874 58.2674C15.5221 58.0559 15.7939 57.7569 15.9738 57.4019L16.5595 57.5564Z" fill="#1ECA9A"/>
<path d="M20.6152 53.5878C21.8083 53.5878 22.9359 54.3338 22.9359 56.0996C22.9359 57.8654 21.8083 58.6027 20.6152 58.6027C19.4221 58.6027 18.2989 57.8566 18.2989 56.0996C18.2989 54.3427 19.4221 53.5878 20.6108 53.5878H20.6152ZM17.6958 56.1041C17.6958 58.0994 19.0331 59 20.6152 59C22.1973 59 23.5346 58.1171 23.5346 56.1041C23.5346 54.091 22.1973 53.2081 20.6152 53.2081C19.0331 53.2081 17.6958 54.091 17.6958 56.0996V56.1041Z" fill="#1ECA9A"/>
<path d="M28.093 58.894H25.2653V53.3185H25.8466V58.4879H28.093V58.894Z" fill="#1ECA9A"/>
<path d="M32.3978 55.7862V56.1879H30.4879V58.4879H32.9965V58.894H29.9023V53.3185H32.9222V53.7202H30.4879V55.7862H32.3978Z" fill="#1ECA9A"/>
<path d="M37.5199 58.4923V53.7158H38.6694C40.2558 53.7158 40.9114 54.5766 40.9114 56.104C40.9114 57.6315 40.1815 58.4923 38.6781 58.4923H37.5199ZM38.7174 58.894C40.6885 58.894 41.5101 57.8787 41.5101 56.0952C41.5101 54.3117 40.636 53.3185 38.6999 53.3185H36.9518V58.894H38.7174Z" fill="#1ECA9A"/>
<path d="M46.0728 55.7862V56.1879H44.1586V58.4879H46.6672V58.894H43.5729V53.3185H46.5929V53.7202H44.1586V55.7862H46.0728Z" fill="#1ECA9A"/>
<path d="M53.2228 58.894H50.3951V53.3185H50.9764V58.4879H53.2228V58.894Z" fill="#1ECA9A"/>
<path d="M54.228 53.4951H54.783L54.2193 55.027H53.9133L54.228 53.4951Z" fill="#1ECA9A"/>
<path d="M57.5626 53.3185H56.9682V58.894H57.5626V53.3185Z" fill="#1ECA9A"/>
<path d="M63.3184 58.2981C63.6593 57.3798 64.328 55.773 65.3463 53.3185H66.2466V58.894H65.7003C65.7003 56.3645 65.7003 54.6605 65.7265 53.7599H65.6784C65.3332 54.6428 64.647 56.3203 63.5675 58.894H63.0125C61.9636 56.3601 61.2643 54.6561 60.9016 53.7599H60.871C60.8972 54.6428 60.8972 56.3601 60.8972 58.894H60.3509V53.3185H61.2556C62.2695 55.7906 62.9425 57.3842 63.2791 58.2981H63.3184Z" fill="#1ECA9A"/>
<path d="M71.6353 56.7353H69.2622L69.8566 55.2123C70.0489 54.7311 70.2412 54.2411 70.4247 53.7114H70.4684C70.6607 54.2499 70.8574 54.74 71.0497 55.23L71.6353 56.7353ZM71.8101 57.1282L72.5269 58.894H73.1824L70.818 53.3185H70.0882L67.7325 58.894H68.3794L69.0874 57.1282H71.8101Z" fill="#1ECA9A"/>
<path d="M79.8385 58.2982C79.0983 58.7757 78.2342 59.02 77.3562 59.0001C75.5381 59.0001 74.2401 57.9229 74.2401 56.1041C74.2401 54.0337 75.844 53.2082 77.3824 53.2082C77.8418 53.1897 78.2992 53.2784 78.7192 53.4675C79.1391 53.6566 79.5102 53.941 79.8036 54.2986L79.2092 54.4796C79.0071 54.1911 78.736 53.9588 78.4212 53.8045C78.1064 53.6501 77.7581 53.5786 77.4086 53.5967C76.2985 53.5967 74.8388 54.2633 74.8388 56.1086C74.8388 57.6978 75.9532 58.6204 77.4086 58.6204C78.0561 58.6327 78.6949 58.468 79.2573 58.1437V56.6824H77.579V56.2896H79.8385V58.2982Z" fill="#1ECA9A"/>
<path d="M84.3488 55.7862V56.1879H82.4346V58.4879H84.9388V58.894H81.8489V53.3185H84.8645V53.7202H82.4346V55.7862H84.3488Z" fill="#1ECA9A"/>
</g>
<defs>
<clipPath id="clip0_115_2">
<rect width="85" height="59" fill="white"/>
</clipPath>
</defs>
</svg>
