<svg width="93" height="48" viewBox="0 0 93 48" fill="none" xmlns="http://www.w3.org/2000/svg">
<path d="M58.9128 42.5053C54.875 42.5053 50.9236 42.5658 46.9809 42.4318C46.4751 42.4318 45.6839 41.4634 45.5715 40.8495C44.5988 34.9138 43.7472 28.9522 42.3897 22.8652C41.1749 25.2386 39.9385 27.6207 38.7453 29.9898C36.9122 33.6601 35.0619 37.3175 33.3111 41.0268C32.7663 42.1811 32.0444 42.5442 30.8079 42.5399C22.4556 42.488 14.1033 42.5399 5.73364 42.488C1.08625 42.4534 -0.96725 40.067 0.433453 35.6834C3.33861 26.648 6.58963 17.725 9.74553 8.76739C9.84947 8.52249 10.0097 8.30558 10.2133 8.1343C10.4169 7.96303 10.658 7.84222 10.9171 7.78171C14.9982 7.70822 19.0835 7.73416 23.5148 7.73416C22.1054 11.8152 20.8042 15.6023 19.4899 19.4067C18.6253 21.9184 17.7607 24.4475 16.8355 26.9333C16.2778 28.4075 16.8355 28.9522 18.2449 28.9911H18.6772C25.7023 29.2332 25.7109 29.2332 28.8625 22.8868C31.1279 18.2956 33.3673 13.7001 35.6715 9.14351C35.9568 8.57717 36.5794 7.8163 37.0808 7.79036C42.8609 7.47477 48.6539 7.28887 53.5737 11.1495C54.1443 11.5818 54.7626 12.3037 54.8706 12.9652C56.3232 22.5669 57.6936 32.1816 59.0771 41.7963C59.049 42.038 58.9939 42.2759 58.9128 42.5053V42.5053Z" fill="#1ECA9A"/>
<path d="M92.0325 29.7087C86.2092 32.121 84.6831 36.8895 84.856 42.7776C81.6699 40.616 78.3713 41.0916 75.103 41.6061C68.0952 42.7171 61.4418 44.9868 54.9139 48C55.29 47.5677 55.6401 47.1051 56.0465 46.7031C59.6607 43.0846 63.331 39.518 66.8803 35.839C67.5318 35.1289 67.9061 34.2082 67.9352 33.2451C67.6845 21.3391 61.5153 13.432 50.9409 8.68522C43.1592 5.19643 34.9193 4.14591 26.4632 4.44853C25.097 4.49608 23.7309 4.59551 22.3648 4.65604C21.9813 4.60824 21.6025 4.52871 21.2321 4.41827C28.5042 3.24527 35.8919 2.96074 43.2327 3.57093C45.9606 3.78708 48.6885 4.10268 51.4164 4.11132C52.4064 4.11132 53.4051 3.36774 54.3994 2.96568C53.7034 2.21346 53.016 1.4569 52.307 0.721967C52.0822 0.488517 51.7839 0.324237 51.6585 0C65.1612 4.52202 73.1922 13.8082 75.7515 27.8584C80.8009 24.8322 83.9655 15.451 81.7823 10.1335C80.3902 6.74412 77.0657 4.69495 73.136 4.82897C72.359 4.8844 71.5795 4.8945 70.8015 4.85923C72.826 4.2191 74.96 3.99897 77.0726 4.21231C79.1853 4.42566 81.2321 5.06799 83.0879 6.09997C84.3349 6.76274 85.4198 7.69324 86.2648 8.82475C87.1098 9.95625 87.6939 11.2607 87.9753 12.6446C88.2567 14.0285 88.2284 15.4575 87.8924 16.8291C87.5564 18.2008 86.9211 19.4811 86.0319 20.5782C84.1038 23.0381 81.5402 25.0051 79.21 27.1364C75.1851 30.8198 71.0998 34.4339 67.1052 38.1432C66.3486 38.8436 65.8774 39.8725 65.2721 40.7371L65.5488 41.338C66.5042 41.0916 67.5677 41.0354 68.3978 40.5685C71.0868 39.0424 73.7023 37.3867 76.3264 35.7482C80.6496 33.0635 85.15 30.8803 90.1995 29.9897C90.7874 29.86 91.4143 29.7952 92.0325 29.7087Z" fill="#1ECA9A"/>
</svg>
