<svg width="47" height="24" viewBox="0 0 47 24" fill="none" xmlns="http://www.w3.org/2000/svg">
<path d="M29.4564 21.2527C27.4375 21.2527 25.4618 21.2829 23.4904 21.2159C23.2375 21.2159 22.842 20.7317 22.7858 20.4248C22.2994 17.4569 21.8736 14.4761 21.1948 11.4326C20.5874 12.6193 19.9692 13.8103 19.3726 14.9949C18.4561 16.8301 17.531 18.6588 16.6555 20.5134C16.3832 21.0905 16.0222 21.2721 15.404 21.2699C11.2278 21.244 7.05164 21.2699 2.86682 21.244C0.543125 21.2267 -0.483625 20.0335 0.216726 17.8417C1.66931 13.324 3.29481 8.86249 4.87277 4.3837C4.92473 4.26125 5.00487 4.15279 5.10666 4.06715C5.20845 3.98151 5.32902 3.92111 5.45855 3.89086C7.49908 3.85411 9.54177 3.86708 11.7574 3.86708C11.0527 5.90761 10.4021 7.80115 9.74496 9.70334C9.31265 10.9592 8.88033 12.2237 8.41775 13.4666C8.13891 14.2037 8.41775 14.4761 9.12243 14.4956H9.33859C12.8511 14.6166 12.8555 14.6166 14.4313 11.4434C15.5639 9.14781 16.6836 6.85006 17.8357 4.57175C17.9784 4.28859 18.2897 3.90815 18.5404 3.89518C21.4305 3.73738 24.327 3.64444 26.7868 5.57473C27.0722 5.79088 27.3813 6.15187 27.4353 6.48259C28.1616 11.2835 28.8468 16.0908 29.5385 20.8982C29.5245 21.019 29.497 21.1379 29.4564 21.2527V21.2527Z" fill="#1ECA9A"/>
<path d="M46.0162 14.8544C43.1046 16.0605 42.3416 18.4447 42.428 21.3888C40.8349 20.308 39.1857 20.5458 37.5515 20.803C34.0476 21.3586 30.7209 22.4934 27.4569 24C27.645 23.7838 27.8201 23.5526 28.0233 23.3515C29.8303 21.5423 31.6655 19.759 33.4402 17.9195C33.7659 17.5644 33.9531 17.1041 33.9676 16.6225C33.8422 10.6695 30.7577 6.71602 25.4704 4.34261C21.5796 2.59822 17.4596 2.07295 13.2316 2.22426C12.5485 2.24804 11.8655 2.29776 11.1824 2.32802C10.9907 2.30412 10.8012 2.26436 10.6161 2.20913C14.2521 1.62264 17.946 1.48037 21.6164 1.78546C22.9803 1.89354 24.3443 2.05134 25.7082 2.05566C26.2032 2.05566 26.7025 1.68387 27.1997 1.48284C26.8517 1.10673 26.508 0.728452 26.1535 0.360984C26.0411 0.244258 25.892 0.162118 25.8293 0C32.5806 2.26101 36.5961 6.90408 37.8757 13.9292C40.4005 12.4161 41.9827 7.72548 40.8911 5.06674C40.1951 3.37206 38.5329 2.34747 36.568 2.41448C36.1795 2.4422 35.7898 2.44725 35.4007 2.42961C36.413 2.10955 37.48 1.99948 38.5363 2.10616C39.5926 2.21283 40.6161 2.53399 41.5439 3.04999C42.1674 3.38137 42.7099 3.84662 43.1324 4.41237C43.5549 4.97812 43.847 5.63036 43.9877 6.3223C44.1284 7.01423 44.1142 7.72874 43.9462 8.41456C43.7782 9.10039 43.4605 9.74054 43.016 10.2891C42.0519 11.519 40.7701 12.5026 39.605 13.5682C37.5926 15.4099 35.5499 17.217 33.5526 19.0716C33.1743 19.4218 32.9387 19.9362 32.6361 20.3685L32.7744 20.669C33.2521 20.5458 33.7839 20.5177 34.1989 20.2842C35.5434 19.5212 36.8512 18.6933 38.1632 17.8741C40.3248 16.5317 42.575 15.4402 45.0997 14.9949C45.3937 14.93 45.7071 14.8976 46.0162 14.8544Z" fill="#1ECA9A"/>
</svg>
