<svg width="34" height="34" viewBox="0 0 34 34" fill="none" xmlns="http://www.w3.org/2000/svg">
<path d="M29.92 10.207C29.7341 10.7526 29.5782 11.2232 29.4131 11.6908C29.0273 12.7765 28.6291 13.856 28.2672 14.9478C28.1453 15.3144 27.9848 15.4532 27.5728 15.4486C25.3999 15.4231 23.2271 15.4355 21.0534 15.437C20.3474 15.437 20.1375 15.6022 19.9029 16.2696C19.0812 18.6122 18.2486 20.9518 17.4291 23.2959C17.3612 23.4919 17.2833 23.5984 17.0588 23.5969C15.477 23.5899 13.8951 23.5922 12.3133 23.5899C12.2463 23.5832 12.1798 23.5721 12.1143 23.5567C12.3056 22.9904 12.4869 22.4379 12.6791 21.89C13.0849 20.7306 13.4944 19.5731 13.9075 18.4178C14.5479 16.6114 15.1668 14.7966 15.8365 13.001C16.5063 11.2055 18.0171 10.207 19.933 10.207H29.92Z" fill="#1ECA9A"/>
<path d="M6.13271 23.5381C7.0818 20.8375 8.02394 18.1554 8.98229 15.4292H4.76001C5.38502 13.6607 5.99459 11.9423 6.60648 10.2077H7.8156C10.0533 10.2077 12.291 10.2131 14.5287 10.2C14.8196 10.2 14.9654 10.325 15.1637 10.5179C15.7455 11.0858 15.5835 11.6699 15.345 12.3096C14.8975 13.5064 14.4847 14.7155 14.0587 15.9169C13.1899 18.3768 12.3242 20.8375 11.4445 23.2943C11.4005 23.4147 11.2377 23.576 11.1289 23.5775C9.53399 23.5952 7.93983 23.5891 6.34491 23.586C6.2729 23.5764 6.20189 23.5603 6.13271 23.5381Z" fill="#1ECA9A"/>
</svg>
