<svg width="39" height="39" viewBox="0 0 39 39" fill="none" xmlns="http://www.w3.org/2000/svg">
<path d="M34.32 11.7081C34.1067 12.3338 33.9279 12.8737 33.7385 13.4101C33.296 14.6554 32.8393 15.8936 32.4242 17.146C32.2843 17.5665 32.1002 17.7258 31.6276 17.7205C29.1352 17.6913 26.6428 17.7054 24.1495 17.7072C23.3396 17.7072 23.0989 17.8966 22.8298 18.6622C21.8872 21.3493 20.9322 24.0329 19.9922 26.7218C19.9143 26.9466 19.825 27.0688 19.5674 27.067C17.753 27.059 15.9385 27.0617 14.1241 27.059C14.0472 27.0513 13.971 27.0386 13.8958 27.021C14.1153 26.3713 14.3232 25.7376 14.5436 25.1092C15.0092 23.7792 15.4789 22.4516 15.9527 21.1263C16.6873 19.0543 17.3972 16.9726 18.1654 14.913C18.9337 12.8534 20.6667 11.7081 22.8643 11.7081H34.32Z" fill="#1ECA9A"/>
<path d="M7.03459 26.9996C8.12325 23.9018 9.20394 20.8253 10.3032 17.6983H5.46002C6.17694 15.6696 6.87616 13.6985 7.57804 11.7089H8.96497C11.5317 11.7089 14.0985 11.7151 16.6652 11.7C16.9989 11.7 17.1662 11.8434 17.3937 12.0647C18.061 12.7161 17.8751 13.3861 17.6017 14.1198C17.0883 15.4926 16.6148 16.8795 16.1262 18.2576C15.1296 21.0793 14.1365 23.9018 13.1275 26.7199C13.0771 26.858 12.8903 27.043 12.7655 27.0448C10.9361 27.0651 9.10747 27.0581 7.27799 27.0545C7.1954 27.0435 7.11394 27.0251 7.03459 26.9996Z" fill="#1ECA9A"/>
</svg>
