<svg width="474" height="211" viewBox="0 0 474 211" fill="none" xmlns="http://www.w3.org/2000/svg">
<path d="M269.923 66.8163C273.684 67.7882 277.44 68.7732 281.205 69.7232C294.045 72.9671 306.841 76.3861 319.729 79.3543C324.624 80.475 329.75 80.9959 334.811 79.5513C338.497 78.4962 339.368 75.6113 336.628 72.9277C334.982 71.3254 333.187 69.8632 331.589 68.0465C333.655 69.2547 335.853 70.2835 337.762 71.7019C345.917 77.7651 352.44 85.4306 358.775 93.3107C362.807 98.3451 367.062 103.196 371.16 108.195C375.349 113.286 379.477 118.439 383.614 123.561C383.833 123.833 384.078 124.091 384.385 124.437C388.518 115.27 389.498 106.002 386.696 96.4189C384.433 88.6746 380.611 81.7664 374.85 76.141C367.115 68.5806 357.825 64.0189 347.047 62.3685C337.171 60.8538 327.592 62.0927 318.075 64.6274C317.956 64.6624 317.803 64.5705 317.541 64.1896C319.103 63.6993 320.671 63.2134 322.234 62.7143C323.796 62.2153 325.372 61.6243 326.975 61.2128C335.949 58.8969 345.072 57.5398 354.34 58.1483C364.545 58.8269 374.298 61.2872 382.45 67.8845C389.481 73.5756 393.858 80.8821 395.211 89.9704C396.524 98.8836 394.108 107.118 390.934 115.195C387.76 123.272 384.262 131.266 380.909 139.295C380.843 139.506 380.792 139.721 380.756 139.938C382.945 141.252 385.077 140.346 386.815 139.299C390.994 136.836 395.023 134.126 398.88 131.183C410.643 121.989 423.645 115.694 438.455 113.37C440.524 113.067 442.619 112.979 444.706 113.107C442.132 113.733 439.536 114.298 436.98 114.994C430.041 116.889 423.846 120.015 419.416 125.938C416.61 129.708 415.34 134.081 414.719 138.678C414.399 141.02 414.053 143.353 413.628 146.317C410.214 138.967 404.151 140.188 398.744 140.845C386.762 142.263 375.542 146.488 364.597 151.413C363.59 151.8 362.699 152.437 362.006 153.264C363.884 151.036 365.622 148.668 367.697 146.619C371.142 143.187 374.815 139.991 378.304 136.603C378.619 136.296 378.527 135.123 378.195 134.672C374.329 129.419 370.582 124.069 366.401 119.083C361.463 113.19 356.188 107.587 350.943 101.966C346.565 97.2813 341.036 94.1293 335.415 91.2662C330.162 88.6002 324.725 86.3719 319.362 83.9685C318.67 83.7225 317.966 83.5136 317.252 83.3424C318.442 86.0435 319.467 88.39 320.509 90.7234C325.599 102.106 330.693 113.488 335.792 124.87C337.845 129.44 340.012 133.958 342.008 138.551C342.354 139.347 342.49 140.661 342.065 141.296C339.11 145.704 341.426 147.906 344.451 149.981C348.675 152.875 353.644 153.895 358.56 154.797C366.506 156.285 374.557 157.007 382.608 156.456C395.859 155.55 408.957 153.689 421.171 147.958C421.368 147.882 421.579 147.85 421.789 147.864C422 147.878 422.204 147.939 422.388 148.042C421.771 148.392 421.171 148.764 420.541 149.084C411.037 153.96 400.902 156.859 390.444 158.798C380.885 160.647 371.151 161.44 361.419 161.162C349.118 160.724 336.995 158.938 325.6 153.978C317.764 150.572 310.864 145.818 305.961 138.599C305.852 138.437 305.839 138.209 306.071 137.754C306.666 138.437 307.244 139.133 307.861 139.79C308.48 140.509 309.154 141.178 309.879 141.79C311.381 143.034 312.977 144.161 314.651 145.161C316.783 146.321 319.103 145.669 319.576 143.384C320.315 140.082 320.542 136.686 320.25 133.315C319.3 124.634 315.614 116.749 312.217 108.799C309.07 101.458 305.852 94.1512 302.674 86.8271C301.286 83.6314 299.994 80.3918 298.493 77.2486C298.03 76.4632 297.295 75.8756 296.427 75.5981C288.188 72.9014 279.914 70.2967 271.661 67.6437C271.069 67.4004 270.498 67.1076 269.954 66.7682L269.923 66.8163Z" fill="#1ECA9A"/>
<path d="M195.746 67.7488C194.691 70.8439 193.807 73.5144 192.87 76.1673C190.681 82.3269 188.422 88.4514 186.369 94.6459C185.677 96.7254 184.767 97.5134 182.429 97.4871C170.101 97.3426 157.773 97.4127 145.441 97.4214C141.436 97.4214 140.245 98.3583 138.914 102.145C134.252 115.436 129.528 128.709 124.879 142.009C124.494 143.121 124.051 143.725 122.777 143.716C113.803 143.677 104.829 143.69 95.8541 143.677C95.474 143.639 95.0967 143.576 94.7246 143.489C95.8103 140.276 96.8391 137.141 97.9292 134.033C100.232 127.454 102.555 120.888 104.899 114.333C108.532 104.084 112.043 93.7879 115.843 83.6008C119.643 73.4137 128.215 67.7488 139.085 67.7488H195.746Z" fill="#1ECA9A"/>
<path d="M60.7881 143.384C66.1727 128.062 71.518 112.844 76.9552 97.3776H53C56.546 87.3438 60.0045 77.5944 63.476 67.7532H70.336C83.0316 67.7532 95.7271 67.7838 108.423 67.7094C110.073 67.7094 110.901 68.4186 112.026 69.5131C115.326 72.7351 114.407 76.0491 113.054 79.6783C110.515 86.4682 108.173 93.3282 105.757 100.144C100.827 114.101 95.9154 128.061 90.9247 142C90.6752 142.683 89.7515 143.598 89.1342 143.607C80.0853 143.708 71.0408 143.673 61.992 143.655C61.5834 143.6 61.1805 143.51 60.7881 143.384Z" fill="#1ECA9A"/>
<path d="M247.255 96.2569C247.724 97.3776 247.973 98.6735 248.7 99.5884C255.788 108.537 262.757 117.537 266.264 128.644C268.492 135.688 269.022 142.653 265.252 149.513C262.166 155.112 257.228 158.369 251.589 160.737C244.331 163.802 236.679 165.47 228.847 166.201C222.157 166.827 215.459 167.457 208.753 167.803C203.823 168.057 198.868 167.856 193.925 168C203.542 167.994 213.119 166.754 222.42 164.31C232.051 161.753 240.781 157.502 247.509 149.889C252.482 144.268 255.389 137.688 255.429 130.128C255.438 125.632 255.104 121.142 254.43 116.697C253.406 109.911 249.593 104.334 245.846 98.7829C245.325 98.0081 244.773 97.2594 244.051 96.235C241.503 98.3758 239.016 100.451 236.547 102.543C228.959 108.964 221.381 115.385 213.813 121.806C207.247 127.409 200.715 133.07 194.166 138.704C192.467 140.163 190.754 141.611 189.026 143.047C188.723 143.356 188.332 143.564 187.906 143.642C183.186 143.686 178.467 143.673 173.389 143.673C174.593 140.17 175.687 136.988 176.808 133.805C180.564 123.118 184.326 112.434 188.094 101.755C190.283 95.6003 192.183 89.3357 194.735 83.3469C198.447 74.6263 205.084 69.338 214.68 68.1603C216.549 67.9219 218.43 67.7947 220.314 67.7795C235.561 67.7444 250.81 67.7357 266.062 67.7532H269.306C268.571 69.999 268.067 72.039 267.192 73.904C266.938 74.4468 265.616 74.727 264.784 74.727C247.492 74.7737 230.199 74.7868 212.907 74.7664C207.606 74.7664 204.489 76.929 202.768 81.8496C198.574 93.836 194.38 105.822 190.187 117.809C189.473 119.84 188.689 121.849 188.357 124.152L235.387 84.704C238.014 87.567 240.588 90.3207 243.118 93.1049C244.081 94.1731 244.939 95.3376 245.929 96.3795C246.065 96.524 246.682 96.2044 247.08 96.095L247.255 96.2569Z" fill="#1ECA9A"/>
<path d="M154.508 100.608H184.202C182.854 104.527 181.575 108.291 180.262 112.039C176.738 122.033 173.174 131.967 169.672 141.952C169.3 143.025 168.994 143.734 167.658 143.73C158.688 143.686 149.71 143.73 140.757 143.695C140.3 143.649 139.846 143.571 139.4 143.463L154.508 100.608Z" fill="#1ECA9A"/>
<path d="M247.08 96.0862C249.103 90.9948 252.938 87.9917 258.103 86.5295C258.589 86.3938 259.088 86.3194 259.579 86.2143C262.608 85.5445 263.366 85.9735 264.81 88.7228C267.38 93.6084 271.854 95.7798 276.95 97.0012C277.44 97.1194 277.97 97.3645 278.429 97.2813C283.827 96.2963 284.663 100.171 285.955 103.962C288.879 112.529 292.053 121.035 295.148 129.528C297.101 134.904 300.66 139.159 304.569 143.204C308.185 146.969 311.499 151.027 314.949 154.959L315.571 154.416C313.382 152.757 311.193 151.058 309.004 149.443C304.127 145.905 299.149 142.517 293.384 140.564C290.263 139.505 289.571 140.127 289.969 143.594C286.187 138.726 283.21 133.735 281.214 128.153C278.5 120.505 275.991 112.774 272.927 105.266C270.51 99.3564 266.071 95.0618 260.021 92.7109C254.947 90.7365 250.674 92.0499 247.264 96.2569L247.08 96.0862Z" fill="#1ECA9A"/>
<path d="M119.639 160.908C119.341 160.102 119.253 159.087 118.706 158.513C114.871 154.503 109.732 152.704 104.75 150.734C100.066 148.878 95.25 147.354 90.5439 145.411C94.8341 146.326 99.1068 147.341 103.423 148.129C114.806 150.196 126.157 152.341 137.57 154.096C142.924 154.924 148.401 154.972 153.829 155.296C157.528 155.51 161.236 155.782 164.931 155.677C177.732 155.318 190.357 153.68 202.545 149.583C216.815 144.813 230.068 137.419 241.621 127.781C244.506 125.378 247.409 122.992 250.521 120.777C249.361 121.963 248.253 123.207 247.019 124.318C238.342 132.168 229.044 139.124 218.655 144.609C209.685 149.346 200.374 153.155 190.471 155.304C183.769 156.758 176.979 157.896 170.171 158.737C164.073 159.485 157.914 159.713 151.754 160.024C146.671 160.282 141.576 160.243 136.489 160.483C131.056 160.742 125.627 161.179 120.199 161.525C119.838 161.521 119.478 161.489 119.122 161.429L119.639 160.908Z" fill="#1ECA9A"/>
<path d="M209.282 58.0695C210.281 57.5048 210.898 57.2684 211.366 56.8613C211.983 56.3228 213.065 55.3203 212.933 55.1102C212.496 54.3003 211.677 53.359 210.845 53.1489C207.276 52.2559 203.656 51.5761 200.006 51.1132C196.247 50.7485 192.47 50.6023 188.694 50.6755C174.785 50.7893 161.057 52.5623 147.775 56.6555C140.407 58.9276 133.372 62.2722 126.188 65.144C125.605 65.376 125.054 65.6825 124.275 65.5468C126.766 64.2335 129.248 62.8982 131.748 61.6068C145.319 54.5498 159.704 50.2246 174.825 47.9131C188.781 45.768 202.777 46.0613 216.79 46C218.248 46 219.706 46 221.168 46.0306C221.291 46.0306 221.413 46.1532 221.641 46.2714C220.476 47.8387 221.304 48.7624 222.657 49.6642C228.654 53.6655 235.444 55.8194 242.181 58.0827C246.016 59.3741 249.904 60.5123 253.713 61.9964C248.989 61.1208 244.292 60.0352 239.533 59.4004C234.59 58.7393 229.595 58.3453 224.613 58.1352C219.631 57.9251 214.698 58.0695 209.282 58.0695Z" fill="#1ECA9A"/>
<path d="M277.571 82.1955C278.767 83.233 279.642 84.148 280.671 84.8222C281.494 85.3694 282.505 85.6321 283.692 86.1355C282.553 89.3663 277.952 88.7271 275.527 91.7653L282.221 94.0155L282.102 94.4095C279.997 93.8229 277.86 93.337 275.803 92.6102C274.327 92.0893 274.24 90.973 275.304 89.8873C276.057 89.1212 276.967 88.5039 277.768 87.7816C279.436 86.28 279.261 84.9535 277.116 83.557C276.297 86.2975 271.815 83.36 271.631 87.462C269.184 84.2005 271.731 80.5013 270.12 76.7539C268.229 78.5444 266.566 80.1161 264.906 81.6921L264.512 81.2937C266.167 79.6783 267.748 77.9797 269.503 76.4781C270.76 75.4099 271.473 76.303 271.775 77.5594C272.077 78.8159 272.213 80.1423 272.594 81.3769C273.176 83.2068 274.345 83.627 275.864 83.0273C276.184 81.6789 276.56 80.6239 276.652 79.547C276.744 78.47 276.556 77.3581 276.477 76.0228C279.791 75.5063 281.73 79.4506 285.127 80.3043C285.342 79.6827 285.543 79.1092 285.74 78.5313H285.99V81.8716C284.029 81.3287 282.326 80.7859 280.588 80.3919C278.539 79.9234 277.847 80.5057 277.571 82.1955Z" fill="#1ECA9A"/>
<path d="M269.967 66.7726L260.59 64.3516L260.787 63.6906L269.923 66.8163L269.967 66.7726Z" fill="#1ECA9A"/>
<path d="M237 209.5C301.774 209.5 360.488 198.002 403.065 179.352C424.351 170.028 441.671 158.887 453.69 146.44C465.717 133.985 472.5 120.148 472.5 105.5C472.5 90.852 465.717 77.0153 453.69 64.5604C441.671 52.1129 424.351 40.9716 403.065 31.6476C360.488 12.9976 301.774 1.5 237 1.5C172.226 1.5 113.512 12.9976 70.9352 31.6476C49.6491 40.9716 32.3292 52.1129 20.3098 64.5604C8.28347 77.0153 1.5 90.852 1.5 105.5C1.5 120.148 8.28347 133.985 20.3098 146.44C32.3292 158.887 49.6491 170.028 70.9352 179.352C113.512 198.002 172.226 209.5 237 209.5Z" stroke="#1ECA9A" stroke-width="3"/>
</svg>
