<svg width="84" height="27" viewBox="0 0 84 27" fill="none" xmlns="http://www.w3.org/2000/svg">
<path d="M46.5184 4.46407C47.3249 4.67248 48.1303 4.88371 48.9377 5.08743C51.6912 5.78308 54.4353 6.51628 57.1991 7.15279C58.2487 7.39312 59.3481 7.50484 60.4333 7.19503C61.2238 6.96878 61.4106 6.35011 60.8229 5.77463C60.4699 5.43103 60.085 5.11747 59.7424 4.72787C60.1855 4.98698 60.6567 5.2076 61.0661 5.51177C62.815 6.81201 64.2139 8.45584 65.5723 10.1457C66.4369 11.2253 67.3494 12.2655 68.2282 13.3376C69.1266 14.4294 70.0119 15.5344 70.899 16.6328C70.946 16.691 70.9986 16.7464 71.0643 16.8205C71.9505 14.8547 72.1608 12.8673 71.56 10.8122C71.0746 9.15149 70.255 7.67007 69.0196 6.46371C67.3607 4.84241 65.3686 3.86418 63.0573 3.51025C60.9393 3.18542 58.8852 3.4511 56.8443 3.99467C56.8189 4.00218 56.7861 3.98246 56.7297 3.90079C57.0649 3.79564 57.401 3.69144 57.7361 3.58441C58.0713 3.47739 58.4093 3.35065 58.7529 3.26241C60.6774 2.76578 62.6339 2.47475 64.6213 2.60525C66.8096 2.75076 68.9013 3.27837 70.6493 4.69314C72.157 5.91357 73.0958 7.48043 73.3859 9.42938C73.6676 11.3408 73.1493 13.1067 72.4687 14.8387C71.7881 16.5708 71.038 18.2851 70.3189 20.0068C70.3048 20.052 70.2938 20.0981 70.286 20.1448C70.7554 20.4265 71.2126 20.2321 71.5853 20.0078C72.4816 19.4795 73.3455 18.8983 74.1726 18.2672C76.6952 16.2958 79.4834 14.9458 82.6594 14.4473C83.1031 14.3823 83.5524 14.3634 84 14.3909C83.448 14.5252 82.8913 14.6463 82.343 14.7956C80.855 15.2021 79.5266 15.8724 78.5765 17.1426C77.9748 17.9509 77.7025 18.8887 77.5692 19.8745C77.5007 20.3767 77.4265 20.8771 77.3354 21.5127C76.6032 19.9364 75.3029 20.1983 74.1435 20.3392C71.574 20.6433 69.1679 21.5493 66.8209 22.6054C66.605 22.6886 66.4137 22.8252 66.2651 23.0025C66.6679 22.5247 67.0406 22.0168 67.4856 21.5774C68.2244 20.8414 69.0121 20.1561 69.7603 19.4295C69.8279 19.3638 69.8082 19.1122 69.7368 19.0155C68.9078 17.8889 68.1042 16.7417 67.2077 15.6724C66.1487 14.4088 65.0175 13.2071 63.8928 12.0017C62.954 10.9972 61.7683 10.3212 60.5629 9.70726C59.4363 9.13553 58.2703 8.65768 57.1203 8.14228C56.9719 8.08955 56.8209 8.04474 56.6678 8.00803C56.9231 8.58727 57.1428 9.09047 57.3663 9.59085C58.4578 12.0317 59.5502 14.4726 60.6436 16.9135C61.0839 17.8936 61.5486 18.8624 61.9767 19.8472C62.0509 20.0181 62.08 20.2997 61.9889 20.4359C61.3552 21.3812 61.8518 21.8534 62.5005 22.2984C63.4065 22.919 64.472 23.1377 65.5263 23.3311C67.2302 23.6503 68.9567 23.8052 70.6831 23.6869C73.5249 23.4926 76.3337 23.0936 78.953 21.8647C78.9951 21.8483 79.0404 21.8414 79.0855 21.8444C79.1306 21.8475 79.1745 21.8605 79.214 21.8825C79.0816 21.9576 78.953 22.0374 78.8178 22.106C76.7797 23.1518 74.6064 23.7733 72.3636 24.1892C70.3137 24.5857 68.2264 24.7557 66.1393 24.6961C63.5013 24.6022 60.9018 24.2192 58.4581 23.1556C56.7776 22.4252 55.2981 21.4056 54.2466 19.8576C54.2232 19.8228 54.2203 19.774 54.2701 19.6764C54.3978 19.8228 54.5217 19.9721 54.6541 20.1129C54.7866 20.2672 54.9314 20.4107 55.0868 20.5419C55.4089 20.8088 55.751 21.0504 56.1101 21.2648C56.5673 21.5136 57.0649 21.3737 57.1663 20.8837C57.3247 20.1756 57.3735 19.4473 57.3109 18.7244C57.1071 16.8628 56.3167 15.172 55.5882 13.4672C54.9132 11.8928 54.2232 10.3259 53.5416 8.75532C53.244 8.07 52.967 7.37529 52.645 6.70123C52.5459 6.5328 52.3881 6.4068 52.2019 6.3473C50.4351 5.769 48.6608 5.21042 46.8911 4.6415C46.764 4.58933 46.6415 4.52652 46.525 4.45374L46.5184 4.46407Z" fill="#1ECA9A"/>
<path d="M30.6113 4.66382C30.385 5.32755 30.1954 5.90022 29.9945 6.46913C29.5251 7.79002 29.0407 9.1034 28.6004 10.4318C28.4521 10.8777 28.2568 11.0467 27.7555 11.0411C25.1118 11.0101 22.4682 11.0251 19.8236 11.027C18.9646 11.027 18.7092 11.2279 18.4238 12.04C17.424 14.8902 16.411 17.7366 15.414 20.5887C15.3314 20.8271 15.2366 20.9567 14.9634 20.9548C13.0389 20.9464 11.1143 20.9492 9.18978 20.9463C9.10826 20.9381 9.02735 20.9247 8.94757 20.906C9.18039 20.2169 9.40101 19.5447 9.63477 18.8782C10.1286 17.4675 10.6268 16.0593 11.1293 14.6536C11.9085 12.4559 12.6615 10.2478 13.4763 8.06321C14.2912 5.87862 16.1294 4.66382 18.4604 4.66382H30.6113Z" fill="#1ECA9A"/>
<path d="M1.67012 20.8836C2.82485 17.5978 3.97112 14.3345 5.13711 11.0178H0C0.760427 8.86603 1.50208 6.77533 2.24655 4.66491H3.71764C6.44016 4.66491 9.16268 4.67148 11.8852 4.65552C12.2391 4.65552 12.4166 4.8076 12.6578 5.0423C13.3657 5.73326 13.1685 6.44393 12.8784 7.22219C12.3339 8.67827 11.8317 10.1494 11.3135 11.6111C10.2564 14.604 9.20305 17.5978 8.13282 20.5869C8.07931 20.7334 7.88122 20.9296 7.74885 20.9315C5.80835 20.9531 3.86879 20.9456 1.92829 20.9418C1.84068 20.9301 1.75429 20.9106 1.67012 20.8836Z" fill="#1ECA9A"/>
<path d="M41.6573 10.7774C41.7578 11.0178 41.8113 11.2956 41.9671 11.4918C43.487 13.4108 44.9816 15.3409 45.7336 17.7227C46.2114 19.2332 46.325 20.7268 45.5167 22.1979C44.8549 23.3986 43.7959 24.0971 42.5867 24.605C41.0302 25.2621 39.3892 25.6198 37.7097 25.7766C36.2752 25.9109 34.8388 26.046 33.4006 26.1202C32.3435 26.1747 31.2808 26.1315 30.2209 26.1625C32.2832 26.1613 34.3369 25.8953 36.3315 25.3711C38.3969 24.8228 40.2688 23.9112 41.7118 22.2786C42.7782 21.0732 43.4016 19.6622 43.4101 18.0409C43.412 17.0768 43.3405 16.1139 43.196 15.1607C42.9763 13.7055 42.1586 12.5095 41.355 11.3191C41.2433 11.1529 41.125 10.9924 40.9701 10.7727C40.4237 11.2318 39.8905 11.6768 39.361 12.1255C37.7338 13.5024 36.1087 14.8793 34.4858 16.2563C33.0776 17.4579 31.6769 18.6718 30.2725 19.88C29.9082 20.193 29.5409 20.5034 29.1703 20.8113C29.1053 20.8776 29.0213 20.9221 28.93 20.939C27.918 20.9484 26.906 20.9456 25.817 20.9456C26.0751 20.1945 26.3098 19.512 26.5502 18.8295C27.3556 16.5376 28.1624 14.2466 28.9704 11.9566C29.4398 10.6366 29.8472 9.29318 30.3945 8.0089C31.1906 6.13882 32.6139 5.00475 34.6717 4.75221C35.0725 4.70108 35.4759 4.67381 35.8799 4.67054C39.1495 4.66302 42.4196 4.66115 45.6904 4.6649H46.386C46.2283 5.14651 46.1204 5.58399 45.9326 5.98391C45.8782 6.10033 45.5946 6.16041 45.4163 6.16041C41.708 6.17042 37.9998 6.17324 34.2915 6.16886C33.1546 6.16886 32.4862 6.63262 32.1172 7.68783C31.2179 10.2583 30.3185 12.8287 29.4191 15.3991C29.2661 15.8347 29.0981 16.2656 29.0267 16.7594L39.1122 8.29993C39.6755 8.91391 40.2275 9.50441 40.7701 10.1015C40.9767 10.3306 41.1607 10.5803 41.3729 10.8037C41.402 10.8347 41.5343 10.7662 41.6198 10.7427L41.6573 10.7774Z" fill="#1ECA9A"/>
<path d="M41.6197 10.7408C42.0534 9.64893 42.8758 9.00491 43.9836 8.69135C44.0878 8.66225 44.1948 8.64629 44.3 8.62376C44.9496 8.48012 45.112 8.57213 45.4218 9.16169C45.9729 10.2094 46.9324 10.675 48.0251 10.937C48.1303 10.9623 48.2439 11.0149 48.3424 10.997C49.5 10.7858 49.6793 11.6167 49.9562 12.4297C50.5833 14.2669 51.264 16.091 51.9277 17.9122C52.3464 19.0651 53.1097 19.9776 53.948 20.845C54.7234 21.6524 55.4341 22.5227 56.1739 23.3657L56.3072 23.2493C55.8378 22.8935 55.3684 22.5293 54.899 22.1828C53.8532 21.4243 52.7858 20.6977 51.5494 20.279C50.88 20.0518 50.7317 20.1851 50.8171 20.9286C50.006 19.8847 49.3676 18.8144 48.9395 17.6175C48.3575 15.9774 47.8195 14.3195 47.1624 12.7094C46.6441 11.442 45.6922 10.5211 44.3948 10.0169C43.3067 9.59354 42.3904 9.87518 41.6591 10.7774L41.6197 10.7408Z" fill="#1ECA9A"/>
<path d="M14.2903 24.6415C14.2265 24.4688 14.2077 24.251 14.0904 24.128C13.268 23.268 12.1658 22.8822 11.0975 22.4597C10.093 22.0617 9.0603 21.735 8.05109 21.3181C8.97111 21.5144 9.88738 21.7322 10.813 21.9011C13.2539 22.3442 15.6882 22.8043 18.1357 23.1807C19.2838 23.3582 20.4583 23.3685 21.6224 23.4379C22.4157 23.484 23.2108 23.5422 24.0032 23.5196C26.7482 23.4426 29.4557 23.0915 32.0693 22.2128C35.1294 21.19 37.9714 19.6044 40.449 17.5376C41.0677 17.0222 41.6901 16.5106 42.3576 16.0355C42.1088 16.2899 41.8713 16.5566 41.6066 16.795C39.7459 18.4783 37.7519 19.97 35.5241 21.1463C33.6005 22.1621 31.6037 22.9789 29.4801 23.4398C28.0428 23.7515 26.5867 23.9956 25.1269 24.1759C23.8192 24.3364 22.4983 24.3852 21.1774 24.4519C20.0874 24.5072 18.9947 24.4988 17.9038 24.5504C16.7387 24.6058 15.5746 24.6997 14.4105 24.7739C14.3331 24.773 14.2559 24.7661 14.1796 24.7532L14.2903 24.6415Z" fill="#1ECA9A"/>
<path d="M33.5141 2.58827C33.7282 2.46716 33.8606 2.41647 33.961 2.32916C34.0934 2.21369 34.3253 1.9987 34.2971 1.95364C34.2032 1.77996 34.0277 1.57812 33.8493 1.53306C33.0838 1.34155 32.3076 1.19578 31.5248 1.09652C30.7187 1.0183 29.9087 0.98695 29.099 1.00264C26.1164 1.02705 23.1723 1.40726 20.324 2.28504C18.744 2.77227 17.2354 3.48951 15.6948 4.10537C15.5699 4.15512 15.4517 4.22084 15.2845 4.19174C15.8187 3.9101 16.351 3.62376 16.8871 3.34682C19.7974 1.83347 22.8822 0.905941 26.1249 0.410255C29.1177 -0.0497568 32.1191 0.0131432 35.1242 0C35.4368 0 35.7494 6.87569e-07 36.063 0.00657228C36.0893 0.00657228 36.1156 0.0328575 36.1644 0.0582051C35.9147 0.394295 36.0921 0.592382 36.3822 0.785774C37.6683 1.64384 39.1244 2.10573 40.5692 2.59109C41.3916 2.86803 42.2253 3.11212 43.042 3.43037C42.0291 3.24261 41.0217 3.00979 40.0012 2.87366C38.9413 2.7319 37.8702 2.64741 36.8018 2.60235C35.7335 2.55729 34.6754 2.58827 33.5141 2.58827Z" fill="#1ECA9A"/>
<path d="M48.1585 7.76189C48.4148 7.98439 48.6025 8.1806 48.8231 8.32517C48.9996 8.44252 49.2165 8.49885 49.4709 8.60681C49.2268 9.29964 48.2401 9.16258 47.72 9.8141L49.1555 10.2966L49.1301 10.3811C48.6786 10.2553 48.2204 10.1511 47.7792 9.99529C47.4628 9.88358 47.444 9.64418 47.6722 9.41136C47.8336 9.24707 48.0289 9.1147 48.2007 8.9598C48.5584 8.63779 48.5208 8.35333 48.0608 8.05386C47.8853 8.64154 46.9239 8.01161 46.8845 8.89127C46.3597 8.19186 46.9061 7.39858 46.5606 6.59496C46.1551 6.97893 45.7983 7.31596 45.4425 7.65393L45.358 7.5685C45.7129 7.22208 46.0518 6.85783 46.4283 6.53582C46.6977 6.30675 46.8507 6.49827 46.9155 6.7677C46.9803 7.03714 47.0094 7.32159 47.0911 7.58634C47.2159 7.97875 47.4666 8.06888 47.7923 7.94026C47.8609 7.65111 47.9416 7.42486 47.9613 7.19392C47.981 6.96297 47.9407 6.72452 47.9238 6.43818C48.6344 6.32741 49.0503 7.17326 49.7788 7.35633C49.8248 7.22302 49.868 7.10004 49.9103 6.97612H49.9638V7.69242C49.5432 7.57601 49.178 7.4596 48.8053 7.37511C48.3659 7.27465 48.2176 7.39951 48.1585 7.76189Z" fill="#1ECA9A"/>
</svg>
