<svg xmlns="http://www.w3.org/2000/svg" xmlns:xlink="http://www.w3.org/1999/xlink" viewBox="0 0 203.79 53.38"><defs><style>.cls-1,.cls-3{fill:none;}.cls-2{clip-path:url(#clip-path);}.cls-3{stroke:#0058a5;stroke-miterlimit:10;stroke-width:0.32px;}.cls-4{fill:#0058a5;}.cls-5{fill:#fff;}</style><clipPath id="clip-path" transform="translate(-21.59 -20.17)"><rect class="cls-1" width="247.14" height="95.13"/></clipPath></defs><title>cci</title><g id="Calque_2" data-name="Calque 2"><g id="Calque_1-2" data-name="Calque 1"><g class="cls-2"><line class="cls-3" x1="7.63" y1="10.03" x2="196.76" y2="10.05"/><path class="cls-4" d="M33.26,24.75a1.81,1.81,0,0,1-2,1.87,1.78,1.78,0,0,1-2-1.87V21.2h1.13v3.5c0,.71.27,1.06.88,1.06s.9-.35.9-1.06V21.2h1.12Z" transform="translate(-21.59 -20.17)"/><path class="cls-4" d="M37.68,23.54v3H36.59V23.73c0-.47-.17-.6-.44-.6a1,1,0,0,0-.78.57v2.8H34.28V22.44h.94l.09.52a1.52,1.52,0,0,1,1.24-.64,1.08,1.08,0,0,1,1.13,1.22" transform="translate(-21.59 -20.17)"/><path class="cls-4" d="M42.11,24.8H39.58c.08.78.45,1,1,1a1.61,1.61,0,0,0,1-.36l.45.62a2.39,2.39,0,0,1-1.53.55,1.89,1.89,0,0,1-2-2.13c0-1.22.65-2.17,1.84-2.17s1.82.77,1.82,2.06c0,.13,0,.3,0,.42m-1-.73c0-.61-.21-1-.73-1s-.69.29-.75,1.06h1.48Z" transform="translate(-21.59 -20.17)"/><path class="cls-4" d="M48.19,24.8H45.66c.08.78.44,1,1,1a1.61,1.61,0,0,0,1-.36l.45.62a2.4,2.4,0,0,1-1.54.55,1.89,1.89,0,0,1-2-2.13c0-1.22.66-2.17,1.85-2.17s1.82.77,1.82,2.06c0,.13,0,.3,0,.42m-2.55-3.09-.3-.56,1.64-1,.42.84Zm1.5,2.36c0-.61-.21-1-.73-1s-.7.29-.75,1.06h1.48Z" transform="translate(-21.59 -20.17)"/><path class="cls-4" d="M52,22.81l-.48.64a1.23,1.23,0,0,0-.79-.29c-.55,0-.87.39-.87,1.33s.35,1.26.86,1.26a1.38,1.38,0,0,0,.8-.29l.48.68a2,2,0,0,1-1.33.48,1.9,1.9,0,0,1-2-2.12A2,2,0,0,1,52,22.81" transform="translate(-21.59 -20.17)"/><path class="cls-4" d="M56.29,24.47a1.91,1.91,0,0,1-1.94,2.15,1.89,1.89,0,0,1-1.94-2.15,1.92,1.92,0,0,1,2-2.15c1.21,0,1.93.8,1.93,2.15m-2.75,0c0,.93.28,1.34.81,1.34s.81-.42.81-1.34-.27-1.34-.8-1.34-.82.41-.82,1.34" transform="translate(-21.59 -20.17)"/><path class="cls-4" d="M57.08,25.52V20.83l1.09-.12v4.78c0,.17.07.26.22.26a.46.46,0,0,0,.21,0l.22.77a1.69,1.69,0,0,1-.69.14,1,1,0,0,1-1.05-1.1" transform="translate(-21.59 -20.17)"/><path class="cls-4" d="M62.78,24.8H60.25c.08.78.45,1,1,1a1.61,1.61,0,0,0,1-.36l.45.62a2.37,2.37,0,0,1-1.53.55,1.89,1.89,0,0,1-2-2.13c0-1.22.65-2.17,1.84-2.17s1.83.77,1.83,2.06c0,.13,0,.3,0,.42m-1.05-.73c0-.61-.21-1-.73-1s-.69.29-.75,1.06h1.48Z" transform="translate(-21.59 -20.17)"/><path class="cls-4" d="M69,20.83v5.66H68L68,26a1.36,1.36,0,0,1-1.16.62c-1,0-1.54-.86-1.54-2.15s.65-2.15,1.65-2.15a1.36,1.36,0,0,1,1,.41v-2Zm-1.09,4.49V23.51a.88.88,0,0,0-.7-.39c-.47,0-.8.4-.8,1.35s.29,1.34.73,1.34a.89.89,0,0,0,.77-.49" transform="translate(-21.59 -20.17)"/><path class="cls-4" d="M73.44,24.8H70.91c.08.78.44,1,1,1a1.61,1.61,0,0,0,1-.36l.45.62a2.4,2.4,0,0,1-1.54.55,1.89,1.89,0,0,1-2-2.13c0-1.22.66-2.17,1.85-2.17s1.82.77,1.82,2.06c0,.13,0,.3,0,.42m-1-.73c0-.61-.21-1-.73-1s-.7.29-.75,1.06h1.48Z" transform="translate(-21.59 -20.17)"/><path class="cls-4" d="M207.44,73.56H39.54a18,18,0,0,1-17.95-18v-.23a18,18,0,0,1,18-17.94h167.9a18,18,0,0,1,17.94,17.94v.23a18,18,0,0,1-17.94,18" transform="translate(-21.59 -20.17)"/><path class="cls-5" d="M36,55.5A10.83,10.83,0,0,0,53.54,64l-2.29-2.55a7.32,7.32,0,0,1-4.37,1.42,7.4,7.4,0,1,1,3-14.18l1.36-3.15A10.82,10.82,0,0,0,36,55.5" transform="translate(-21.59 -20.17)"/><path class="cls-5" d="M41.1,55.5a5.78,5.78,0,0,0,5.77,5.77,5.61,5.61,0,0,0,3.25-1l-2.33-2.6a2.36,2.36,0,0,1-.92.2,2.34,2.34,0,0,1-2.33-2.34,2.37,2.37,0,0,1,2.34-2.37,2.31,2.31,0,0,1,.95.2l1.36-3.11a5.89,5.89,0,0,0-2.32-.5A5.78,5.78,0,0,0,41.1,55.5" transform="translate(-21.59 -20.17)"/><path class="cls-5" d="M51.18,53.25a5.08,5.08,0,0,1,.56,2.25,5.22,5.22,0,0,1-1.07,3L53,61.09A8.27,8.27,0,0,0,54.3,51.8Z" transform="translate(-21.59 -20.17)"/><path class="cls-5" d="M50.22,52l5.88-2.76A11,11,0,0,0,52.84,46L50.2,52Z" transform="translate(-21.59 -20.17)"/><path class="cls-5" d="M70,46.16l-1,1.13a2.66,2.66,0,0,0-1.59-.58c-1.13,0-1.92.86-1.92,2.92s.77,2.88,1.94,2.88a2.82,2.82,0,0,0,1.73-.68L70.08,53a4.05,4.05,0,0,1-2.76,1.08c-2.41,0-4-1.55-4-4.42s1.72-4.39,4-4.39a4,4,0,0,1,2.68.92" transform="translate(-21.59 -20.17)"/><path class="cls-5" d="M77.16,46.16l-1,1.13a2.63,2.63,0,0,0-1.59-.58c-1.13,0-1.92.86-1.92,2.92s.78,2.88,2,2.88a2.8,2.8,0,0,0,1.72-.68L77.26,53a4,4,0,0,1-2.76,1.08c-2.41,0-4-1.55-4-4.42s1.71-4.39,4-4.39a4,4,0,0,1,2.68.92" transform="translate(-21.59 -20.17)"/><rect class="cls-5" x="56.47" y="25.28" width="2.08" height="8.39"/><path class="cls-5" d="M91.07,48.19c0,2-1.45,2.85-3.49,2.85h-1v2.8H84.55V45.45h2.84c2.28,0,3.68.9,3.68,2.74m-2.15,0c0-.9-.52-1.32-1.55-1.32h-.74v2.74h.78c.94,0,1.51-.37,1.51-1.42" transform="translate(-21.59 -20.17)"/><path class="cls-5" d="M96.23,52H93.66l-.44,1.8H91.06l2.65-8.39h2.53l2.66,8.39H96.69Zm-.36-1.45L95,46.89,94,50.59Z" transform="translate(-21.59 -20.17)"/><path class="cls-5" d="M102.32,50.63h-.81v3.21H99.42V45.45h2.89c2.38,0,3.62.81,3.62,2.55a2.32,2.32,0,0,1-1.69,2.27l2.23,3.57h-2.35Zm-.81-1.37h.87c.92,0,1.4-.37,1.4-1.26s-.49-1.16-1.52-1.16h-.75Z" transform="translate(-21.59 -20.17)"/><rect class="cls-5" x="85.54" y="25.28" width="2.08" height="8.39"/><path class="cls-5" d="M116.62,46.32l-1,1.08a3,3,0,0,0-1.93-.7c-.72,0-1.18.29-1.18.82s.33.75,1.7,1.16c1.67.51,2.62,1.16,2.62,2.71s-1.3,2.66-3.49,2.66a4.85,4.85,0,0,1-3.35-1.2l1.06-1.11a3.37,3.37,0,0,0,2.22.83c.87,0,1.4-.39,1.4-1s-.33-.9-1.61-1.27c-2-.58-2.7-1.36-2.7-2.61,0-1.47,1.35-2.42,3.18-2.42a4.25,4.25,0,0,1,3.05,1.08" transform="translate(-21.59 -20.17)"/><rect class="cls-5" x="99.17" y="25.28" width="2.08" height="8.39"/><polygon class="cls-5" points="104.85 32.09 108.28 32.09 108.07 33.67 102.77 33.67 102.77 25.28 104.85 25.28 104.85 32.09"/><polygon class="cls-5" points="114.35 26.69 111.25 26.69 111.25 28.7 113.95 28.7 113.95 30.09 111.25 30.09 111.25 32.24 114.56 32.24 114.56 33.67 109.16 33.67 109.16 25.28 114.56 25.28 114.35 26.69"/><rect class="cls-5" x="115.45" y="29.14" width="4.05" height="1.48"/><path class="cls-5" d="M149.39,49.6c0,3.38-2.13,4.24-4.38,4.24h-2.65V45.45h2.46c2.35,0,4.57.69,4.57,4.15m-4.94-2.71V52.4h.68c1.26,0,2.1-.57,2.1-2.8s-.9-2.71-2.12-2.71Z" transform="translate(-21.59 -20.17)"/><polygon class="cls-5" points="134.1 26.69 131 26.69 131 28.7 133.71 28.7 133.71 30.09 131 30.09 131 32.24 134.32 32.24 134.32 33.67 128.92 33.67 128.92 25.28 134.32 25.28 134.1 26.69"/><rect class="cls-5" x="135.21" y="29.14" width="4.05" height="1.48"/><polygon class="cls-5" points="140.52 25.28 145.77 25.28 145.56 26.69 142.61 26.69 142.61 28.92 145.18 28.92 145.18 30.34 142.61 30.34 142.61 33.67 140.52 33.67 140.52 25.28"/><path class="cls-5" d="M171.08,50.63h-.82v3.21h-2.08V45.45h2.89c2.38,0,3.62.81,3.62,2.55A2.32,2.32,0,0,1,173,50.27l2.23,3.57h-2.35Zm-.82-1.37h.88c.92,0,1.4-.37,1.4-1.26s-.5-1.16-1.53-1.16h-.75Z" transform="translate(-21.59 -20.17)"/><path class="cls-5" d="M180.08,52h-2.57l-.44,1.8h-2.16l2.65-8.39h2.53l2.66,8.39h-2.21Zm-.36-1.45-.93-3.7-.92,3.7Z" transform="translate(-21.59 -20.17)"/><path class="cls-5" d="M190.06,53.84H187.4l-2.54-6.5a24,24,0,0,1,.26,3.42v3.08h-1.85V45.45h2.59L188.47,52a17.82,17.82,0,0,1-.28-3.12V45.45h1.87Z" transform="translate(-21.59 -20.17)"/><path class="cls-5" d="M197.85,46.16l-1,1.13a2.63,2.63,0,0,0-1.59-.58c-1.13,0-1.92.86-1.92,2.92s.78,2.88,1.94,2.88a2.82,2.82,0,0,0,1.73-.68L198,53a4,4,0,0,1-2.76,1.08c-2.41,0-4-1.55-4-4.42s1.72-4.39,4-4.39a4,4,0,0,1,2.68.92" transform="translate(-21.59 -20.17)"/><polygon class="cls-5" points="182.34 26.69 179.24 26.69 179.24 28.7 181.95 28.7 181.95 30.09 179.24 30.09 179.24 32.24 182.56 32.24 182.56 33.67 177.16 33.67 177.16 25.28 182.56 25.28 182.34 26.69"/><polygon class="cls-5" points="47.29 38.16 44.19 38.16 44.19 40.17 46.9 40.17 46.9 41.56 44.19 41.56 44.19 43.71 47.51 43.71 47.51 45.13 42.11 45.13 42.11 36.74 47.51 36.74 47.29 38.16"/><path class="cls-5" d="M77.29,61.07c0,3.38-2.14,4.24-4.39,4.24H70.26V56.92h2.45c2.35,0,4.58.69,4.58,4.15m-5-2.71v5.51H73c1.26,0,2.1-.57,2.1-2.8s-.91-2.71-2.13-2.71Z" transform="translate(-21.59 -20.17)"/><path class="cls-5" d="M85.16,62.52c0,1.7-1.15,3-3.45,3s-3.43-1.22-3.43-3v-5.6h2.08v5.52c0,1.08.41,1.6,1.35,1.6s1.36-.52,1.36-1.6V56.92h2.09Z" transform="translate(-21.59 -20.17)"/><path class="cls-5" d="M92.83,57.63l-1,1.13a2.55,2.55,0,0,0-1.59-.58c-1.13,0-1.92.86-1.92,2.91s.78,2.89,2,2.89A2.88,2.88,0,0,0,92,63.3l.92,1.14a4,4,0,0,1-2.75,1.07c-2.42,0-4-1.55-4-4.42s1.71-4.38,4-4.38a4,4,0,0,1,2.68.92" transform="translate(-21.59 -20.17)"/><path class="cls-5" d="M97.92,63.5H95.35l-.44,1.81H92.75l2.65-8.39h2.53l2.66,8.39H98.38Zm-.36-1.44-.92-3.7-.93,3.7Z" transform="translate(-21.59 -20.17)"/><polygon class="cls-5" points="85.34 38.27 83.17 38.27 83.17 45.13 81.08 45.13 81.08 38.27 78.81 38.27 78.81 36.74 85.54 36.74 85.34 38.27"/><rect class="cls-5" x="86.26" y="36.74" width="2.08" height="8.39"/><path class="cls-5" d="M119,61.11c0,2.74-1.48,4.4-4,4.4s-4-1.61-4-4.4,1.49-4.4,4-4.4,4,1.6,4,4.4m-5.75,0c0,2.13.63,3,1.77,3s1.8-.82,1.8-3-.61-3-1.8-3-1.77.83-1.77,3" transform="translate(-21.59 -20.17)"/><path class="cls-5" d="M126.89,65.31h-2.66l-2.54-6.51a23.87,23.87,0,0,1,.27,3.43v3.08H120.1V56.92h2.6l2.6,6.51a19,19,0,0,1-.28-3.12V56.92h1.87Z" transform="translate(-21.59 -20.17)"/></g></g></g></svg>