<svg width="14" height="24" viewBox="0 0 14 24" fill="none" xmlns="http://www.w3.org/2000/svg">
<path d="M6.56687 5.45343e-05C5.42784 0.0109935 4.31748 0.362159 3.37566 1.00932C2.43384 1.65648 1.70268 2.57069 1.27428 3.63679C0.845871 4.7029 0.739379 5.87322 0.968219 7.00035C1.19706 8.12747 1.75099 9.16098 2.56025 9.97071C3.36951 10.7804 4.39789 11.3302 5.51587 11.5506C6.63384 11.7711 7.79141 11.6525 8.84276 11.2097C9.89412 10.7669 10.7922 10.0197 11.424 9.06231C12.0557 8.1049 12.3929 6.98007 12.3929 5.82949C12.3857 4.27651 11.7681 2.79001 10.676 1.69685C9.58399 0.603689 8.10683 -0.00664233 6.56936 5.45343e-05M6.58184 7.1168C6.33021 7.11481 6.0848 7.03762 5.87653 6.89497C5.66827 6.75231 5.50647 6.55057 5.41154 6.31518C5.3166 6.07978 5.29279 5.82127 5.34308 5.57222C5.39338 5.32318 5.51553 5.09474 5.69416 4.91572C5.87279 4.73669 6.09988 4.61508 6.34683 4.56622C6.59377 4.51736 6.8495 4.54344 7.0818 4.64116C7.31409 4.73888 7.51255 4.90388 7.65215 5.11535C7.79176 5.32683 7.86626 5.57531 7.86626 5.82949C7.86428 6.17203 7.72801 6.49983 7.48727 6.7411C7.24654 6.98238 6.92096 7.11747 6.58184 7.1168" fill="#1ECA9A"/>
<path d="M10.692 23.2271L10.9264 23.1112C11.1584 22.9928 12.3056 22.3554 12.0787 21.5518C11.9041 20.9321 11.1235 20.6802 11.1235 20.6802C11.1235 20.6802 6.27008 19.2266 3.25729 18.2441C0.142253 17.2364 0.0474794 15.0019 0.015057 14.5963C-0.0507357 13.8671 0.0998452 13.1346 0.447619 12.4922C0.795393 11.8497 1.32462 11.3264 1.96788 10.9888L2.11253 10.9183L2.1674 11.0064L2.06265 11.0593C1.90304 11.14 0.980245 11.6564 1.10495 12.3189C1.22965 12.9815 2.0427 13.1931 2.0427 13.1931C2.0427 13.1931 6.90606 14.6593 9.89889 15.6418C13.0164 16.6495 13.1087 18.884 13.1411 19.2896C13.2245 20.0868 13.0623 20.8906 12.6766 21.5912C12.291 22.2919 11.7007 22.8552 10.9863 23.2044L10.7494 23.3178L10.692 23.2271Z" fill="#1ECA9A"/>
</svg>
